<?xml version="1.0" encoding="UTF-8" standalone="no"?>
<svg
   xmlns:dc="http://purl.org/dc/elements/1.1/"
   xmlns:cc="http://creativecommons.org/ns#"
   xmlns:rdf="http://www.w3.org/1999/02/22-rdf-syntax-ns#"
   xmlns:svg="http://www.w3.org/2000/svg"
   xmlns="http://www.w3.org/2000/svg"
   xmlns:sodipodi="http://sodipodi.sourceforge.net/DTD/sodipodi-0.dtd"
   xmlns:inkscape="http://www.inkscape.org/namespaces/inkscape"
   width="2048"
   height="1792"
   viewBox="0 0 2048 1792"
   id="svg8107"
   version="1.1"
   inkscape:version="0.91 r13725"
   sodipodi:docname="image.svg">
  <metadata
     id="metadata8115">
    <rdf:RDF>
      <cc:Work
         rdf:about="">
        <dc:format>image/svg+xml</dc:format>
        <dc:type
           rdf:resource="http://purl.org/dc/dcmitype/StillImage" />
      </cc:Work>
    </rdf:RDF>
  </metadata>
  <defs
     id="defs8113" />
  <sodipodi:namedview
     pagecolor="#ffffff"
     bordercolor="#666666"
     borderopacity="1"
     objecttolerance="10"
     gridtolerance="10"
     guidetolerance="10"
     inkscape:pageopacity="0"
     inkscape:pageshadow="2"
     inkscape:window-width="1920"
     inkscape:window-height="1018"
     id="namedview8111"
     showgrid="false"
     inkscape:zoom="0.093123438"
     inkscape:cx="3135.4852"
     inkscape:cy="1656.7133"
     inkscape:window-x="-8"
     inkscape:window-y="-8"
     inkscape:window-maximized="1"
     inkscape:current-layer="svg8107" />
  <path
     d="m 1824,256 -1600,0 c -8.66667,0 -16.16667,3.16667 -22.5,9.5 -6.33333,6.33333 -9.5,13.83333 -9.5,22.5 l 0,1216 c 0,8.6667 3.16667,16.1667 9.5,22.5 6.33333,6.3333 13.83333,9.5 22.5,9.5 l 1600,0 c 8.6667,0 16.1667,-3.1667 22.5,-9.5 6.3333,-6.3333 9.5,-13.8333 9.5,-22.5 l 0,-1216 c 0,-8.66667 -3.1667,-16.16667 -9.5,-22.5 -6.3333,-6.33333 -13.8333,-9.5 -22.5,-9.5 z m 160,32 0,1216 c 0,44 -15.6667,81.6667 -47,113 -31.3333,31.3333 -69,47 -113,47 l -1600,0 c -44,0 -81.66667,-15.6667 -113,-47 -31.333333,-31.3333 -47,-69 -47,-113 L 64,288 c 0,-44 15.666667,-81.66667 47,-113 31.33333,-31.33333 69,-47 113,-47 l 1600,0 c 44,0 81.6667,15.66667 113,47 31.3333,31.33333 47,69 47,113 z"
     id="path8109"
     style="fill:#949494;fill-opacity:1"
     inkscape:connector-curvature="0"
     sodipodi:nodetypes="ssssssssssssssssssssssssss" />
  <circle
     style="fill:#febf14;fill-opacity:1;stroke:none;stroke-width:0;stroke-miterlimit:4;stroke-dasharray:none;stroke-opacity:1"
     id="path8693"
     cx="513.60712"
     cy="576.66522"
     r="194.55272" />
  <path
     style="fill:#009c24;fill-opacity:1"
     d="m 1727.1865,958.1017 0,448 -1408.00004,0 0,-192 320,-320 160,160 512.00004,-512 z"
     id="path8714"
     inkscape:connector-curvature="0" />
</svg>
