<?xml version="1.0" standalone="no"?>
<!-- Generator: Adobe Fireworks 10, Export SVG Extension by Aaron Beall (http://fireworks.abeall.com) . Version: 0.6.1  -->
<!DOCTYPE svg PUBLIC "-//W3C//DTD SVG 1.1//EN" "http://www.w3.org/Graphics/SVG/1.1/DTD/svg11.dtd">
<svg id="Assets%20-%20v8%20-%20Slim.fw-Page%201%20Copy%202" viewBox="0 0 29 32" style="background-color:#ffffff00" version="1.1"
	xmlns="http://www.w3.org/2000/svg" xmlns:xlink="http://www.w3.org/1999/xlink" xml:space="preserve"
	x="0px" y="0px" width="29px" height="32px"
>
	<g id="CIRCULAR%20HIERARCHICAL">
		<path id="Line" d="M 16.8103 10.5535 L 10.8103 7.5535 " stroke="#747d97" stroke-width="2" fill="none"/>
		<path id="Line2" d="M 18.8103 14.5535 L 13.0879 16.8678 L 10.8103 23.5535 " stroke="#747d97" stroke-width="2" fill="none"/>
		<path d="M 11.3103 6.0535 C 11.3103 9.1211 8.7786 11.6025 5.655 11.6025 C 2.5317 11.6025 0 9.1211 0 6.0535 C 0 2.9863 2.5317 0.5 5.655 0.5 C 8.7786 0.5 11.3103 2.9863 11.3103 6.0535 L 11.3103 6.0535 ZM 11.3103 6.0535 L 11.3103 6.0535 Z" fill="#a92936"/>
		<path d="M 14.3103 26.0535 C 14.3103 29.1211 11.7786 31.6025 8.655 31.6025 C 5.5317 31.6025 3 29.1211 3 26.0535 C 3 22.9863 5.5317 20.5 8.655 20.5 C 11.7786 20.5 14.3103 22.9863 14.3103 26.0535 L 14.3103 26.0535 ZM 14.3103 26.0535 L 14.3103 26.0535 Z" fill="#dd32cd"/>
		<path d="M 28.3103 12.0535 C 28.3103 15.1211 25.7786 17.6025 22.655 17.6025 C 19.5317 17.6025 17 15.1211 17 12.0535 C 17 8.9863 19.5317 6.5 22.655 6.5 C 25.7786 6.5 28.3103 8.9863 28.3103 12.0535 L 28.3103 12.0535 ZM 28.3103 12.0535 L 28.3103 12.0535 Z" fill="#66c235"/>
	</g>
</svg>