<?xml version="1.0" standalone="no"?>
<!-- Generator: Adobe Fireworks 10, Export SVG Extension by Aaron Beall (http://fireworks.abeall.com) . Version: 0.6.1  -->
<!DOCTYPE svg PUBLIC "-//W3C//DTD SVG 1.1//EN" "http://www.w3.org/Graphics/SVG/1.1/DTD/svg11.dtd">
<svg id="Assets%20-%20v8%20-%20Slim.fw-Page%201" viewBox="0 0 32 33" style="background-color:#ffffff00" version="1.1"
	xmlns="http://www.w3.org/2000/svg" xmlns:xlink="http://www.w3.org/1999/xlink" xml:space="preserve"
	x="0px" y="0px" width="32px" height="33px"
>
	<g id="SPRING">
		<path d="M 11.5 6.5 C 11.5 9.5676 8.9683 12.0491 5.8447 12.0491 C 2.7214 12.0491 0.1897 9.5676 0.1897 6.5 C 0.1897 3.4329 2.7214 0.9465 5.8447 0.9465 C 8.9683 0.9465 11.5 3.4329 11.5 6.5 L 11.5 6.5 ZM 11.5 6.5 L 11.5 6.5 Z" fill="#a92936"/>
		<path d="M 21.5 16.5 C 21.5 19.5676 18.9683 22.0491 15.8447 22.0491 C 12.7214 22.0491 10.1897 19.5676 10.1897 16.5 C 10.1897 13.4329 12.7214 10.9465 15.8447 10.9465 C 18.9683 10.9465 21.5 13.4329 21.5 16.5 L 21.5 16.5 ZM 21.5 16.5 L 21.5 16.5 Z" fill="#dd32cd"/>
		<path d="M 31.5 6.5 C 31.5 9.5676 28.9683 12.0491 25.8447 12.0491 C 22.7214 12.0491 20.1897 9.5676 20.1897 6.5 C 20.1897 3.4329 22.7214 0.9465 25.8447 0.9465 C 28.9683 0.9465 31.5 3.4329 31.5 6.5 L 31.5 6.5 ZM 31.5 6.5 L 31.5 6.5 Z" fill="#66c235"/>
		<path d="M 11.5 26.5 C 11.5 29.5676 8.9683 32.0491 5.8447 32.0491 C 2.7214 32.0491 0.1897 29.5676 0.1897 26.5 C 0.1897 23.4329 2.7214 20.9465 5.8447 20.9465 C 8.9683 20.9465 11.5 23.4329 11.5 26.5 L 11.5 26.5 ZM 11.5 26.5 L 11.5 26.5 Z" fill="#d7b73e"/>
		<path d="M 31.5 26.5 C 31.5 29.5676 28.9683 32.0491 25.8447 32.0491 C 22.7214 32.0491 20.1897 29.5676 20.1897 26.5 C 20.1897 23.4329 22.7214 20.9465 25.8447 20.9465 C 28.9683 20.9465 31.5 23.4329 31.5 26.5 L 31.5 26.5 ZM 31.5 26.5 L 31.5 26.5 Z" fill="#3aabe5"/>
	</g>
</svg>