<?xml version="1.0" standalone="no"?>
<!-- Generator: Adobe Fireworks 10, Export SVG Extension by Aaron Beall (http://fireworks.abeall.com) . Version: 0.6.1  -->
<!DOCTYPE svg PUBLIC "-//W3C//DTD SVG 1.1//EN" "http://www.w3.org/Graphics/SVG/1.1/DTD/svg11.dtd">
<svg id="Assets%20-%20v8%20-%20Slim.fw-Page%201%20Copy%205" viewBox="0 0 32 32" style="background-color:#ffffff00" version="1.1"
	xmlns="http://www.w3.org/2000/svg" xmlns:xlink="http://www.w3.org/1999/xlink" xml:space="preserve"
	x="0px" y="0px" width="32px" height="32px"
>
	<g id="CIRCLE">
		<g>
			<path d="M 21.8103 6.0535 C 21.8103 9.1211 19.2786 11.6025 16.155 11.6025 C 13.0317 11.6025 10.5 9.1211 10.5 6.0535 C 10.5 2.9863 13.0317 0.5 16.155 0.5 C 19.2786 0.5 21.8103 2.9863 21.8103 6.0535 L 21.8103 6.0535 ZM 21.8103 6.0535 L 21.8103 6.0535 Z" fill="#dd32cd"/>
			<path d="M 21.8103 26.0535 C 21.8103 29.1211 19.2786 31.6025 16.155 31.6025 C 13.0317 31.6025 10.5 29.1211 10.5 26.0535 C 10.5 22.9863 13.0317 20.5 16.155 20.5 C 19.2786 20.5 21.8103 22.9863 21.8103 26.0535 L 21.8103 26.0535 ZM 21.8103 26.0535 L 21.8103 26.0535 Z" fill="#dd32cd"/>
			<path d="M 31.8103 16.0535 C 31.8103 19.1211 29.2786 21.6025 26.155 21.6025 C 23.0317 21.6025 20.5 19.1211 20.5 16.0535 C 20.5 12.9863 23.0317 10.5 26.155 10.5 C 29.2786 10.5 31.8103 12.9863 31.8103 16.0535 L 31.8103 16.0535 ZM 31.8103 16.0535 L 31.8103 16.0535 Z" fill="#dd32cd"/>
			<path d="M 11.8103 16.0535 C 11.8103 19.1211 9.2786 21.6025 6.155 21.6025 C 3.0317 21.6025 0.5 19.1211 0.5 16.0535 C 0.5 12.9863 3.0317 10.5 6.155 10.5 C 9.2786 10.5 11.8103 12.9863 11.8103 16.0535 L 11.8103 16.0535 ZM 11.8103 16.0535 L 11.8103 16.0535 Z" fill="#dd32cd"/>
		</g>
	</g>
</svg>