<?xml version="1.0" standalone="no"?>
<!-- Generator: Adobe Fireworks 10, Export SVG Extension by Aaron Beall (http://fireworks.abeall.com) . Version: 0.6.1  -->
<!DOCTYPE svg PUBLIC "-//W3C//DTD SVG 1.1//EN" "http://www.w3.org/Graphics/SVG/1.1/DTD/svg11.dtd">
<svg id="Assets%20-%20v8%20-%20Slim.fw-Page%201%20Copy%204" viewBox="0 0 32 32" style="background-color:#ffffff00" version="1.1"
	xmlns="http://www.w3.org/2000/svg" xmlns:xlink="http://www.w3.org/1999/xlink" xml:space="preserve"
	x="0px" y="0px" width="32px" height="32px"
>
	<g id="FORCE%20DIRECTED">
		<g>
			<g>
				<path d="M 31.8103 5.5535 C 31.8103 8.6211 29.2786 11.1025 26.155 11.1025 C 23.0317 11.1025 20.5 8.6211 20.5 5.5535 C 20.5 2.4863 23.0317 0 26.155 0 C 29.2786 0 31.8103 2.4863 31.8103 5.5535 L 31.8103 5.5535 ZM 31.8103 5.5535 L 31.8103 5.5535 Z" fill="#d7b73e"/>
				<path d="M 11.8103 5.5535 C 11.8103 8.6211 9.2786 11.1025 6.155 11.1025 C 3.0317 11.1025 0.5 8.6211 0.5 5.5535 C 0.5 2.4863 3.0317 0 6.155 0 C 9.2786 0 11.8103 2.4863 11.8103 5.5535 L 11.8103 5.5535 ZM 11.8103 5.5535 L 11.8103 5.5535 Z" fill="#d7b73e"/>
				<path d="M 11.8103 25.5535 C 11.8103 28.6211 9.2786 31.1025 6.155 31.1025 C 3.0317 31.1025 0.5 28.6211 0.5 25.5535 C 0.5 22.4863 3.0317 20 6.155 20 C 9.2786 20 11.8103 22.4863 11.8103 25.5535 L 11.8103 25.5535 ZM 11.8103 25.5535 L 11.8103 25.5535 Z" fill="#d7b73e"/>
				<path id="Line" d="M 23.3103 22.0535 L 10.3103 9.0535 " stroke="#747d97" stroke-width="2" fill="none"/>
				<path id="Line2" d="M 26.3103 11.0535 L 26.3103 20.0535 " stroke="#747d97" stroke-width="2" fill="none"/>
				<path id="Line3" d="M 12.3103 26.0535 L 20.3103 26.0535 " stroke="#747d97" stroke-width="2" fill="none"/>
			</g>
			<path d="M 31.8103 25.5535 C 31.8103 28.6211 29.2786 31.1025 26.155 31.1025 C 23.0317 31.1025 20.5 28.6211 20.5 25.5535 C 20.5 22.4863 23.0317 20 26.155 20 C 29.2786 20 31.8103 22.4863 31.8103 25.5535 L 31.8103 25.5535 ZM 31.8103 25.5535 L 31.8103 25.5535 Z" fill="#a92936"/>
		</g>
	</g>
</svg>