<?xml version="1.0" standalone="no"?>
<!-- Generator: Adobe Fireworks 10, Export SVG Extension by Aaron Beall (http://fireworks.abeall.com) . Version: 0.6.1  -->
<!DOCTYPE svg PUBLIC "-//W3C//DTD SVG 1.1//EN" "http://www.w3.org/Graphics/SVG/1.1/DTD/svg11.dtd">
<svg id="Assets%20-%20v8%20-%20Slim.fw-Page%201%20Copy%201" viewBox="0 0 44 32" style="background-color:#ffffff00" version="1.1"
	xmlns="http://www.w3.org/2000/svg" xmlns:xlink="http://www.w3.org/1999/xlink" xml:space="preserve"
	x="0px" y="0px" width="44px" height="32px"
>
	<g id="FORCE%20DIRECTED%202%20%28FDP%29">
		<g>
			<g>
				<path d="M 31.3103 6 C 31.3103 9.0676 28.7786 11.5491 25.655 11.5491 C 22.5317 11.5491 20 9.0676 20 6 C 20 2.9329 22.5317 0.4465 25.655 0.4465 C 28.7786 0.4465 31.3103 2.9329 31.3103 6 L 31.3103 6 ZM 31.3103 6 L 31.3103 6 Z" fill="#d7b73e"/>
				<path d="M 11.3103 6 C 11.3103 9.0676 8.7786 11.5491 5.655 11.5491 C 2.5317 11.5491 0 9.0676 0 6 C 0 2.9329 2.5317 0.4465 5.655 0.4465 C 8.7786 0.4465 11.3103 2.9329 11.3103 6 L 11.3103 6 ZM 11.3103 6 L 11.3103 6 Z" fill="#d7b73e"/>
				<path d="M 11.3103 26 C 11.3103 29.0676 8.7786 31.5491 5.655 31.5491 C 2.5317 31.5491 0 29.0676 0 26 C 0 22.9329 2.5317 20.4465 5.655 20.4465 C 8.7786 20.4465 11.3103 22.9329 11.3103 26 L 11.3103 26 ZM 11.3103 26 L 11.3103 26 Z" fill="#d7b73e"/>
				<path id="Line" d="M 22.8103 22.5 L 9.8103 9.5 " stroke="#747d97" stroke-width="2" fill="none"/>
				<path id="Line2" d="M 25.8103 11.5 L 25.8103 20.5 " stroke="#747d97" stroke-width="2" fill="none"/>
				<path id="Line3" d="M 11.8103 26.5 L 19.8103 26.5 " stroke="#747d97" stroke-width="2" fill="none"/>
			</g>
			<path d="M 31.3103 26 C 31.3103 29.0676 28.7786 31.5491 25.655 31.5491 C 22.5317 31.5491 20 29.0676 20 26 C 20 22.9329 22.5317 20.4465 25.655 20.4465 C 28.7786 20.4465 31.3103 22.9329 31.3103 26 L 31.3103 26 ZM 31.3103 26 L 31.3103 26 Z" fill="#a92936"/>
		</g>
		<g>
			<path d="M 39.0781 18.5 C 39.2031 18.2969 39.3594 18.0781 39.5781 17.8594 C 39.7969 17.6406 40.2969 17.2031 41.0781 16.5313 C 41.8594 15.8594 42.3906 15.3438 42.6875 14.9688 C 43.1406 14.4375 43.4688 13.9375 43.6875 13.4375 C 43.8906 12.9375 44 12.4219 44 11.875 C 44 10.9219 43.6406 10.125 42.9531 9.4688 C 42.2656 8.8281 41.3125 8.5 40.0938 8.5 C 38.9688 8.5 38.0469 8.7969 37.3125 9.375 C 36.5625 9.9688 36.125 10.9219 36 12.25 L 38 12.5 C 38.0469 11.7813 38.25 11.2813 38.6094 10.9688 C 38.9688 10.6563 39.4531 10.5 40.0469 10.5 C 40.6563 10.5 41.1406 10.6406 41.4844 10.9063 C 41.8281 11.1875 42 11.5781 42 12.0781 C 42 12.5469 41.8281 13 41.5 13.4688 C 41.25 13.8125 40.5938 14.4531 39.5156 15.4063 C 38.1719 16.5938 37.2656 17.5313 36.8125 18.25 C 36.3594 18.9688 36.0938 19.7188 36 20.5 L 44 20.5 L 44 18.5 L 39.0781 18.5 L 39.0781 18.5 Z" fill="#4c4a49"/>
		</g>
	</g>
</svg>