<?xml version="1.0" standalone="no"?>
<!-- Generator: Adobe Fireworks 10, Export SVG Extension by Aaron Beall (http://fireworks.abeall.com) . Version: 0.6.1  -->
<!DOCTYPE svg PUBLIC "-//W3C//DTD SVG 1.1//EN" "http://www.w3.org/Graphics/SVG/1.1/DTD/svg11.dtd">
<svg id="Assets%20-%20v8%20-%20Slim.fw-Page%201%20Copy%203" viewBox="0 0 29 32" style="background-color:#ffffff00" version="1.1"
	xmlns="http://www.w3.org/2000/svg" xmlns:xlink="http://www.w3.org/1999/xlink" xml:space="preserve"
	x="0px" y="0px" width="29px" height="32px"
>
	<g id="HIERARCHICAL">
		<path d="M 8.6287 16.6157 L 8.6287 15.3846 L 20.3684 15.3846 L 20.3684 16.6157 L 8.6287 16.6157 Z" fill="#556080"/>
		<path d="M 20.3684 4.1855 L 20.3684 5.4163 L 15.1169 5.4163 L 15.1169 26.5841 L 20.3684 26.5841 L 20.3684 27.8114 L 13.8831 27.8114 L 13.8831 4.1855 L 20.3684 4.1855 ZM 20.3684 4.1855 L 20.3684 4.1855 Z" fill="#556080"/>
		<path d="M 29 27.1957 C 29 29.5731 27.0679 31.5 24.6841 31.5 C 22.3005 31.5 20.3684 29.5731 20.3684 27.1957 C 20.3684 24.8224 22.3005 22.8951 24.6841 22.8951 C 27.0679 22.8951 29 24.8224 29 27.1957 L 29 27.1957 ZM 29 27.1957 L 29 27.1957 Z" fill="#d7b73e"/>
		<path d="M 29 4.8009 C 29 7.178 27.0679 9.1049 24.6841 9.1049 C 22.3005 9.1049 20.3684 7.178 20.3684 4.8009 C 20.3684 2.4238 22.3005 0.5 24.6841 0.5 C 27.0679 0.5 29 2.4238 29 4.8009 L 29 4.8009 ZM 29 4.8009 L 29 4.8009 Z" fill="#d7b73e"/>
		<path d="M 29 16 C 29 18.3774 27.0679 20.3005 24.6841 20.3005 C 22.3005 20.3005 20.3684 18.3774 20.3684 16 C 20.3684 13.6229 22.3005 11.696 24.6841 11.696 C 27.0679 11.696 29 13.6229 29 16 L 29 16 ZM 29 16 L 29 16 Z" fill="#d7b73e"/>
		<path d="M 8.6287 16 C 8.6287 18.3774 6.696 20.3005 4.3162 20.3005 C 1.9324 20.3005 0 18.3774 0 16 C 0 13.6229 1.9324 11.696 4.3162 11.696 C 6.696 11.696 8.6287 13.6229 8.6287 16 L 8.6287 16 ZM 8.6287 16 L 8.6287 16 Z" fill="#dd32cd"/>
	</g>
</svg>