<?xml version="1.0" standalone="no"?>
<!-- Generator: Adobe Fireworks 10, Export SVG Extension by Aaron Beall (http://fireworks.abeall.com) . Version: 0.6.1  -->
<!DOCTYPE svg PUBLIC "-//W3C//DTD SVG 1.1//EN" "http://www.w3.org/Graphics/SVG/1.1/DTD/svg11.dtd">
<svg id="Assets%20-%20v8%20-%20Slim.fw-Page%201%20Copy" viewBox="0 0 46 32" style="background-color:#ffffff00" version="1.1"
	xmlns="http://www.w3.org/2000/svg" xmlns:xlink="http://www.w3.org/1999/xlink" xml:space="preserve"
	x="0px" y="0px" width="46px" height="32px"
>
	<g id="CLUSTERED">
		<g>
			<path d="M 22 6 C 22 9.0676 19.4683 11.5491 16.3447 11.5491 C 13.2214 11.5491 10.6897 9.0676 10.6897 6 C 10.6897 2.9329 13.2214 0.4465 16.3447 0.4465 C 19.4683 0.4465 22 2.9329 22 6 L 22 6 ZM 22 6 L 22 6 Z" fill="#3aabe5"/>
			<path d="M 22 26 C 22 29.0676 19.4683 31.5491 16.3447 31.5491 C 13.2214 31.5491 10.6897 29.0676 10.6897 26 C 10.6897 22.9329 13.2214 20.4465 16.3447 20.4465 C 19.4683 20.4465 22 22.9329 22 26 L 22 26 ZM 22 26 L 22 26 Z" fill="#3aabe5"/>
			<path d="M 32 16 C 32 19.0676 29.4683 21.5491 26.3447 21.5491 C 23.2214 21.5491 20.6897 19.0676 20.6897 16 C 20.6897 12.9329 23.2214 10.4465 26.3447 10.4465 C 29.4683 10.4465 32 12.9329 32 16 L 32 16 ZM 32 16 L 32 16 Z" fill="#3aabe5"/>
			<path d="M 12 16 C 12 19.0676 9.4683 21.5491 6.3447 21.5491 C 3.2214 21.5491 0.6897 19.0676 0.6897 16 C 0.6897 12.9329 3.2214 10.4465 6.3447 10.4465 C 9.4683 10.4465 12 12.9329 12 16 L 12 16 ZM 12 16 L 12 16 Z" fill="#3aabe5"/>
		</g>
		<g>
			<path d="M 42.9219 18.0156 C 42.4219 18.3438 41.8438 18.5 41.1563 18.5 C 40.2188 18.5 39.4531 18.1875 38.875 17.5625 C 38.2813 16.9375 38 15.8906 38 14.4219 C 38 13.0469 38.2969 12.0625 38.8906 11.4375 C 39.4844 10.8125 40.2813 10.5 41.25 10.5 C 41.9375 10.5 42.5313 10.6875 43.0313 11.0469 C 43.5156 11.4063 43.8438 11.8906 44 12.5 L 46 11.5 C 45.7344 10.6875 45.3438 10.0469 44.8281 9.6094 C 43.9375 8.875 42.7969 8.5 41.3906 8.5 C 39.5156 8.5 38.1563 9.0469 37.2969 10.1094 C 36.4219 11.1719 36 12.6719 36 14.6094 C 36 16.4375 36.4219 17.875 37.2813 18.9219 C 38.125 19.9844 39.4531 20.5 41.2344 20.5 C 42.4531 20.5 43.4688 20.2656 44.2813 19.7656 C 45.0781 19.2656 45.6563 18.5156 46 17.5 L 44 16.5 C 43.7813 17.1875 43.4219 17.7031 42.9219 18.0156 L 42.9219 18.0156 Z" fill="#4c4a49"/>
		</g>
	</g>
</svg>