<?xml version="1.0" encoding="UTF-8" standalone="no"?>
<!-- Generator: Adobe Fireworks 10, Export SVG Extension by Aaron Beall (http://fireworks.abeall.com) . Version: 0.6.1  -->

<svg
   xmlns:dc="http://purl.org/dc/elements/1.1/"
   xmlns:cc="http://creativecommons.org/ns#"
   xmlns:rdf="http://www.w3.org/1999/02/22-rdf-syntax-ns#"
   xmlns:svg="http://www.w3.org/2000/svg"
   xmlns="http://www.w3.org/2000/svg"
   xmlns:sodipodi="http://sodipodi.sourceforge.net/DTD/sodipodi-0.dtd"
   xmlns:inkscape="http://www.inkscape.org/namespaces/inkscape"
   width="305"
   height="288"
   viewBox="0 0 305 288"
   id="svg4136"
   version="1.1"
   inkscape:version="0.91 r13725"
   sodipodi:docname="Map_Hybrid.svg">
  <metadata
     id="metadata4144">
    <rdf:RDF>
      <cc:Work
         rdf:about="">
        <dc:format>image/svg+xml</dc:format>
        <dc:type
           rdf:resource="http://purl.org/dc/dcmitype/StillImage" />
      </cc:Work>
    </rdf:RDF>
  </metadata>
  <defs
     id="defs4142" />
  <sodipodi:namedview
     pagecolor="#ffffff"
     bordercolor="#666666"
     borderopacity="1"
     objecttolerance="10"
     gridtolerance="10"
     guidetolerance="10"
     inkscape:pageopacity="0"
     inkscape:pageshadow="2"
     inkscape:window-width="1920"
     inkscape:window-height="1018"
     id="namedview4140"
     showgrid="false"
     inkscape:zoom="2.0844919"
     inkscape:cx="59.038923"
     inkscape:cy="121.13869"
     inkscape:window-x="-8"
     inkscape:window-y="-8"
     inkscape:window-maximized="1"
     inkscape:current-layer="svg4136" />
  <path
     inkscape:connector-curvature="0"
     id="path4152"
     d="m 101.75484,286.24135 c -1.22857,-1.14007 -8.486282,-2.77774 -26.977028,-6.08715 -8.712771,-1.5594 -25.695708,-4.63647 -37.739833,-6.83796 -12.044153,-2.20149 -23.085374,-4.10569 -24.536058,-4.23155 -2.29568,-0.19923 -2.572675,-0.55188 -2.136805,-2.72089 0.275404,-1.37062 4.055504,-25.36235 8.400166,-53.31497 C 39.523542,79.494658 43.636768,53.691631 44.273009,53.034073 c 0.377123,-0.389742 17.532919,3.709104 38.124005,9.10854 l 37.438306,9.817197 14.67254,-6.470495 c 8.06991,-3.558754 15.1356,-6.282289 15.70159,-6.052275 1.50397,0.611202 3.58354,14.40705 2.39947,15.917987 -1.70241,2.17236 -26.25953,13.610144 -30.24182,14.08552 -2.36659,0.282508 -6.60723,-0.337333 -10.82991,-1.582957 C 107.72006,86.731593 94.550906,83.350017 82.272415,80.34295 64.080036,75.887559 59.726023,75.110462 58.74955,76.144602 57.153604,77.834736 52.560512,108.67832 43.5793,178.01553 c -4.077643,31.48063 -7.897618,60.67955 -8.488809,64.88651 -0.809526,5.76073 -0.810578,7.98623 -0.0057,9.01517 0.588861,0.75139 3.889691,2.11976 7.335243,3.04087 12.154884,3.2493 62.149166,13.35455 66.069866,13.35455 3.45396,0 53.6726,-17.17342 79.04017,-27.02961 6.93249,-2.6935 11.66269,-3.1164 17.70513,-1.58302 2.97322,0.75454 51.5284,9.85094 59.81102,11.20508 4.41961,0.72258 4.47216,0.19553 2.26507,-22.72283 -1.14129,-11.85138 -4.78366,-44.3616 -8.09412,-72.24489 l -6.01903,-50.69694 3.6453,-4.18813 c 2.00493,-2.303459 4.8241,-6.134887 6.26484,-8.514268 1.44077,-2.37938 2.74184,-4.511183 2.89127,-4.737331 0.14951,-0.226235 0.47266,-0.198381 0.71824,0.06167 0.53927,0.571099 7.97374,53.194649 14.40952,101.995369 2.57686,19.53972 5.97582,45.29659 7.55322,57.23752 3.99975,30.27811 4.01536,30.43338 2.9896,29.76201 -0.4947,-0.32378 -17.45617,-4.13017 -37.69219,-8.45863 -20.23602,-4.32849 -40.08465,-8.78308 -44.10806,-9.89911 -9.79132,-2.71597 -12.99012,-2.57022 -22.08,1.00595 -4.243,1.6693 -21.97189,8.11239 -39.39746,14.31795 -17.42554,6.20557 -32.41097,11.72311 -33.30093,12.26115 -1.96144,1.18586 -12.1007,1.30503 -13.33806,0.15689 z m 16.87269,-53.67503 c -1.96545,-2.97173 -1.82362,-5.8922 0.40941,-8.43057 4.72801,-5.37448 17.70879,-3.2144 17.70879,2.94687 0,5.02405 -4.21603,7.67698 -12.20024,7.67698 -3.56007,0 -4.76195,-0.44544 -5.91796,-2.19328 z m -27.091996,-4.86153 c -2.841484,-2.6421 -3.299803,-3.6385 -3.060922,-6.65426 0.219697,-2.77518 0.855713,-3.8372 2.922772,-4.88149 3.45993,-1.74794 8.174886,-0.77309 11.774376,2.43449 2.24861,2.00376 2.82298,3.29381 2.82298,6.34055 0,4.51155 -1.7017,5.86811 -7.3611,5.86811 -2.884261,0 -4.532026,-0.72134 -7.098106,-3.1074 z M 144.8994,216.91721 c -1.9443,-1.1993 -2.24503,-7.6214 -0.46591,-9.94993 3.70819,-4.85332 11.98737,-6.49232 14.9981,-2.96913 3.13911,3.67341 1.20771,9.62593 -4.05918,12.5103 -3.08306,1.68842 -8.08209,1.88354 -10.47301,0.40876 z m -60.117776,-12.7861 c -7.04077,-2.99559 -3.120979,-17.72735 4.716839,-17.72735 4.36268,0 6.245943,2.50117 6.245943,8.29518 0,3.8632 -0.478163,5.19216 -2.723854,7.57043 -2.820166,2.98663 -4.632425,3.39612 -8.238928,1.86174 z m 84.751566,-6.55991 c -2.24784,-0.95234 -3.05688,-5.08523 -1.67902,-8.57745 3.01955,-7.6534 16.41585,-8.86412 16.41585,-1.48363 0,7.01141 -8.39966,12.74596 -14.73683,10.06108 z M 87.697033,173.40732 c -4.188487,-2.14784 -5.536741,-11.10486 -2.202942,-14.63545 2.977737,-3.15349 8.877754,-2.21351 11.851428,1.88821 1.245591,1.7181 1.569681,8.82018 0.481293,10.54645 -1.902757,3.01785 -6.562276,4.03016 -10.129779,2.20079 z M 74.653611,146.02367 c -5.703914,-3.68341 -7.956905,-10.70645 -4.130365,-12.87526 5.683338,-3.22116 15.902669,1.79931 15.902669,7.81255 0,6.46917 -5.759023,8.94586 -11.772304,5.06271 z"
     style="fill:#1dc5f2"
     sodipodi:nodetypes="cssccssscsssssscsscssssssscsscssscsssssccsssssscsssssssssscssscscssssscsssss" />
  <path
     inkscape:connector-curvature="0"
     id="path4148"
     d="m 208.1691,162.58969 c -0.55828,-2.57816 -1.62683,-9.16459 -2.37455,-14.63655 -0.98216,-7.18771 -2.3027,-12.11783 -4.75803,-17.76337 -1.86918,-4.29787 -5.64766,-13.2985 -8.3966,-20.00133 -4.82123,-11.755768 -5.27373,-12.460135 -12.7872,-19.904744 -11.86178,-11.753062 -16.52646,-22.754124 -16.50393,-38.922333 0.0338,-24.198101 13.99625,-42.7129786 36.88643,-48.9128457 8.87227,-2.40308411 12.98249,-2.42428646 21.34303,-0.1099907 23.14628,6.4068883 37.76115,25.3261744 37.7288,48.8407964 -0.0227,17.001468 -6.30079,30.737205 -19.12184,41.840925 -4.27515,3.702538 -5.70707,6.133105 -14.29225,24.260062 -8.34474,17.6192 -9.76667,21.36721 -11.33983,29.89019 -3.26643,17.69702 -3.81738,20.10687 -4.59687,20.10687 -0.42464,0 -1.22885,-2.1094 -1.78716,-4.68756 z m 15.12489,-86.452364 c 8.0516,-4.997074 13.65976,-14.780138 13.65976,-23.82848 0,-5.660714 -2.69255,-12.920727 -6.4835,-17.481703 -11.69492,-14.070372 -34.96887,-10.994525 -42.06831,5.559704 -1.1572,2.698381 -1.73381,6.359452 -1.74754,11.095619 -0.017,6.077684 0.40404,7.931667 3.00804,13.226767 5.19189,10.557461 12.43364,15.046816 23.22649,14.39878 4.58899,-0.275403 7.3177,-1.054575 10.40506,-2.970687 z"
     style="fill:#fca009" />
</svg>
