<?xml version="1.0" encoding="UTF-8" standalone="no"?>
<svg
   xmlns:dc="http://purl.org/dc/elements/1.1/"
   xmlns:cc="http://creativecommons.org/ns#"
   xmlns:rdf="http://www.w3.org/1999/02/22-rdf-syntax-ns#"
   xmlns:svg="http://www.w3.org/2000/svg"
   xmlns="http://www.w3.org/2000/svg"
   xmlns:sodipodi="http://sodipodi.sourceforge.net/DTD/sodipodi-0.dtd"
   xmlns:inkscape="http://www.inkscape.org/namespaces/inkscape"
   width="200"
   height="122"
   viewBox="0 0 200 122"
   id="svg5477"
   version="1.1"
   inkscape:version="0.91 r13725"
   sodipodi:docname="Map_Terrain.svg">
  <metadata
     id="metadata5484">
    <rdf:RDF>
      <cc:Work
         rdf:about="">
        <dc:format>image/svg+xml</dc:format>
        <dc:type
           rdf:resource="http://purl.org/dc/dcmitype/StillImage" />
      </cc:Work>
    </rdf:RDF>
  </metadata>
  <defs
     id="defs5482" />
  <sodipodi:namedview
     pagecolor="#ffffff"
     bordercolor="#666666"
     borderopacity="1"
     objecttolerance="10"
     gridtolerance="10"
     guidetolerance="10"
     inkscape:pageopacity="0"
     inkscape:pageshadow="2"
     inkscape:window-width="1920"
     inkscape:window-height="1018"
     id="namedview5480"
     showgrid="false"
     inkscape:zoom="1.44"
     inkscape:cx="100"
     inkscape:cy="61"
     inkscape:window-x="-8"
     inkscape:window-y="-8"
     inkscape:window-maximized="1"
     inkscape:current-layer="svg5477" />
  <g
     id="g6026">
    <path
       style="fill:#9ad7a8"
       d="M 1.6484404,117.89436 C 3.3029424,113.09213 54.346386,5.6464869 56.626184,2.1670753 L 58.169933,-0.18898416 60.334967,1.863734 C 61.525735,2.992729 75.1,20.791772 90.5,41.417162 c 15.4,20.625391 28.57453,37.519189 29.27674,37.541774 0.70221,0.02259 7.45221,-4.916876 15,-10.976579 7.54779,-6.059704 14.39446,-10.891773 15.21482,-10.737931 1.4273,0.267662 43.95525,54.769614 47.99289,61.505574 l 1.9481,3.25 -99.84931,0 -99.84930799,0 1.41450839,-4.10564 z M 172.5,40.319878 c -1.1,-0.218761 -3.00425,-0.611729 -4.23166,-0.873262 -2.90172,-0.618287 -8.97285,-5.974528 -10.81942,-9.5454 -1.71884,-3.323862 -1.91627,-13.123039 -0.32673,-16.216957 1.65896,-3.229055 6.00383,-7.6674331 9.07815,-9.2735354 3.44733,-1.8009672 12.90798,-1.819734 17.08178,-0.033885 3.89148,1.6650548 8.20685,6.1073634 9.65426,9.9382614 1.51838,4.018734 1.31365,12.300717 -0.3853,15.586116 -1.91628,3.70568 -7.9618,8.940124 -11.06942,9.584335 -4.9929,1.035031 -7.02383,1.223688 -8.98166,0.834327 z"
       id="path6040"
       inkscape:connector-curvature="0" />
    <path
       style="fill:#fec326"
       d="M 1,121.1472 C 1,120.39527 53.432128,9.7630048 57.10765,2.7595526 L 58.54588,0.01910516 88.369956,40.009553 C 104.7732,62.004299 118.87708,80 119.71191,80 120.54675,80 127.42639,75.05 135,69 c 7.57361,-6.05 14.21574,-11 14.76028,-11 0.88454,0 43.0114,54.14618 47.58792,61.16535 L 199.1964,122 100.0982,122 C 45.594191,122 1,121.61624 1,121.1472 Z M 166.5,38.334803 C 159.69002,34.736588 156,28.816871 156,21.490178 156,10.863068 164.07987,3 175,3 c 10.92452,0 19,7.862964 19,18.5 0,10.757388 -8.10308,18.544029 -19.21016,18.459962 C 171.88043,39.937942 168.15,39.20662 166.5,38.334803 Z"
       id="path6038"
       inkscape:connector-curvature="0" />
    <path
       style="fill:#febf14"
       d="M 1,121.1472 C 1,120.39527 53.432128,9.7630048 57.10765,2.7595526 L 58.54588,0.01910516 88.369956,40.009553 C 104.7732,62.004299 118.87708,80 119.71191,80 120.54675,80 127.42639,75.05 135,69 c 7.57361,-6.05 14.21574,-11 14.76028,-11 0.88454,0 43.0114,54.14618 47.58792,61.16535 L 199.1964,122 100.0982,122 C 45.594191,122 1,121.61624 1,121.1472 Z M 167.45042,36.648361 c -11.54847,-5.238321 -12.67915,-21.162187 -2.0653,-29.0865724 3.94475,-2.945179 15.28501,-2.945179 19.22976,0 C 189.98845,11.573734 191.5,14.633719 191.5,21.5 c 0,6.837723 -1.51457,9.928519 -6.79835,13.873429 -3.38774,2.529311 -12.93094,3.23459 -17.25123,1.274932 z"
       id="path6036"
       inkscape:connector-curvature="0" />
    <path
       style="fill:#75c989"
       d="M 1,121.1472 C 1,120.39527 53.432128,9.7630048 57.10765,2.7595526 L 58.54588,0.01910516 88.369956,40.009553 C 104.7732,62.004299 118.87708,80 119.71191,80 120.54675,80 127.42639,75.05 135,69 c 7.57361,-6.05 14.21574,-11 14.76028,-11 0.88454,0 43.0114,54.14618 47.58792,61.16535 L 199.1964,122 100.0982,122 C 45.594191,122 1,121.61624 1,121.1472 Z"
       id="path6034"
       inkscape:connector-curvature="0" />
    <path
       style="fill:#4fba67"
       d="M 1.302501,120.75 C 1.5865642,120.0625 14.459709,92.998322 29.90949,60.607382 45.35927,28.216442 58,1.266146 58,0.71783511 58,0.16952428 59.036295,1.2462024 60.302878,3.1104532 67.65256,13.928261 118.31758,80.548401 119.37851,80.789828 c 0.7005,0.159406 7.48277,-4.678094 15.07171,-10.75 C 142.03917,63.967923 148.84488,59 149.57402,59 c 1.22171,0 7.21517,7.551504 38.2949,48.25 L 199.13288,122 99.959452,122 C 21.01192,122 0.89135548,121.74507 1.302501,120.75 Z"
       id="path6032"
       inkscape:connector-curvature="0" />
    <path
       style="fill:#2ead4c"
       d="M 1.2132042,121.25 C 4.4634049,114.83295 24.207829,73.802211 38.86793,43 49.207795,21.275 58.162966,3.5 58.768311,3.5 c 0.605345,0 12.893734,15.75 27.30753,35 14.413799,19.25 27.765479,36.93333 29.670409,39.29629 3.46083,4.292967 3.46556,4.294958 6.10863,2.574786 1.45482,-0.946826 8.13539,-6.142656 14.84573,-11.546289 6.71034,-5.403633 12.56034,-9.81346 13,-9.799615 0.43966,0.01384 11.14939,13.587983 23.79939,30.164753 12.65,16.576775 23.59464,30.740445 24.32143,31.474825 C 198.92347,121.77832 182.6812,122 99.988095,122 45.452976,122 1.0042752,121.6625 1.2132042,121.25 Z"
       id="path6030"
       inkscape:connector-curvature="0" />
    <path
       style="fill:#009c24"
       d="M 0.99984587,121.25 C 0.99970631,120.57087 70.807917,120.57698 164,121.26427 c 19.525,0.14399 -9.1625,0.36844 -63.75,0.49877 C 45.6625,121.89337 0.99993064,121.6625 0.99984587,121.25 Z m 3.82024503,-5 C 5.8434971,114.1875 18.297841,88.0875 32.49641,58.25 46.694979,28.4125 58.579292,4.0188127 58.905995,4.041806 59.232698,4.0647993 72.55,21.595987 88.5,43 109.57614,71.283012 118.04842,81.927811 119.50711,81.958194 120.61103,81.981187 127.68649,77.05 135.23037,71 c 7.54388,-6.05 14.06568,-10.976516 14.49289,-10.947813 0.42721,0.0287 6.46025,7.566203 13.40677,16.75 6.94651,9.183797 17.20832,22.660313 22.80402,29.947813 l 10.17399,13.25 -96.574343,0 -96.5743447,0 1.8607386,-3.75 z"
       id="path6028"
       inkscape:connector-curvature="0" />
  </g>
</svg>
