<?xml version="1.0" encoding="UTF-8" standalone="no"?>
<svg
   xmlns:dc="http://purl.org/dc/elements/1.1/"
   xmlns:cc="http://creativecommons.org/ns#"
   xmlns:rdf="http://www.w3.org/1999/02/22-rdf-syntax-ns#"
   xmlns:svg="http://www.w3.org/2000/svg"
   xmlns="http://www.w3.org/2000/svg"
   xmlns:sodipodi="http://sodipodi.sourceforge.net/DTD/sodipodi-0.dtd"
   xmlns:inkscape="http://www.inkscape.org/namespaces/inkscape"
   width="405"
   height="480"
   viewBox="0 0 405 480"
   id="svg4910"
   version="1.1"
   inkscape:version="0.91 r13725"
   sodipodi:docname="Map_Satellite.svg">
  <metadata
     id="metadata4917">
    <rdf:RDF>
      <cc:Work
         rdf:about="">
        <dc:format>image/svg+xml</dc:format>
        <dc:type
           rdf:resource="http://purl.org/dc/dcmitype/StillImage" />
      </cc:Work>
    </rdf:RDF>
  </metadata>
  <defs
     id="defs4915" />
  <sodipodi:namedview
     pagecolor="#ffffff"
     bordercolor="#666666"
     borderopacity="1"
     objecttolerance="10"
     gridtolerance="10"
     guidetolerance="10"
     inkscape:pageopacity="0"
     inkscape:pageshadow="2"
     inkscape:window-width="1920"
     inkscape:window-height="1018"
     id="namedview4913"
     showgrid="false"
     inkscape:zoom="0.49166667"
     inkscape:cx="202.5"
     inkscape:cy="240"
     inkscape:window-x="-8"
     inkscape:window-y="-8"
     inkscape:window-maximized="1"
     inkscape:current-layer="svg4910" />
  <g
     id="g5459">
    <path
       style="fill:#e8e8e8"
       d="M 1.2982739,477.16624 C 2.4756615,474.38987 128.36895,359.78147 134.5,355.90452 c 3.77984,-2.39018 7.16952,-2.40704 11,-0.0547 1.65,1.01327 32.78721,28.71568 69.1938,61.56092 44.51089,40.15676 66.01339,60.18879 65.64301,61.15396 C 279.86188,479.80231 260.52537,480 139.94129,480 L 0.09654783,480 1.2982739,477.16624 Z M 291.5,379.38529 C 250.79612,375.18154 219.75156,366.19499 185.6847,348.75465 125.06614,317.72132 78.725488,266.44212 55.668909,204.88301 36.874189,154.70271 35.199018,99.996767 50.98506,51.92291 58.741437,28.302111 68.035402,12.555415 78.235946,5.7519359 88.901392,-1.3616204 111.1583,-1.5983122 130,5.2014492 c 26.62203,9.6075978 64.34468,33.8198588 100.69119,64.6285828 18.26678,15.483638 28.44706,25.227639 28.10483,26.900385 -0.33978,1.660796 -27.39885,17.177933 -30.05137,17.233083 -0.96544,0.0201 -6.59044,-4.14188 -12.5,-9.24879 C 187.57715,79.940891 156.81356,57.893266 137.19868,48.064097 105.74848,32.304163 98.109073,41.98974 113.12445,78.586455 124.98253,107.48796 155.49944,154.65225 184.88931,189.5 c 10.80683,12.81372 33.41939,35.78539 48.61069,49.38268 62.23513,55.70483 120.39425,89.07207 128.6745,73.82357 7.04783,-12.97893 -19.81644,-66.45041 -58.0565,-115.55748 -14.23644,-18.28214 -13.43379,-16.61268 -10.60676,-22.06116 5.17488,-9.97345 15.17603,-25.59628 16.55589,-25.86202 2.56197,-0.49339 26.72975,30.043 42.69208,53.94217 18.14404,27.16565 30.80814,50.70789 40.52356,75.33224 9.46567,23.99135 10.10452,26.78816 10.16463,44.5 0.0514,15.14359 -0.0144,15.63636 -2.85914,21.43026 -4.28839,8.73404 -13.21399,17.15006 -24.09058,22.71518 -17.86334,9.13997 -30.91686,11.81653 -59.99768,12.30222 -11.55,0.1929 -22.8,0.16483 -25,-0.0624 z M 246.84731,208.60363 C 244.3887,207.32084 218.45283,181.28313 204.18642,165.77522 198.77295,159.89066 198,158.55449 198,155.08099 c 0,-2.6921 0.72404,-4.79239 2.25,-6.52674 1.2375,-1.4065 24.75,-15.55389 52.25,-31.43865 C 291.97107,94.316033 302.46071,87.841057 302.31344,86.367116 302.21084,85.340202 301.38763,81.575 300.48409,78 c -4.79304,-18.964477 9.2027,-39.113243 29.78745,-42.883077 15.03545,-2.753551 31.78247,6.231253 38.55828,20.686579 C 371.13626,60.724004 371.5,62.794123 371.5,71 c 0,8.205877 -0.36374,10.275996 -2.67018,15.196498 -6.96141,14.851282 -24.31373,23.844022 -39.32982,20.382442 -3.3,-0.76073 -6.9,-1.65931 -8,-1.99684 -1.75499,-0.53852 -5.6751,5.65218 -32,50.53495 -30.47416,51.95708 -32.49811,54.87972 -38,54.87305 -1.1,-0.001 -3.19371,-0.62524 -4.65269,-1.38647 z"
       id="path5473"
       inkscape:connector-curvature="0" />
    <path
       style="fill:#d0d0d0"
       d="M 1.3443515,477.63737 C 2.3225534,475.75189 114.73658,373.43239 131.9608,358.75 c 5.85132,-4.98783 10.22038,-5.11149 15.80305,-0.4473 C 162.26696,370.41971 280,477.57261 280,478.65538 280,479.77513 256.5971,480 140.0593,480 L 0.11860629,480 1.3443515,477.63737 Z M 286,377.92361 C 225.56405,371.25552 170.1984,346.43386 124.96433,305.72771 95.099438,278.85229 68.656534,239.06649 55.026662,200.5 34.799442,143.26595 37.061646,78.451664 61.000983,29.330069 72.68665,5.3520197 87.465149,-2.7204331 112.16658,1.3819061 143.59589,6.6015896 192.18128,36.522233 243.87104,82.490277 251.64197,89.401014 258,95.437722 258,95.905182 c 0,0.467461 -0.5625,1.302122 -1.25,1.854803 C 253.86501,100.07923 229.882,113 228.46211,113 c -0.85129,0 -3.66601,-1.9384 -6.25495,-4.30756 C 207.03851,94.811493 176.87703,71.478135 158.38006,59.314877 134.91871,43.88713 117.9554,37.39373 109.5448,40.621181 c -2.57301,0.987358 -4.73787,6.237799 -4.69793,11.393905 0.21291,27.486542 45.6505,102.442904 92.43442,152.484914 57.57173,61.58111 138.5859,118.3455 160.33293,112.34085 4.68931,-1.29478 6.60722,-4.61889 6.52726,-11.31299 C 363.91473,286.54367 336.33947,236.4567 302.46482,193.5 c -11.97243,-15.18234 -11.70169,-11.92874 -2.33436,-28.05306 4.45632,-7.67082 8.48937,-14.36381 8.96234,-14.87331 1.18934,-1.28121 3.82194,1.26009 12.8728,12.42637 38.26888,47.21328 66.71474,97.70552 79.15359,140.5 3.12509,10.75152 3.34371,28.40495 0.4484,36.2079 -6.77048,18.2467 -26.84952,31.38516 -56.30838,36.84465 -10.47216,1.94076 -46.53369,2.77511 -59.25921,1.37106 z M 247.42235,208.03259 c -3.13403,-1.26805 -46.72951,-46.60603 -48.21184,-50.13884 -1.1114,-2.6488 -1.04234,-3.56808 0.5,-6.6564 1.59749,-3.19873 7.15403,-6.68184 51.78949,-32.46422 27.5,-15.88458 50.66482,-29.269422 51.47739,-29.744097 1.28215,-0.74899 1.21713,-1.567811 -0.49199,-6.196038 -7.50783,-20.330857 5.77346,-42.438731 28.13833,-46.838751 11.00953,-2.165992 23.05232,2.402625 31.70675,12.028434 18.43785,20.507325 6.44437,52.854742 -21.50672,58.005422 -4.54219,0.83702 -6.93966,0.72623 -12,-0.5545 -3.47807,-0.88027 -7.13793,-1.68444 -8.13303,-1.78704 -1.39356,-0.14369 -8.77006,11.62063 -32.10352,51.19986 -19.58873,33.22727 -31.14112,51.85577 -32.69073,52.71457 -2.72751,1.5116 -5.46082,1.65081 -8.47413,0.4316 z"
       id="path5471"
       inkscape:connector-curvature="0" />
    <path
       style="fill:#b7b7b7"
       d="M 2.1218406,477.01963 C 5.9226364,472.25637 134.24576,356.93499 136.92372,355.87592 c 1.33305,-0.52718 3.66168,-0.68662 5.17472,-0.3543 2.74869,0.60372 136.82998,120.62263 137.6668,123.22838 0.31985,0.99597 -28.09344,1.25 -139.81007,1.25 L -0.25631886,480 2.1218406,477.01963 Z M 293,377.93735 C 213.47393,370.93836 140.07455,331.34383 93.835276,270.5 79.558023,251.71331 64.743226,224.81178 57.213418,204 46.761954,175.11299 42.951235,155.46491 42.257459,126.88703 41.50846,96.034416 44.336147,76.862588 53.64331,49.690482 60.096648,30.850074 65.95466,19.949708 73.947861,11.908548 82.800948,3.0023422 88.841053,0.58369114 102,0.67557429 c 8.36185,0.0583871 10.98492,0.56071831 21.89442,4.19289971 26.21544,8.7281 63.23676,31.226481 97.10558,59.01243 17.22055,14.127728 36.11979,31.259722 35.74028,32.398252 -0.47857,1.435722 -25.79245,15.640344 -27.95248,15.685254 -0.94171,0.0196 -4.54171,-2.49767 -8,-5.59388 C 210.83041,97.455682 186.59841,78.238523 173.5,68.869009 133.40912,40.191315 110.32399,32.146743 105.00053,44.998714 96.390981,65.78401 144.18715,148.76917 198.10851,206.65562 c 44.64163,47.92433 113.54917,99.88914 145.21609,109.5109 8.29919,2.52164 15.80683,2.14649 18.89762,-0.9443 2.7854,-2.78539 3.345,-10.08054 1.40877,-18.36514 -5.11068,-21.86726 -30.7909,-65.81608 -61.15213,-104.65502 -5.28746,-6.76387 -9.47076,-12.66426 -9.29621,-13.11198 1.57141,-4.03082 16.51911,-28.02474 17.30049,-27.77061 2.78003,0.90416 28.11044,33.64994 41.32301,53.42016 24.49885,36.65808 41.18875,71.66631 50.34819,105.60891 7.2004,26.68287 -7.51834,49.77132 -38.65221,60.63152 -17.66274,6.16117 -46.83636,9.04008 -70.50213,6.95729 z M 224.26824,184.28561 c -12.77747,-13.08208 -23.75793,-25.05538 -24.40102,-26.60731 -2.70202,-6.52062 -2.55985,-6.62436 53.49831,-39.03761 28.39896,-16.4205 51.62866,-30.144625 51.62157,-30.498067 -0.007,-0.353443 -0.9071,-3.495215 -2,-6.981717 -2.4695,-7.878013 -2.50056,-12.332962 -0.1389,-19.921008 3.78106,-12.148553 12.77131,-20.692462 25.05241,-23.808635 23.5188,-5.967594 46.38395,15.43362 41.97441,39.287012 -2.11726,11.453301 -9.60497,21.066495 -20.14071,25.857895 -5.14097,2.33799 -7.54962,2.82475 -13.73431,2.77552 -4.42183,-0.0352 -9.32277,-0.74473 -11.94119,-1.72879 -3.58498,-1.34731 -4.66915,-1.42365 -5.62363,-0.396 -0.65034,0.70021 -14.10232,23.3231 -29.89327,50.2731 -15.79096,26.95 -30.02993,50.2375 -31.64215,51.75 -1.91832,1.79966 -4.04899,2.76231 -6.16554,2.78561 -2.91981,0.0322 -5.49266,-2.27667 -26.46598,-23.75 z"
       id="path5469"
       inkscape:connector-curvature="0" />
    <path
       style="fill:#a6a6a6"
       d="M 1.193296,478.18199 C 1.9119832,477.18208 27.925,453.43622 59,425.41341 144.22001,348.56371 135.54296,356 139.99522,356 c 2.74085,0 4.79563,0.79293 7.12632,2.75 9.64284,8.09706 130.59001,117.57912 131.75043,119.26124 C 280.23934,479.99332 279.77318,480 140.06527,480 4.7514748,480 -0.06805895,479.93691 1.193296,478.18199 Z M 291,376.96978 C 194.17381,367.77218 110.90473,312.35649 69.114529,229.30469 51.25275,193.80706 42.723552,158.4723 42.730275,120 42.734737,94.468456 46.156341,73.487787 54.121389,50.151725 62.987962,24.174363 71.663893,11.450608 85.284449,4.4492892 91.899847,1.048803 93.220259,0.73302828 101.15957,0.65277703 c 4.76276,-0.0481424 9.71276,0.40858897 11,1.01495867 1.28724,0.6063697 6.97773,2.5631663 12.64554,4.348437 C 148.25982,13.40404 183.15052,34.410827 217,61.524331 c 14.07154,11.271333 39,33.272316 39,34.420027 0,0.461092 -6.1485,4.295232 -13.66332,8.520312 -13.5074,7.59429 -13.68881,7.66115 -15.8969,5.85864 C 225.21131,109.32049 217.52231,102.875 209.3531,96 173.15061,65.532887 139.90736,44.009599 121.77173,39.295585 c -6.0662,-1.576794 -7.14862,-1.603582 -11,-0.272236 -5.89972,2.039416 -8.08406,6.316428 -7.39734,14.484276 2.11306,25.132973 31.49631,77.370915 71.713,127.492375 39.53102,49.26691 108.00129,107.24451 152.41261,129.05627 17.83281,8.75824 27.09448,10.70786 33.19553,6.98782 7.14576,-4.35705 6.57428,-16.29489 -1.70942,-35.70869 -10.36906,-24.3011 -34.83351,-63.30192 -56.97926,-90.8354 -3.98139,-4.95 -7.45819,-9.55824 -7.72622,-10.24053 -0.37055,-0.94324 13.13501,-25.60617 15.47504,-28.25947 0.65968,-0.74799 7.64944,7.228 18.04245,20.58816 34.73912,44.657 59.9981,90.81205 71.41843,130.50093 1.8059,6.276 3.62095,11.56091 4.03345,11.74424 1.13119,0.50275 0.90056,14.95559 -0.25,15.66667 -0.55,0.33992 -1.00036,1.60398 -1.00079,2.80902 -0.001,3.03858 -5.08946,13.38417 -8.92849,18.15325 -9.21064,11.44205 -27.07077,19.98992 -50.07072,23.96388 -11.4326,1.97534 -38.8783,2.79008 -52,1.54363 z M 232.96008,192.25 C 201.99964,160.78813 200,158.53364 200,155.08925 c 0,-1.98217 0.84977,-4.01063 2.25579,-5.3847 1.24068,-1.2125 24.84998,-15.22661 52.46512,-31.14246 27.61513,-15.91586 50.40626,-29.451112 50.64696,-30.078349 0.24069,-0.627236 -0.46674,-3.805175 -1.57208,-7.062086 -5.40536,-15.927131 2.51666,-34.02611 18.05625,-41.252043 4.68206,-2.177165 7.10161,-2.630013 14.14796,-2.647961 7.30715,-0.01861 9.29852,0.370478 14.19009,2.772585 7.38161,3.624893 15.04947,11.952966 17.44241,18.944223 2.31297,6.757603 2.31297,16.765479 0,23.523082 -2.32348,6.788313 -10.08235,15.338813 -16.94241,18.671019 -7.39912,3.59406 -14.8871,4.22575 -24.17208,2.03917 -4.54114,-1.06942 -7.95305,-1.42391 -8.47722,-0.88075 -0.48248,0.49996 -14.23321,23.63402 -30.55717,51.40902 -16.32397,27.775 -30.39677,51.0625 -31.27291,51.75 -0.87613,0.6875 -3.20009,1.25 -5.16434,1.25 -3.27771,0 -4.76491,-1.21287 -18.08629,-14.75 z"
       id="path5467"
       inkscape:connector-curvature="0" />
    <path
       style="fill:#949494"
       d="m 9,471.09958 c 34.512982,-31.99842 126.7644,-114.25333 128.67702,-114.73336 1.27764,-0.32067 3.44244,-0.30207 4.81066,0.0413 2.08028,0.52212 130.10705,114.92328 135.91731,121.45193 L 280.30998,480 139.90499,479.95371 -0.5,479.90743 9,471.09958 Z M 286,375.55851 C 243.04056,370.51834 207.43613,358.60191 171.11044,337.10617 101.29956,295.79555 54.829287,225.99033 44.887054,147.5 43.052607,133.0177 43.303148,103.99664 45.386857,89.606092 49.852089,58.768233 61.617592,27.144546 73.43688,14.212362 78.608842,8.5534109 88.200329,3.0023635 92.809017,3.0007889 94.078976,3.000355 94.875412,2.607429 94.578874,2.1276201 c -0.296539,-0.4798089 0.977887,-1.118563 2.832058,-1.41945336 3.867598,-0.62762473 11.747928,0.2257717 11.141748,1.20659006 -0.22331,0.3613265 2.59848,1.2263107 6.27065,1.922187 C 138.21714,8.2700735 182.57569,34.073283 220.5,65.30869 c 13.7027,11.285884 34.50066,29.7076 34.49806,30.556533 -0.001,0.349128 -5.88384,3.910936 -13.07283,7.915127 -12.88695,7.17791 -13.10335,7.2553 -15.37748,5.5 -1.26862,-0.97919 -7.67195,-6.3413 -14.22963,-11.915795 -36.16141,-30.739778 -72.77925,-54.596368 -90.52099,-58.974579 -5.76735,-1.423237 -7.183,-1.457098 -10.95996,-0.262156 -3.56709,1.128545 -4.74803,2.171168 -6.65119,5.87218 -1.95363,3.799161 -2.21601,5.416989 -1.68474,10.387879 3.25663,30.471106 45.73928,99.772561 92.72529,151.261721 18.63809,20.42437 47.49089,46.54924 74.49788,67.45435 43.06112,33.33202 77.19869,50.73601 89.44781,45.60219 5.3493,-2.24198 7.34807,-5.88147 7.22868,-13.16245 -0.34229,-20.87445 -30.24027,-73.90827 -68.51948,-121.54162 -1.8971,-2.36069 -2.8945,-4.52561 -2.52664,-5.48424 1.75905,-4.584 14.88884,-25.4853 15.69601,-24.98644 0.51909,0.32082 4.46984,4.945 8.77944,10.27596 38.80522,48.00194 66.27138,96.66755 78.70495,139.45249 2.66115,9.15724 3.46482,13.76449 3.46482,19.86299 0,26.72361 -20.23143,44.50725 -58.5,51.42213 -12.25538,2.21447 -42.69136,2.75096 -57.5,1.01355 z M 248.43701,206.03802 c -2.88122,-1.16648 -45.72578,-45.55993 -46.88005,-48.57483 -2.27008,-5.92936 -2.28358,-5.91969 52.44304,-37.5669 31.18686,-18.03469 51.63705,-30.445091 51.84746,-31.464159 0.19111,-0.925553 -0.42764,-4.147088 -1.37499,-7.158966 -2.30777,-7.337007 -1.62512,-17.96316 1.58878,-24.730973 9.36296,-19.716458 36.1292,-24.733404 52.126,-9.770268 2.63363,2.46345 6.03139,7.010042 7.55058,10.103538 2.3623,4.810294 2.76076,6.855053 2.7524,14.124538 -0.0118,10.244585 -2.07001,15.49827 -8.95574,22.859672 -8.26587,8.836878 -22.07288,12.358898 -33.88471,8.643618 -3.06028,-0.96257 -6.18205,-1.51302 -6.93727,-1.22321 -0.75523,0.28981 -15.04661,23.73518 -31.75862,52.10082 -26.03682,44.19283 -30.8053,51.72025 -33.31891,52.5965 -1.61338,0.56243 -2.97878,0.99408 -3.0342,0.95921 -0.0554,-0.0349 -1.02912,-0.43923 -2.16377,-0.89859 z"
       id="path5465"
       inkscape:connector-curvature="0" />
    <path
       style="fill:#5d5d5d"
       d="M 1.5400607,478.21673 C 2.6620941,477.27253 32.967182,449.95 68.8847,417.5 c 35.91752,-32.45 66.78537,-59.60392 68.59523,-60.34204 2.75477,-1.12349 3.70923,-1.12273 5.86093,0.005 1.94649,1.01986 77.13992,68.28795 133.0721,119.04636 L 280.5,479.9183 140,479.9263 C 7.1027356,479.93304 -0.38960824,479.84057 1.5400607,478.21673 Z"
       id="path5463"
       inkscape:connector-curvature="0" />
    <path
       style="fill:#242424"
       d="m 0,479.47525 c 0,-0.28861 1.0125,-0.92723 2.25,-1.41914 1.2375,-0.49192 31.725,-27.52249 67.75,-60.06793 36.025,-32.54545 66.56266,-59.58977 67.86147,-60.09849 1.63234,-0.63936 3.2037,-0.5048 5.0892,0.43582 1.50025,0.74842 32.10722,27.86885 68.01549,60.26763 35.90827,32.39877 66.13063,59.22986 67.1608,59.62464 1.03017,0.39477 1.87304,0.95727 1.87304,1.25 C 280,479.7605 217,480 140,480 63,480 0,479.76386 0,479.47525 Z"
       id="path5461"
       inkscape:connector-curvature="0" />
  </g>
</svg>
