<?xml version="1.0" encoding="UTF-8" standalone="no"?>
<svg
   xmlns:dc="http://purl.org/dc/elements/1.1/"
   xmlns:cc="http://creativecommons.org/ns#"
   xmlns:rdf="http://www.w3.org/1999/02/22-rdf-syntax-ns#"
   xmlns:svg="http://www.w3.org/2000/svg"
   xmlns="http://www.w3.org/2000/svg"
   xmlns:sodipodi="http://sodipodi.sourceforge.net/DTD/sodipodi-0.dtd"
   xmlns:inkscape="http://www.inkscape.org/namespaces/inkscape"
   width="500"
   height="506"
   viewBox="0 0 500 506"
   id="svg4326"
   version="1.1"
   inkscape:version="0.91 r13725"
   sodipodi:docname="Map_Roadmap.svg">
  <metadata
     id="metadata4334">
    <rdf:RDF>
      <cc:Work
         rdf:about="">
        <dc:format>image/svg+xml</dc:format>
        <dc:type
           rdf:resource="http://purl.org/dc/dcmitype/StillImage" />
      </cc:Work>
    </rdf:RDF>
  </metadata>
  <defs
     id="defs4332" />
  <sodipodi:namedview
     pagecolor="#ffffff"
     bordercolor="#666666"
     borderopacity="1"
     objecttolerance="10"
     gridtolerance="10"
     guidetolerance="10"
     inkscape:pageopacity="0"
     inkscape:pageshadow="2"
     inkscape:window-width="1920"
     inkscape:window-height="1018"
     id="namedview4330"
     showgrid="false"
     inkscape:zoom="0.46640316"
     inkscape:cx="250"
     inkscape:cy="253"
     inkscape:window-x="-8"
     inkscape:window-y="-8"
     inkscape:window-maximized="1"
     inkscape:current-layer="svg4326" />
  <g
     id="g4894">
    <path
       style="fill:#a9ccf7"
       d="m 245,504.35011 c -4.27803,-0.78622 -12.01817,-3.43128 -25,-8.54331 C 118.56655,455.864 50.126089,383.88228 18.613372,284 7.914624,250.08939 3.3301577,223.01551 1.5910364,183.4734 0.22739976,152.46862 0.973879,106.60154 3.0553388,93.5 4.9339325,81.675378 9.0088698,66.03351 13.215413,54.5 17.874438,41.725878 26.692729,23.947316 30.712273,19.224573 L 33.5,15.949147 l 8,3.471139 c 23.218479,10.074323 57.074398,15.522133 96.69878,15.559956 46.67781,0.04456 77.09005,-8.429196 104.70035,-29.1726202 C 246.41865,3.1634298 249.62349,1 250.02099,1 c 0.3975,0 4.53887,2.845089 9.20306,6.3224199 9.43754,7.0360591 22.64258,14.1583791 33.31577,17.9693291 9.40858,3.359408 27.72478,7.354469 39.67077,8.652839 21.24521,2.309073 62.32262,0.846523 85.78941,-3.054507 14.89483,-2.476061 34.87162,-8.27112 43.38667,-12.586019 l 5.04094,-2.554439 2.77809,3.327709 c 4.4787,5.364764 14.29812,26.340962 19.1568,40.922668 8.74315,26.239676 10.66385,42.12649 10.76,89 0.0943,45.96513 -1.98982,70.39477 -8.728,102.30847 -15.44266,73.14031 -52.61092,137.61269 -105.3945,182.8182 -28.46288,24.37649 -63.064,45.10473 -100,59.90623 -22.1096,8.86007 -32.85204,11.63087 -40,10.31721 z M 259.20039,459.6021 C 348.14693,427.10279 411.44628,363.50166 439.93011,278.01074 452.67021,239.77279 459.62647,193.33748 458.8072,152 L 458.5,136.5 250.56048,136.24763 c -165.691875,-0.2011 -208.101073,0.002 -208.734685,1 -1.130037,1.77978 -1.005098,28.69895 0.210028,45.25237 6.344244,86.4264 34.610816,154.26998 85.422717,205.02602 32.05819,32.02296 65.97223,53.74231 111.04146,71.11359 6.05,2.33188 11.09017,4.26692 11.20039,4.30009 0.11021,0.0332 4.38521,-1.46875 9.5,-3.3376 z M 178.5,348.98341 c -14.7902,-2.94865 -28.08093,-11.92418 -35.78543,-24.16671 -8.36227,-13.28775 -11.24505,-25.96976 -10.40483,-45.77332 0.78069,-18.40045 4.34999,-31.16638 12.54742,-44.87694 14.07624,-23.54317 37.24213,-36.48393 70.10695,-39.16266 C 232.13443,193.60427 231,192.63962 231,208.63979 c 0,9.8837 -0.32959,13.51593 -1.25,13.77552 -0.6875,0.19389 -6.2,0.85847 -12.25,1.47685 -16.14079,1.64976 -26.92462,5.49963 -35.16693,12.55474 -4.57214,3.91358 -9.82685,11.57743 -10.89107,15.88434 l -0.6996,2.83124 5.3788,-3.03187 c 10.62683,-5.99001 24.84675,-7.73013 37.23446,-4.55646 15.23754,3.9038 27.53226,16.0763 32.24639,31.92585 2.3953,8.05329 2.39653,22.93962 0.003,31 -5.61756,18.9141 -20.906,33.53061 -39.70772,37.96256 -6.75931,1.59331 -20.68918,1.85813 -27.39689,0.52085 z m 22.62885,-29.52303 c 8.89127,-5.70498 12.04053,-23.87181 6.25263,-36.06889 -6.5598,-13.82376 -27.49033,-14.41392 -36.19166,-1.02047 -2.33518,3.59441 -2.67092,5.09999 -2.59323,11.62898 0.0609,5.1134 0.77362,9.26315 2.2399,13.04077 5.27498,13.59011 19.42598,19.3919 30.29236,12.41961 z M 303.5,348.59475 c -12.37529,-3.05708 -21.86764,-9.87536 -29.37504,-21.09985 -8.48208,-12.68176 -12.6432,-27.50688 -13.75192,-48.9949 -1.07019,-20.7412 1.93889,-38.02121 9.29202,-53.36057 11.38644,-23.75325 34.12123,-35.07022 59.60475,-29.67015 17.17976,3.64047 30.42006,15.79001 37.68131,34.57706 7.49979,19.40422 8.82351,52.20089 3.00281,74.39789 -6.25989,23.87182 -22.27764,40.92955 -41.84042,44.55698 -7.10396,1.31725 -18.39029,1.13087 -24.61351,-0.40646 z m 21.03998,-29.02899 c 3.9248,-2.57163 7.25616,-8.49352 9.61354,-17.08923 1.91903,-6.99733 2.19733,-10.61588 2.26703,-29.47653 0.0897,-24.27423 -1.18496,-32.53411 -6.43741,-41.71492 -8.09598,-14.15103 -23.11071,-10.59479 -28.8225,6.82661 -3.1822,9.70595 -4.14817,17.88943 -4.1182,34.88831 0.05,28.37032 5.18368,43.91804 15.95756,48.32894 2.39643,0.98112 8.85852,-0.006 11.53998,-1.76318 z"
       id="path4908"
       inkscape:connector-curvature="0" />
    <path
       style="fill:#f5afa1"
       d="M 237.5,501.04832 C 160.20133,474.3513 99.495734,428.98998 59.445707,368 28.561902,320.96875 10.8553,268.96342 3.3830243,203.3406 1.397886,185.90678 0.44938727,127.86708 1.8249453,108 3.013962,90.827128 5.7432282,76.90384 11.135975,60.5 15.561728,47.037597 26.365966,24.209681 30.671248,19.224573 L 33.5,15.949147 l 8,3.471139 c 23.218479,10.074323 57.074398,15.522133 96.69878,15.559956 46.67781,0.04456 77.09005,-8.429196 104.70035,-29.1726202 C 246.41865,3.1634298 249.62349,1 250.02099,1 c 0.3975,0 4.53887,2.845089 9.20306,6.3224199 9.43754,7.0360591 22.64258,14.1583791 33.31577,17.9693291 9.40858,3.359408 27.72478,7.354469 39.67077,8.652839 21.24521,2.309073 62.32262,0.846523 85.78941,-3.054507 14.89483,-2.476061 34.87162,-8.27112 43.38667,-12.586019 l 5.04094,-2.554439 2.77809,3.327709 c 4.47947,5.365681 14.29867,26.342391 19.1559,40.922668 5.99888,18.007221 8.46435,30.376324 9.76689,49 1.4565,20.82477 0.53318,78.35568 -1.54071,96 -9.01883,76.73086 -31.84585,135.46635 -72.77567,187.2568 -10.85929,13.74078 -36.64743,39.18363 -50.81211,50.13175 -33.32092,25.75431 -68.11631,44.26597 -109.45836,58.23345 -7.1271,2.4079 -13.4271,4.34367 -14,4.30172 -0.5729,-0.0419 -5.99164,-1.78589 -12.04164,-3.8754 z m 30.79016,-43.65486 C 307.5163,441.82299 341.77982,419.89295 370.37128,392.05741 419.58929,344.14066 447.69611,283.16982 457.52444,203 c 0.93916,-7.66077 1.88968,-25.07135 2.19755,-40.25235 l 0.54253,-26.75234 -209.88226,0.25234 L 40.5,136.5 l -0.294218,18 c -0.458913,28.07585 2.957418,60.5085 9.427587,89.5 20.07834,89.96693 73.031011,158.95291 153.536321,200.02493 20.85836,10.64148 44.35387,20.16258 48.12047,19.4999 1.53459,-0.26999 9.18459,-3.02911 17,-6.13137 z m -84.5355,-108.45301 c -24.74262,-2.84017 -42.22488,-18.45214 -48.86798,-43.63997 -2.72505,-10.33225 -2.93821,-31.19251 -0.43736,-42.80048 7.38993,-34.30123 30.92212,-57.94851 64.55068,-64.8664 11.14048,-2.29176 28.56551,-3.23908 30.47224,-1.65664 1.21296,1.00667 1.52776,3.70805 1.52776,13.1103 0,10.26968 -0.2324,11.96163 -1.75,12.7404 -0.9625,0.49392 -6.05999,1.1676 -11.32775,1.49708 -18.42837,1.15262 -33.99995,8.35155 -41.88613,19.36447 -3.8483,5.37409 -6.74817,11.93207 -5.72754,12.9527 0.27935,0.27935 2.2367,-0.6333 4.34966,-2.02811 12.69222,-8.37838 31.96215,-9.30633 46.84176,-2.25567 29.23761,13.85414 34.53573,57.28378 10.01159,82.06682 -12.0811,12.20863 -28.91642,17.67817 -47.75693,15.5155 z m 14.54308,-27.29149 c 16.62712,-6.94726 16.84907,-40.22893 0.31835,-47.73584 -8.77034,-3.98277 -19.04188,-1.63542 -25.84071,5.90537 -4.5367,5.03179 -5.16098,7.2892 -4.56437,16.5048 0.51903,8.01736 3.37109,15.54994 7.5926,20.05281 5.57878,5.95059 15.37575,8.24711 22.49413,5.27286 z M 308.5,348.80773 C 299.99355,347.78719 289.42249,342.9873 282.89557,337.1818 268.69231,324.54843 260.87953,301.39188 260.9039,272 c 0.0401,-48.42794 21.04101,-77 56.5961,-77 29.3819,0 48.11469,19.23183 54.05984,55.5 2.23881,13.65779 1.48449,39.3908 -1.50652,51.3935 -2.59042,10.39519 -8.43274,22.9696 -13.80578,29.71415 -10.41874,13.07821 -28.32848,19.52983 -47.74754,17.20008 z m 16.58383,-29.08524 c 1.92813,-1.29936 4.57451,-4.62785 6.16181,-7.75 4.4992,-8.84973 6.0362,-18.9915 6.05789,-39.97249 0.0206,-19.8965 -1.35354,-29.87337 -5.2587,-38.18125 -6.53974,-13.91269 -19.77516,-15.76214 -27.78118,-3.88201 -11.08112,16.44326 -10.96678,69.87827 0.18185,84.98938 1.38253,1.87393 3.76038,4.22919 5.2841,5.23392 3.97638,2.62199 11.11609,2.41853 15.35423,-0.43755 z"
       id="path4906"
       inkscape:connector-curvature="0" />
    <path
       style="fill:#9e9e9e"
       d="M 237.5,501.04832 C 160.20133,474.3513 99.495734,428.98998 59.445707,368 27.786782,319.78836 9.7584951,265.65577 2.8290093,198 1.1129147,181.24498 1.0811816,121.93332 2.7808571,108 6.2356967,79.678482 12.503273,57.188412 22.706615,36.5 28.485875,24.781909 33.000361,17.774309 34.388737,18.366456 65.75771,31.745417 92.914851,36.442474 139,36.459858 c 30.60955,0.01155 42.8615,-1.607731 64.3477,-8.504495 17.54247,-5.630886 36.32505,-15.785477 43.98351,-23.7791869 l 2.665,-2.7816565 4.87407,4.5527402 C 268.53221,18.708512 293.23995,29.236646 321,34.125579 c 39.34515,6.929229 106.35074,0.804419 137.22375,-12.543274 l 7.86703,-3.401242 2.01936,2.159468 c 3.3925,3.627862 14.50197,27.454881 18.72457,40.159469 4.52642,13.618685 8.46501,31.851862 10.36859,48 1.98921,16.8746 1.62103,76.91283 -0.58872,96 -8.90353,76.90597 -31.7381,135.7961 -72.80247,187.7568 -10.85929,13.74078 -36.64743,39.18363 -50.81211,50.13175 -33.32092,25.75431 -68.11631,44.26597 -109.45836,58.23345 -7.1271,2.4079 -13.4271,4.34367 -14,4.30172 -0.5729,-0.0419 -5.99164,-1.78589 -12.04164,-3.8754 z m 30.79016,-43.65486 C 307.5163,441.82299 341.77982,419.89295 370.37128,392.05741 419.58917,344.14078 447.71216,283.1332 457.52209,203 c 2.19925,-17.96473 3.24504,-65.37074 1.48878,-67.4869 C 457.89719,134.17119 434.27635,134 250.2378,134 c -196.462799,0 -207.588081,0.0932 -208.845754,1.75 -1.876944,2.47257 -1.804769,34.15083 0.125881,55.25 9.709687,106.11263 54.167144,185.04681 133.412533,236.87383 22.7641,14.88788 69.73306,36.81686 76.3597,35.651 1.53459,-0.26999 9.18459,-3.02911 17,-6.13137 z m -84.5355,-108.45301 c -24.74262,-2.84017 -42.22488,-18.45214 -48.86798,-43.63997 -2.72505,-10.33225 -2.93821,-31.19251 -0.43736,-42.80048 7.38993,-34.30123 30.92212,-57.94851 64.55068,-64.8664 11.14048,-2.29176 28.56551,-3.23908 30.47224,-1.65664 1.21296,1.00667 1.52776,3.70805 1.52776,13.1103 0,10.26968 -0.2324,11.96163 -1.75,12.7404 -0.9625,0.49392 -6.05999,1.1676 -11.32775,1.49708 -18.42837,1.15262 -33.99995,8.35155 -41.88613,19.36447 -3.8483,5.37409 -6.74817,11.93207 -5.72754,12.9527 0.27935,0.27935 2.2367,-0.6333 4.34966,-2.02811 12.69222,-8.37838 31.96215,-9.30633 46.84176,-2.25567 29.23761,13.85414 34.53573,57.28378 10.01159,82.06682 -12.0811,12.20863 -28.91642,17.67817 -47.75693,15.5155 z m 14.54308,-27.29149 c 16.62712,-6.94726 16.84907,-40.22893 0.31835,-47.73584 -8.77034,-3.98277 -19.04188,-1.63542 -25.84071,5.90537 -4.5367,5.03179 -5.16098,7.2892 -4.56437,16.5048 0.51903,8.01736 3.37109,15.54994 7.5926,20.05281 5.57878,5.95059 15.37575,8.24711 22.49413,5.27286 z M 308.5,348.80773 C 299.99355,347.78719 289.42249,342.9873 282.89557,337.1818 268.69231,324.54843 260.87953,301.39188 260.9039,272 c 0.0401,-48.42794 21.04101,-77 56.5961,-77 29.3819,0 48.11469,19.23183 54.05984,55.5 2.23881,13.65779 1.48449,39.3908 -1.50652,51.3935 -2.59042,10.39519 -8.43274,22.9696 -13.80578,29.71415 -10.41874,13.07821 -28.32848,19.52983 -47.74754,17.20008 z m 16.58383,-29.08524 c 1.92813,-1.29936 4.57451,-4.62785 6.16181,-7.75 4.4992,-8.84973 6.0362,-18.9915 6.05789,-39.97249 0.0206,-19.8965 -1.35354,-29.87337 -5.2587,-38.18125 -6.53974,-13.91269 -19.77516,-15.76214 -27.78118,-3.88201 -11.08112,16.44326 -10.96678,69.87827 0.18185,84.98938 1.38253,1.87393 3.76038,4.22919 5.2841,5.23392 3.97638,2.62199 11.11609,2.41853 15.35423,-0.43755 z"
       id="path4904"
       inkscape:connector-curvature="0" />
    <path
       style="fill:#5197f0"
       d="M 237.5,501.04832 C 160.20133,474.3513 99.495734,428.98998 59.445707,368 27.786782,319.78836 9.7584951,265.65577 2.8290093,198 1.1129147,181.24498 1.0811816,121.93332 2.7808571,108 6.2356967,79.678482 12.503273,57.188412 22.706615,36.5 28.485875,24.781909 33.000361,17.774309 34.388737,18.366456 65.75771,31.745417 92.914851,36.442474 139,36.459858 c 30.60955,0.01155 42.8615,-1.607731 64.3477,-8.504495 17.54247,-5.630886 36.32505,-15.785477 43.98351,-23.7791869 l 2.665,-2.7816565 4.87407,4.5527402 C 268.53221,18.708512 293.23995,29.236646 321,34.125579 c 39.34515,6.929229 106.35074,0.804419 137.22375,-12.543274 l 7.86703,-3.401242 2.01936,2.159468 c 3.3925,3.627862 14.50197,27.454881 18.72457,40.159469 4.52642,13.618685 8.46501,31.851862 10.36859,48 1.98921,16.8746 1.62103,76.91283 -0.58872,96 -8.90353,76.90597 -31.7381,135.7961 -72.80247,187.7568 -10.85929,13.74078 -36.64743,39.18363 -50.81211,50.13175 -33.32092,25.75431 -68.11631,44.26597 -109.45836,58.23345 -7.1271,2.4079 -13.4271,4.34367 -14,4.30172 -0.5729,-0.0419 -5.99164,-1.78589 -12.04164,-3.8754 z m 30.79016,-43.65486 c 62.53349,-24.82212 113.27594,-66.56178 145.71447,-119.86161 5.52416,-9.07675 16.06382,-30.1565 20.07444,-40.14967 16.65403,-41.49655 24.53809,-82.94874 25.78725,-135.5823 0.62006,-26.12623 0.59069,-26.71166 -1.36632,-27.23635 -2.71608,-0.72821 -414.944464,-0.71394 -416.842565,0.0144 -2.111448,0.81024 -2.204023,34.28312 -0.156045,56.42204 9.835122,106.31894 54.18082,185.04493 133.42907,236.87383 22.7641,14.88788 69.73306,36.81686 76.3597,35.651 1.53459,-0.26999 9.18459,-3.02911 17,-6.13137 z M 177,346.49944 c -16.18501,-3.66936 -28.6643,-13.62148 -35.75542,-28.5146 -5.88066,-12.35083 -6.75889,-17.03637 -6.65109,-35.48484 0.11212,-19.18856 1.79142,-26.74778 9.34798,-42.0793 12.99538,-26.36633 36.65024,-40.78429 71.04124,-43.3006 6.33451,-0.46349 12.07979,-0.63197 12.76729,-0.37441 0.90247,0.33809 1.25,3.7338 1.25,12.21377 l 0,11.74549 -8.25,0.65812 c -19.07736,1.52187 -31.10652,6.02001 -40.78381,15.25059 -7.75615,7.39811 -14.18902,19.89452 -11.19409,21.74549 0.42465,0.26245 3.33716,-1.24709 6.47225,-3.35452 12.61325,-8.47874 32.23346,-9.28689 46.87529,-1.93078 24.09597,12.10591 31.0011,47.31998 14.23274,72.58259 -5.91386,8.90961 -14.62098,15.4314 -25.93229,19.42375 -7.85152,2.77122 -24.36377,3.47245 -33.42009,1.41925 z m 19.32078,-22.57156 c 9.62721,-2.67333 15.92734,-13.09601 16.0229,-26.50767 0.0491,-6.89683 -0.35381,-8.92063 -2.75223,-13.82281 -7.30155,-14.92384 -25.63399,-17.59575 -37.29077,-5.43503 -5.99018,6.24915 -7.40329,12.53713 -5.17747,23.03841 2.62884,12.40273 9.44568,20.44644 19.37679,22.86415 4.35369,1.0599 5.57149,1.04291 9.82078,-0.13705 z m 106.79155,22.49157 c -13.75009,-3.69786 -24.53003,-12.9247 -31.44934,-26.91835 -13.35348,-27.00611 -12.47698,-73.60677 1.84554,-98.12067 12.79953,-21.90722 39.04781,-30.79061 63.49147,-21.48786 24.50103,9.32458 37.67382,41.99926 34.02015,84.3859 -2.99947,34.79717 -17.40944,56.59444 -41.10678,62.18025 -7.98767,1.8828 -19.71793,1.86562 -26.80104,-0.0393 z M 324.0058,321.99704 C 334.06725,316.86407 339,300.20868 339,271.36919 c 0,-23.07987 -3.1007,-36.79383 -10.12268,-44.77122 -11.31794,-12.85786 -25.73907,-5.3567 -31.35304,16.30832 -3.40085,13.12434 -3.64475,42.64613 -0.47169,57.09371 4.13922,18.84663 15.29012,27.9471 26.95321,21.99704 z"
       id="path4902"
       inkscape:connector-curvature="0" />
    <path
       style="fill:#0168e9"
       d="M 248.83333,504.14884 C 248.65,503.68071 244.675,502.04987 240,500.52476 181.46478,481.42896 126.32302,446.41475 89.415871,404.90605 45.312269,355.30364 19.098669,297.98128 7.6018679,226 5.6038673,213.49055 3,188.44045 3,181.72844 3,178.7978 2.5190883,175.91909 1.9313073,175.33131 0.28949652,173.6895 1.3315728,118.23955 3.2718435,104 5.982614,84.105792 9.3615741,69.8587 15.075323,54.231652 20.957391,38.144254 32.127159,17.401886 34.388737,18.366456 65.75771,31.745417 92.914851,36.442474 139,36.459858 c 30.60955,0.01155 42.8615,-1.607731 64.3477,-8.504495 17.54247,-5.630886 36.32505,-15.785477 43.98351,-23.7791869 l 2.665,-2.7816565 4.87407,4.5527402 C 268.53221,18.708512 293.23995,29.236646 321,34.125579 c 39.34515,6.929229 106.35074,0.804419 137.22375,-12.543274 l 7.86703,-3.401242 2.01936,2.159468 c 3.3925,3.627862 14.50197,27.454881 18.72457,40.159469 4.20077,12.638909 8.27309,30.939144 10.2363,46 1.5581,11.95303 2.41645,68.15373 1.0831,70.91699 -0.5528,1.14565 -1.28617,6.80801 -1.62969,12.58301 -1.59587,26.82844 -7.32238,59.86417 -14.91854,86.06366 C 464.32116,335.6795 434.86735,384.47271 392,424.5049 c -35.14024,32.81613 -80.56852,59.10105 -130.5,75.50764 -5.5,1.8072 -10.15,3.66869 -10.33333,4.13664 -0.43049,1.09879 -1.90297,1.09858 -2.33334,-3.4e-4 z m 10.72527,-42.05398 c 45.15971,-16.52039 81.9716,-39.62581 113.98918,-71.54667 15.62056,-15.57338 22.85568,-24.37637 35.06,-42.65759 22.53989,-33.7632 37.5082,-72.0263 45.83659,-117.17084 4.3873,-23.78169 5.70877,-37.96968 6.27017,-67.32017 l 0.5375,-28.10042 -2.37602,-0.63593 C 454.6335,133.52775 43.066548,133.89402 40.934259,135.03518 39.119412,136.00646 39,137.32386 39,156.37457 c 0,73.48483 18.145041,139.04971 52.961827,191.37108 12.030263,18.07862 22.127033,30.2157 37.658213,45.26802 31.87739,30.89452 64.89761,51.26163 113.87996,70.242 5.68366,2.20238 7.15601,2.09595 16.0586,-1.16081 z M 177,346.49944 c -16.18501,-3.66936 -28.6643,-13.62148 -35.75542,-28.5146 -5.88066,-12.35083 -6.75889,-17.03637 -6.65109,-35.48484 0.11212,-19.18856 1.79142,-26.74778 9.34798,-42.0793 12.99538,-26.36633 36.65024,-40.78429 71.04124,-43.3006 6.33451,-0.46349 12.07979,-0.63197 12.76729,-0.37441 0.90247,0.33809 1.25,3.7338 1.25,12.21377 l 0,11.74549 -8.25,0.65812 c -19.07736,1.52187 -31.10652,6.02001 -40.78381,15.25059 -7.75615,7.39811 -14.18902,19.89452 -11.19409,21.74549 0.42465,0.26245 3.33716,-1.24709 6.47225,-3.35452 12.61325,-8.47874 32.23346,-9.28689 46.87529,-1.93078 24.09597,12.10591 31.0011,47.31998 14.23274,72.58259 -5.91386,8.90961 -14.62098,15.4314 -25.93229,19.42375 -7.85152,2.77122 -24.36377,3.47245 -33.42009,1.41925 z m 19.32078,-22.57156 c 9.62721,-2.67333 15.92734,-13.09601 16.0229,-26.50767 0.0491,-6.89683 -0.35381,-8.92063 -2.75223,-13.82281 -7.30155,-14.92384 -25.63399,-17.59575 -37.29077,-5.43503 -5.99018,6.24915 -7.40329,12.53713 -5.17747,23.03841 2.62884,12.40273 9.44568,20.44644 19.37679,22.86415 4.35369,1.0599 5.57149,1.04291 9.82078,-0.13705 z m 106.79155,22.49157 c -13.75009,-3.69786 -24.53003,-12.9247 -31.44934,-26.91835 -13.35348,-27.00611 -12.47698,-73.60677 1.84554,-98.12067 12.79953,-21.90722 39.04781,-30.79061 63.49147,-21.48786 24.50103,9.32458 37.67382,41.99926 34.02015,84.3859 -2.99947,34.79717 -17.40944,56.59444 -41.10678,62.18025 -7.98767,1.8828 -19.71793,1.86562 -26.80104,-0.0393 z M 324.0058,321.99704 C 334.06725,316.86407 339,300.20868 339,271.36919 c 0,-23.07987 -3.1007,-36.79383 -10.12268,-44.77122 -11.31794,-12.85786 -25.73907,-5.3567 -31.35304,16.30832 -3.40085,13.12434 -3.64475,42.64613 -0.47169,57.09371 4.13922,18.84663 15.29012,27.9471 26.95321,21.99704 z"
       id="path4900"
       inkscape:connector-curvature="0" />
    <path
       style="fill:#e82702"
       d="m 177,346.49944 c -16.18501,-3.66936 -28.6643,-13.62148 -35.75542,-28.5146 -5.88066,-12.35083 -6.75889,-17.03637 -6.65109,-35.48484 0.11212,-19.18856 1.79142,-26.74778 9.34798,-42.0793 12.99538,-26.36633 36.65024,-40.78429 71.04124,-43.3006 6.33451,-0.46349 12.07979,-0.63197 12.76729,-0.37441 0.90247,0.33809 1.25,3.7338 1.25,12.21377 l 0,11.74549 -8.25,0.65812 c -19.07736,1.52187 -31.10652,6.02001 -40.78381,15.25059 -7.75615,7.39811 -14.18902,19.89452 -11.19409,21.74549 0.42465,0.26245 3.33716,-1.24709 6.47225,-3.35452 12.61325,-8.47874 32.23346,-9.28689 46.87529,-1.93078 24.09597,12.10591 31.0011,47.31998 14.23274,72.58259 -5.91386,8.90961 -14.62098,15.4314 -25.93229,19.42375 -7.85152,2.77122 -24.36377,3.47245 -33.42009,1.41925 z m 19.32078,-22.57156 c 9.62721,-2.67333 15.92734,-13.09601 16.0229,-26.50767 0.0491,-6.89683 -0.35381,-8.92063 -2.75223,-13.82281 -7.30155,-14.92384 -25.63399,-17.59575 -37.29077,-5.43503 -5.99018,6.24915 -7.40329,12.53713 -5.17747,23.03841 2.62884,12.40273 9.44568,20.44644 19.37679,22.86415 4.35369,1.0599 5.57149,1.04291 9.82078,-0.13705 z m 106.79155,22.49157 c -13.75009,-3.69786 -24.53003,-12.9247 -31.44934,-26.91835 -13.35348,-27.00611 -12.47698,-73.60677 1.84554,-98.12067 12.79953,-21.90722 39.04781,-30.79061 63.49147,-21.48786 24.50103,9.32458 37.67382,41.99926 34.02015,84.3859 -2.99947,34.79717 -17.40944,56.59444 -41.10678,62.18025 -7.98767,1.8828 -19.71793,1.86562 -26.80104,-0.0393 z M 324.0058,321.99704 C 334.06725,316.86407 339,300.20868 339,271.36919 c 0,-23.07987 -3.1007,-36.79383 -10.12268,-44.77122 -11.31794,-12.85786 -25.73907,-5.3567 -31.35304,16.30832 -3.40085,13.12434 -3.64475,42.64613 -0.47169,57.09371 4.13922,18.84663 15.29012,27.9471 26.95321,21.99704 z M 1.3497726,134.46911 C -0.65347068,129.24874 4.7546527,88.870669 10.020522,69.731652 15.653492,49.258394 30.99554,16.919247 34.388737,18.366456 65.75771,31.745417 92.914851,36.442474 139,36.459858 c 30.60955,0.01155 42.8615,-1.607731 64.3477,-8.504495 17.54247,-5.630886 36.32505,-15.785477 43.98351,-23.7791869 l 2.665,-2.7816565 4.87407,4.5527402 C 268.53221,18.708512 293.23995,29.236646 321,34.125579 c 39.34515,6.929229 106.35074,0.804419 137.22375,-12.543274 l 7.86703,-3.401242 2.01936,2.159468 c 3.3925,3.627862 14.50197,27.454881 18.72457,40.159469 6.63053,19.949344 11.64167,48.74877 11.65809,67 l 0.007,8 -19.5,-0.27929 C 441.18468,134.67909 41.240144,134.92169 21.734375,135.49808 4.1312246,136.01824 1.9010305,135.90566 1.3497726,134.46911 Z"
       id="path4898"
       inkscape:connector-curvature="0" />
    <path
       style="fill:#555555"
       d="m 177,346.49944 c -16.18501,-3.66936 -28.6643,-13.62148 -35.75542,-28.5146 -5.88066,-12.35083 -6.75889,-17.03637 -6.65109,-35.48484 0.11212,-19.18856 1.79142,-26.74778 9.34798,-42.0793 12.99538,-26.36633 36.65024,-40.78429 71.04124,-43.3006 6.33451,-0.46349 12.07979,-0.63197 12.76729,-0.37441 0.90247,0.33809 1.25,3.7338 1.25,12.21377 l 0,11.74549 -8.25,0.65812 c -19.07736,1.52187 -31.10652,6.02001 -40.78381,15.25059 -7.75615,7.39811 -14.18902,19.89452 -11.19409,21.74549 0.42465,0.26245 3.33716,-1.24709 6.47225,-3.35452 12.61325,-8.47874 32.23346,-9.28689 46.87529,-1.93078 24.09597,12.10591 31.0011,47.31998 14.23274,72.58259 -5.91386,8.90961 -14.62098,15.4314 -25.93229,19.42375 -7.85152,2.77122 -24.36377,3.47245 -33.42009,1.41925 z m 19.32078,-22.57156 c 9.62721,-2.67333 15.92734,-13.09601 16.0229,-26.50767 0.0491,-6.89683 -0.35381,-8.92063 -2.75223,-13.82281 -7.30155,-14.92384 -25.63399,-17.59575 -37.29077,-5.43503 -5.99018,6.24915 -7.40329,12.53713 -5.17747,23.03841 2.62884,12.40273 9.44568,20.44644 19.37679,22.86415 4.35369,1.0599 5.57149,1.04291 9.82078,-0.13705 z m 106.79155,22.49157 c -13.75009,-3.69786 -24.53003,-12.9247 -31.44934,-26.91835 -13.35348,-27.00611 -12.47698,-73.60677 1.84554,-98.12067 12.79953,-21.90722 39.04781,-30.79061 63.49147,-21.48786 24.50103,9.32458 37.67382,41.99926 34.02015,84.3859 -2.99947,34.79717 -17.40944,56.59444 -41.10678,62.18025 -7.98767,1.8828 -19.71793,1.86562 -26.80104,-0.0393 z M 324.0058,321.99704 C 334.06725,316.86407 339,300.20868 339,271.36919 c 0,-23.07987 -3.1007,-36.79383 -10.12268,-44.77122 -11.31794,-12.85786 -25.73907,-5.3567 -31.35304,16.30832 -3.40085,13.12434 -3.64475,42.64613 -0.47169,57.09371 4.13922,18.84663 15.29012,27.9471 26.95321,21.99704 z M 2,135 c 0,-0.63258 7.186339,-1 19.559017,-1 12.784701,0 19.344959,0.34635 18.940983,1 -0.838414,1.35658 -38.5,1.35658 -38.5,0 z m 458.5,0 c -0.40377,-0.65331 5.98962,-1 18.44098,-1 12.03935,0 19.05902,0.36831 19.05902,1 0,0.63052 -6.81366,1 -18.44098,1 -11.2153,0 -18.68315,-0.39183 -19.05902,-1 z"
       id="path4896"
       inkscape:connector-curvature="0" />
  </g>
</svg>
