<?xml version="1.0" standalone="no"?>
<!DOCTYPE svg PUBLIC "-//W3C//DTD SVG 1.1//EN" "http://www.w3.org/Graphics/SVG/1.1/DTD/svg11.dtd" >
<svg xmlns="http://www.w3.org/2000/svg">
<metadata>Generated by IcoMoon</metadata>
<defs>
<font id="NextGen" horiz-adv-x="1024">
<font-face units-per-em="1024" ascent="960" descent="-64" />
<missing-glyph horiz-adv-x="1024" />
<glyph unicode="&#x20;" horiz-adv-x="512" d="" />
<glyph unicode="&#xe900;" glyph-name="lpr" horiz-adv-x="1820" d="M1678.222-64h-1536c-78.547 0-142.222 63.675-142.222 142.222v0 739.556c0 78.547 63.675 142.222 142.222 142.222v0h1536c78.547 0 142.222-63.675 142.222-142.222v0-739.556c0-78.547-63.675-142.222-142.222-142.222v0zM497.778 846.222h-199.111c-23.564 0-42.667-19.103-42.667-42.667s19.103-42.667 42.667-42.667v0h199.111c23.564 0 42.667 19.103 42.667 42.667s-19.103 42.667-42.667 42.667v0zM1521.778 846.222h-199.111c-23.564 0-42.667-19.103-42.667-42.667s19.103-42.667 42.667-42.667v0h199.111c23.564 0 42.667 19.103 42.667 42.667s-19.103 42.667-42.667 42.667v0zM1735.111 647.111h-1649.778v-568.889c0-31.419 25.47-56.889 56.889-56.889v0h1536c31.419 0 56.889 25.47 56.889 56.889v0 568.889zM1623.865 319.26c10.156-12.855 16.291-29.295 16.291-47.169 0-1.418-0.039-2.827-0.115-4.226l0.008 0.195c0.108-1.705 0.169-3.696 0.169-5.702 0-26.19-10.45-49.939-27.409-67.305l0.018 0.019c-18.791-16.368-43.521-26.346-70.582-26.346-2.498 0-4.976 0.085-7.432 0.252l0.332-0.018c-0.898-0.019-1.958-0.029-3.019-0.029-26.305 0-51.092 6.503-72.84 17.989l0.851-0.41v58.453c9.552-6.107 20.543-11.378 32.171-15.255l1.052-0.304c10.706-3.75 23.050-5.943 35.898-6.002h0.028c1.438-0.124 3.112-0.195 4.803-0.195 13.328 0 25.625 4.411 35.512 11.853l-0.151-0.109c8.159 8.503 13.183 20.069 13.183 32.808 0 1.468-0.067 2.92-0.197 4.354l0.014-0.184c0.103 1.013 0.161 2.189 0.161 3.378 0 11.963-5.917 22.543-14.984 28.974l-0.11 0.074c-11.954 6.175-26.092 9.795-41.075 9.795-2.312 0-4.604-0.086-6.872-0.256l0.303 0.018h-19.74v52.679h20.082c1.721-0.136 3.727-0.214 5.751-0.214 14.158 0 27.429 3.796 38.851 10.425l-0.371-0.199c8.679 7.143 14.17 17.886 14.17 29.912 0 1.397-0.074 2.776-0.218 4.134l0.015-0.169c0.212 1.4 0.334 3.014 0.334 4.657 0 18.034-14.62 32.654-32.654 32.654-1.643 0-3.258-0.121-4.836-0.356l0.178 0.022c-9.424-0.097-18.365-2.054-26.51-5.519l0.455 0.172c-11.252-5.011-20.945-11.186-29.575-18.569l0.164 0.137-25.429 47.332c21.67 19.855 50.669 32.021 82.509 32.021 0.803 0 1.604-0.008 2.403-0.023l-0.12 0.002c1.552 0.092 3.366 0.144 5.193 0.144 22.245 0 42.675-7.766 58.729-20.735l-0.177 0.139c14.451-13.148 23.486-32.030 23.486-53.022 0-1.36-0.038-2.712-0.113-4.053l0.008 0.186c0.026-0.803 0.041-1.746 0.041-2.694 0-18.283-5.529-35.275-15.005-49.395l0.202 0.319c-9.884-14.084-24.197-24.474-40.889-29.199l-0.526-0.127v-1.337c18.949-2.044 35.527-10.853 47.538-23.924l0.049-0.054zM1244.53 221.156l65.252 82.489q28.956 37.12 37.86 51.456c4.967 7.631 9.293 16.4 12.538 25.678l0.262 0.861c2.49 7.512 3.926 16.161 3.926 25.144 0 0.070 0 0.141 0 0.211v-0.011c0.091 1.037 0.142 2.244 0.142 3.464 0 9.686-3.263 18.611-8.749 25.734l0.073-0.099c-5.402 5.899-13.139 9.585-21.737 9.585-0.448 0-0.894-0.010-1.338-0.030l0.063 0.002c-10.88-0.057-21.008-3.229-29.552-8.668l0.225 0.134c-11.252-7.237-20.995-15.389-29.616-24.603l-0.080-0.087-29.867 44.231c9.528 10.666 19.951 20.16 31.271 28.507l0.558 0.393c7.923 5.354 17.067 9.779 26.827 12.803l0.736 0.196c9.561 2.895 20.55 4.561 31.928 4.561 0.525 0 1.050-0.004 1.574-0.011l-0.079 0.001c0.494 0.011 1.076 0.017 1.659 0.017 15.232 0 29.497-4.137 41.734-11.348l-0.385 0.21c12.436-7.476 22.329-18.044 28.786-30.662l0.199-0.428c6.504-12.814 10.314-27.939 10.314-43.955 0-0.647-0.006-1.293-0.019-1.938l0.001 0.097c0.002-0.293 0.004-0.64 0.004-0.988 0-14.681-2.311-28.822-6.588-42.079l0.27 0.969c-5.2-15.387-11.816-28.727-19.942-40.977l0.401 0.643c-15.221-22.004-30.552-41.21-47.069-59.315l0.392 0.435-33.422-39.339v-3.129h113.266v-57.771h-181.703v47.787zM1132.089 361.358l0.54 30.891 0.882 33.792q-13.682-17.067-19.029-22.443l-29.867-30.009-26.482 41.33 83.74 83.342h45.141v-324.892h-54.926v187.989zM882.148 439.154c-8.509 3.953-18.457 6.309-28.943 6.428h-0.042c-0.209 0.003-0.456 0.005-0.703 0.005-20.632 0-38.521-11.747-47.342-28.918l-0.14-0.299c-10.903-21.215-17.294-46.292-17.294-72.861 0-3.017 0.082-6.014 0.245-8.99l-0.018 0.414q0-108.686 65.252-108.686c24.345 1.263 46.969 7.426 67.3 17.514l-0.996-0.447v-57.771c-20.141-10.515-43.989-16.684-69.278-16.684-0.764 0-1.528 0.006-2.289 0.017l0.115-0.001c-1.459-0.077-3.167-0.12-4.885-0.12-33.846 0-63.735 16.938-81.655 42.799l-0.216 0.329c-19.148 31.411-30.484 69.405-30.484 110.047 0 4.705 0.152 9.375 0.451 14.004l-0.033-0.631c-0.031 1.459-0.049 3.178-0.049 4.902 0 30.099 5.43 58.929 15.365 85.565l-0.553-1.692c8.556 23.776 23.22 43.611 42.119 58.236l0.292 0.217c17.31 12.723 39.044 20.361 62.563 20.361 0.785 0 1.569-0.009 2.35-0.025l-0.116 0.002c28.303-0.549 54.523-9.008 76.673-23.249l-0.584 0.351-17.778-55.979c-8.063 4.938-17.687 10.003-27.633 14.48l-1.693 0.681zM680.562 317.81c6.966-13.274 11.053-29.001 11.053-45.682 0-1.591-0.037-3.172-0.111-4.745l0.008 0.223c0.104-1.635 0.163-3.545 0.163-5.469 0-24.821-9.821-47.347-25.789-63.906l0.027 0.028c-16.997-15.519-39.715-25.026-64.653-25.026-1.801 0-3.591 0.050-5.368 0.148l0.247-0.011h-97.223v324.892h80.868c3.207 0.28 6.939 0.44 10.708 0.44 25.797 0 49.844-7.488 70.088-20.409l-0.526 0.314c15.525-13.767 25.261-33.764 25.261-56.035 0-2.303-0.104-4.582-0.308-6.833l0.021 0.29c0.048-1.12 0.075-2.435 0.075-3.755 0-16.108-4.072-31.264-11.243-44.496l0.245 0.494c-5.919-11.269-16.323-19.502-28.777-22.385l-0.293-0.057v-2.247c15.157-3.596 27.675-12.929 35.387-25.524l0.14-0.246zM617.472 433.692c-8.591 5.219-18.977 8.308-30.085 8.308-1.585 0-3.155-0.063-4.708-0.186l0.205 0.013h-28.985v-72.22h32.057c1.326-0.127 2.868-0.199 4.426-0.199 10.481 0 20.198 3.267 28.19 8.838l-0.161-0.106c6.317 6.494 10.212 15.371 10.212 25.159 0 1.237-0.062 2.46-0.184 3.665l0.012-0.152c0.099 0.933 0.156 2.015 0.156 3.111 0 9.557-4.308 18.107-11.088 23.816l-0.047 0.039zM588.032 314.937h-34.133v-84.679h35.925c1.867-0.319 4.018-0.501 6.212-0.501 21.396 0 38.741 17.345 38.741 38.741 0 2.115-0.169 4.19-0.496 6.213l0.030-0.222c0.062 0.822 0.098 1.779 0.098 2.745 0 21.271-17.243 38.514-38.514 38.514-2.784 0-5.5-0.295-8.116-0.857l0.253 0.045zM383.061 250.709h-94.777l-18.83-77.34h-59.392l91.733 326.229h67.385l92.103-326.229h-59.392zM340.395 427.378c-2.19 9.188-3.783 16.441-4.722 21.76q-5.831-28.444-33.593-140.658h67.698q-25.998 105.131-29.298 118.898z" />
<glyph unicode="&#xe901;" glyph-name="911" horiz-adv-x="992" d="M35.488 209.44c10.048-0.64 25.44-1.312 40.832 0 77.248 2.688 146.528 23.424 187.488 60.992 41.248 42.24 66.176 107.328 66.176 208.352 0 116.352-45.856 209.088-164.192 209.088-105.44 0-165.824-76.928-165.824-173.888 0-95.648 55.040-152.512 131.584-152.512 48.096 0 82.336 12.544 105.952 34.72l2.464-0.736c-9.792-35.936-32.608-62.528-66.848-80.896-28.544-15.2-66.848-23.424-98.56-25.344-17.76-1.376-27.808-1.376-39.072 0v-79.776zM162.528 608.096c56.256 0 77.44-52 77.44-104.8 0-14.56-2.464-22.208-6.528-29.088-11.424-17.6-35.040-32.928-68.48-32.928-50.528 0-75.008 36.736-75.008 79.616-0.64 52.064 30.176 87.2 72.544 87.2v0 0zM528 215.2h90.016v466.912h-77.12l-114.4-57.312 16.8-81.92 83.36 42.4h1.344v-370.080zM912 215.2h90.016v466.912h-77.152l-114.4-57.312 16.8-81.92 83.36 42.4h1.344v-370.080z" />
<glyph unicode="&#xe902;" glyph-name="agent" horiz-adv-x="992" d="M184.384 84.192l80.736 67.936-65.312 58.048-199.808-87.456 157.248 125.216-134.24 119.296 205.12 157.568-135.968-146.208 187.008-227.584-44.128-62.272 147.52-152.768-198.24 148.192zM726.176 152.128l80.64-67.936-198.24-148.192 147.52 152.768-44.128 62.272 187.008 227.584-135.968 146.208 205.12-157.568-138.592-123.168 152.448-121.344-193.6 84.736-62.24-55.328zM737.088 485.376c-1.536-45.312-28.224-82.88-72.064-83.68s-121.152 33.664-137.024 66.304c-4.16 8.48-5.824 16.704-7.616 23.392-0.16 0.672-0.384 1.376-0.544 1.984s-0.288 1.216-0.544 1.824c-1.952 6.944-5.28 12.128-12.288 12.352-0.16 0-0.416 0.032-0.608-0.064-0.16 0.096-0.416 0.096-0.704 0.096-7.008 0.224-10.656-4.704-13.088-11.52-0.288-0.608-0.48-1.184-0.672-1.792s-0.48-1.28-0.672-1.952c-2.24-6.56-4.544-14.656-9.184-22.848-18.080-31.52-97.568-60.832-141.248-57.152s-67.744 42.912-66.208 88.224c1.536 45.312 25.088 60.448 25.088 60.448 14.272 13.12 206.784 1.312 206.784 1.312l1.76-0.128 1.664 0.032c0 0 192.864-0.832 206.24-14.848 0 0 22.464-16.672 20.928-61.952zM504.928 524.8c0.256 0 0.512 0 0.704-0.096-7.776-0.16-10.944-4.8-13.408-11.872 2.176 6.88 5.696 11.936 12.704 11.936zM520.16 509.056v-0.256c-0.192 0.768-0.352 1.536-0.608 2.24 0.192-0.608 0.448-1.312 0.608-1.984zM491.008 509.056c0.16 0.672 0.448 1.376 0.608 1.984-0.256-0.704-0.448-1.472-0.608-2.24v0.256zM518.944 512.864c-2.464 6.976-5.6 11.712-13.312 11.872 0.192 0.096 0.448 0.096 0.608 0.096 7.008 0 10.496-5.088 12.704-11.936zM14.816 582.272c0 0 415.52-15.040 509.824-15.040s458.4 15.040 458.4 15.040-180.256 88.16-226.208 122.56c-21.888 83.872-41.6 245.12-74.432 253.728s-124.864-53.76-156.544-51.616c-31.68 2.144-147.712 59.68-173.984 52.416s-38.208-243.776-71.648-252.384c-33.408-8.608-265.44-124.704-265.44-124.704z" />
<glyph unicode="&#xe903;" glyph-name="aircraft" horiz-adv-x="960" d="M908.992 737.984c40 53.44 63.84 108.992 64 148.672-0.096 12.8-2.688 22.848-7.552 30.336-0.48 0.896-1.952 3.296-4.384 5.664-2.528 2.4-4.704 3.744-5.184 3.968-7.872 5.28-17.92 7.776-30.816 7.776-39.488-0.064-95.040-23.904-148.512-63.904-43.232-32.352-86.464-77.952-146.24-140.992-10.208-10.688-20.832-21.952-32.192-33.728l-115.808 34.72 0.288 0.32c4.8 4.864 7.552 11.584 7.488 18.144 0.064 6.912-2.752 13.632-7.552 18.4l-20.896 21.024c-4.864 4.864-11.52 7.616-18.432 7.616-6.976 0-13.536-2.688-18.4-7.616l-31.328-31.328-16.544 4.96c3.552 4.512 5.536 10.208 5.536 15.808 0 6.976-2.688 13.568-7.648 18.432l-20.992 21.088c-4.768 4.8-11.456 7.552-18.432 7.552s-13.44-2.688-18.24-7.616l-28.704-28.704-117.856 35.264c-2.688 0.832-5.44 1.248-8.416 1.248-8.352-0.096-16.16-3.232-21.824-8.832l-41.44-41.44c-4.704-4.704-7.296-11.008-7.296-17.024-0.064-8.928 4.8-17.152 12.672-21.344l247.84-138.432c1.12-0.64 4.704-3.232 6.016-4.512l70.656-70.656c-66.112-69.6-124.992-137.088-170.816-195.744-4.288-5.408-8.352-10.752-12.32-16.064l-191.712 17.44c-0.896 0.16-1.952 0.256-3.328 0.256-8.768-0.256-17.344-3.648-23.776-9.824l-19.296-19.296c-4.768-4.704-7.456-11.040-7.36-17.12-0.16-9.312 5.536-17.92 13.952-21.632l134.88-64.096c1.152-0.544 4.128-2.752 5.12-3.712l11.2-11.104c-3.488-9.824-5.28-18.432-5.344-25.888 0-10.048 3.264-18.656 9.408-24.896l0.512-0.384 0.16-0.096c6.304-6.144 14.592-9.312 24.736-9.312 7.392 0.16 15.808 1.888 25.696 5.344l11.36-11.328c0.896-0.896 3.008-3.904 3.584-5.056l63.904-134.56c3.904-8.608 12.32-14.176 21.472-14.176h0.16c6.304 0 12.416 2.592 17.056 7.232l19.776 19.872c5.824 6.144 9.312 14.656 9.408 23.68 0 1.056 0 1.952-0.096 2.368l-17.44 192.48c5.28 3.872 10.528 8.032 16.064 12.256 58.752 45.92 126.144 104.864 195.648 170.784l70.72-70.688c1.12-1.12 3.808-4.608 4.544-6.080l138.208-247.36c4.224-7.936 12.32-12.896 21.344-12.896 6.4 0 12.576 2.496 17.184 7.296l41.76 41.664c5.44 5.664 8.448 13.312 8.512 21.76 0 2.816-0.416 5.6-1.12 8.128l-35.264 117.92 28.704 28.672c4.864 4.8 7.616 11.52 7.616 18.336 0 6.912-2.688 13.376-7.552 18.336l-21.088 21.088c-4.864 4.768-11.52 7.552-18.336 7.552-5.856 0-11.52-1.952-15.968-5.44l-4.864 16.544 31.328 31.296c4.768 4.864 7.552 11.52 7.552 18.4s-2.688 13.376-7.552 18.24l-20.928 20.992c-4.864 4.864-11.584 7.616-18.496 7.616s-13.632-2.784-18.336-7.616l-0.256-0.16-34.72 115.84c12 11.424 23.36 22.304 34.208 32.576 62.848 59.616 108.288 102.688 140.48 145.76v0 0z" />
<glyph unicode="&#xe904;" glyph-name="alarm" horiz-adv-x="992" d="M262.080 846.272l-67.392 67.648c-112.96-86.080-187.68-219.968-194.72-371.264h94.496c7.040 125.28 71.328 235.104 167.584 303.616v0 0zM894.528 542.624h94.496c-7.040 151.296-81.76 285.184-195.072 371.264l-67.552-67.648c96.8-68.544 161.088-178.368 168.128-303.616v0 0zM801.504 518.912c0 145.248-100.544 266.816-236.192 298.912v32.224c0 39.2-31.584 70.944-70.816 70.944s-70.816-31.744-70.816-70.944v-32.224c-135.648-32.128-236.224-153.728-236.224-298.912v-260.128l-94.432-94.528v-47.296h802.88v47.296l-94.432 94.528v260.128zM494.496-24.992c6.624 0 12.736 0.416 18.944 1.888 30.56 6.112 56.16 27.392 67.904 55.904 4.736 11.232 7.648 23.552 7.648 36.832h-188.992c0-52.064 42.528-94.624 94.496-94.624v0 0z" />
<glyph unicode="&#xe905;" glyph-name="alcohol-margarita" horiz-adv-x="992" d="M788.384 935.2c44.608-4.032 85.152-22.144 117.024-49.792l-117.024-116.032v165.824zM765.856 769.344l-124.128 123.008c34.272 26.688 77.312 42.88 124.128 43.648v-166.656zM921.536 869.824c29.088-31.296 48.416-71.616 53.248-116.224h-170.496l117.248 116.224zM976 731.264v-0.032c0-47.744-16.48-91.712-44.064-126.528l-127.68 126.56h171.744zM917.024 587.904c-33.376-33.76-78.432-56.16-128.64-60.64v188.192l128.64-127.552zM749.888 731.232v0zM564.032 753.568c5.28 48.416 27.52 91.712 60.8 124l125.088-124h-185.856zM409.792 25.6v262.592l339.84 425.472-749.632-0.032 338.848-425.44v-262.656c-37.856-8.384-73.696-30.24-101.248-65.536h274.304c-27.872 35.456-64.032 57.312-102.112 65.6v0 0zM354.464 306.4l-186.464 240.576 410.656 0.032-186.496-240.608-37.696 0.032z" />
<glyph unicode="&#xe906;" glyph-name="alcohol-wine" horiz-adv-x="768" d="M359.84 443.648c0 42.144-10.176 82.848-29.76 118.048l-4.736 8.192h-291.104l-4.48-8.192c-19.616-35.2-29.792-75.936-29.792-118.048 0-107.712 67.136-196.864 154.4-211.552v-251.296c-50.368-2.176-87.68-9.888-87.68-19.264 0-10.848 51.008-19.52 114.144-19.52 62.912 0 114.24 8.672 114.24 19.52 0 9.408-37.6 17.12-87.712 19.264v251.552c86.336 15.648 152.48 104.32 152.48 211.296v0 0zM179.968 262.72c-81.6 0-147.808 81.184-147.808 180.928 0 33.248 7.296 65.504 21.28 93.472h252.992c13.984-27.936 21.312-60.224 21.312-93.472 0-100-66.24-180.928-147.744-180.928v0 0zM668 847.008h-127.936v112.992h127.936v-112.992zM668 706.752v105.28h-127.936v-105.28c-54.144-24.832-91.744-80.192-91.744-144.768v-625.952h311.424v625.952c0.224 64.576-37.6 119.968-91.744 144.768v0 0zM732.32 95.744h-253.696v310.336h253.696v-310.336zM314.464 440.288c0 0-6.816-164.096-132.384-164.096s-142.624 164.096-142.624 164.096h275.008z" />
<glyph unicode="&#xe907;" glyph-name="asterisk" horiz-adv-x="960" d="M956.896 277.152l-280.8 170.848 280.8 170.848c4.864 2.944 8.288 7.68 9.6 13.12 1.344 5.504 0.416 11.328-2.496 16.096l-82.56 134.176c-6.112 10.016-19.296 13.184-29.376 7.072l-268.064-163.136v312.544c0 11.744-9.568 21.28-21.344 21.28h-158.112c-11.776 0-21.344-9.536-21.344-21.28v-312.544l-268.096 163.136c-10.112 6.048-23.264 2.944-29.408-7.072l-82.528-134.176c-2.912-4.832-3.872-10.592-2.56-16.096 1.376-5.44 4.8-10.208 9.664-13.12l280.8-170.848-280.8-170.848c-4.864-2.912-8.288-7.616-9.664-13.12-1.312-5.504-0.352-11.264 2.56-16.096l82.528-134.176c6.144-9.952 19.296-13.12 29.408-7.008l268.096 163.072v-312.544c0-11.744 9.536-21.28 21.344-21.28h158.144c11.776 0 21.344 9.568 21.344 21.28v312.544l268.064-163.072c10.080-6.112 23.264-2.944 29.44 7.072l82.496 134.112c2.912 4.832 3.872 10.592 2.56 16.096-1.376 5.504-4.8 10.24-9.664 13.12v0 0z" />
<glyph unicode="&#xe908;" glyph-name="badge" horiz-adv-x="864" d="M610.688 870.752c-83.232 0-144.864 46.432-184.032 89.248-39.168-42.816-100.832-89.248-184.032-89.248-51.904 0-105.44 18.176-159.872 54.144-59.552-215.328-102.624-388.64-73.312-535.68 33.056-165.76 165.856-310.176 417.248-453.216 251.36 143.040 384.192 287.456 417.248 453.216 29.312 147.040-13.792 320.352-73.312 535.68-54.432-35.968-108-54.144-159.904-54.144z" />
<glyph unicode="&#xe909;" glyph-name="boxing" horiz-adv-x="992" d="M392.832 211.264c-0.064-0.064-0.16-0.16-0.256-0.224l9.472-54.592 53.856-9.568c0.064 0.064 0.16 0.16 0.224 0.224l-10.272 53.728-53.024 10.4zM869.792 630.368c-209.024 211.776-328.992 102.976-348.352 29.088-9.248-35.296-8.352-49.984-8.352-49.984-31.424 15.68-111.616 37.728-180.512-218.368l-148.096-184.768c33.184-58.048 71.264-108.8 115.36-153.504s94.208-83.264 151.488-116.864l182.368 150.080c59.168 27.84 155.36 38.88 216.864 101.216 126.080 127.744 208.48 251.392 19.264 443.072v0 0zM574.336 175.744c-12.448-12.608-32.576-12.608-44.992 0-2.944 2.976-5.184 6.4-6.72 10.048l-38.88 7.648 7.52-39.392c3.616-1.6 6.976-3.84 9.92-6.816 12.416-12.576 12.416-32.992 0-45.6s-32.576-12.576-44.992 0c-2.816 2.848-4.928 6.080-6.496 9.536l-41.088 7.296 7.2-41.632c3.392-1.536 6.624-3.712 9.408-6.56 12.416-12.576 12.416-32.992 0-45.6s-32.576-12.576-44.992 0c-12.416 12.576-12.416 33.024 0 45.6 0.096 0.128 0.224 0.192 0.32 0.32l-9.44 54.56-53.856 9.6c-0.096-0.128-0.192-0.224-0.288-0.352-12.416-12.576-32.576-12.576-44.992 0s-12.416 32.992 0 45.6c12.448 12.576 32.576 12.576 44.992 0 2.816-2.848 4.928-6.080 6.496-9.536l41.088-7.328-7.232 41.632c-3.392 1.536-6.624 3.712-9.408 6.56-12.416 12.576-12.416 32.992 0 45.6s32.576 12.576 45.024 0c2.944-2.976 5.152-6.4 6.72-10.080l38.88-7.616-7.552 39.392c-3.616 1.568-6.976 3.84-9.952 6.816-12.416 12.576-12.416 32.992 0 45.6s32.576 12.608 45.024 0c12.384-12.576 12.416-32.928 0.064-45.504l10.272-53.728 53.024-10.432c12.416 12.512 32.512 12.48 44.928-0.064 12.416-12.576 12.416-32.992 0-45.6v0 0zM249.12 338.784l-13.504 17.6-51.936-14.976c-0.032-0.128-0.064-0.192-0.096-0.32l32.32-43.744 33.216 41.44zM129.984 278.784c3.776-1.248 7.104-3.168 10.016-5.536l39.904 12.288-24.992 33.856c-3.744-0.16-7.552 0.288-11.328 1.536-16.704 5.536-25.792 23.744-20.32 40.672s23.456 26.144 40.16 20.608c3.936-1.312 7.456-3.36 10.464-5.92l38.080 10.976-24.288 31.68c-3.904-0.256-7.936 0.192-11.904 1.536-16.704 5.536-25.792 23.744-20.32 40.672s23.456 26.144 40.16 20.608c16.64-5.536 25.76-23.68 20.352-40.544l33.12-43.232 51.936 15.008c1.632 4.928 4.32 9.184 7.712 12.64 29.28 97.344 60.16 150.496 60.16 150.496s-31.84 86.24-128.896 47.808c114.88 55.136 31.424 143.36 31.424 143.36s98.784-76.192 194.24-117.76c4.704 0.704 9.472 1.12 14.272 1.12 2.048 0 4.096-0.064 6.144-0.224 1.12 5.28 2.528 11.072 4.192 17.408 13.312 50.784 58.816 104.928 129.792 116.512-23.616 53.664-80 110.176-197.792 149.28-254.272 84.416-325.92-45.92-381.44-217.6-27.072-83.744 6.656-175.68 8.864-241.76l-49.76-232.608c55.488-36.576 112.096-64.416 171.328-84.096 2.016-0.672 4.032-1.28 6.048-1.952-7.104 11.168-14.016 22.656-20.768 34.432l-11.104 19.456 29.28 36.544-24.32-7.488c-0.032-0.128-0.064-0.288-0.128-0.416-5.472-16.928-23.456-26.144-40.16-20.608s-25.792 23.744-20.32 40.672c5.472 16.928 23.424 26.144 40.128 20.608v0 0z" />
<glyph unicode="&#xe90a;" glyph-name="buildings" d="M278.912 21.728h182.304v190.432h109.568v-190.432h182.304v852.512h-474.144v-852.512zM549.28 773.792h109.568v-111.936h-109.568v111.936zM549.28 593.92h109.568v-111.936h-109.568v111.936zM549.28 414.016h109.568v-111.936h-109.568v111.936zM373.152 773.792h109.568v-111.936h-109.568v111.936zM373.152 593.92h109.568v-111.936h-109.568v111.936zM373.152 414.016h109.568v-111.936h-109.568v111.936zM795.648 797.888v-602.784h70.4v-173.344h165.952v776.16h-236.352zM946.208 276.992h-99.776v101.888h99.776v-101.888zM946.208 440.736h-99.776v101.888h99.776v-101.888zM946.208 604.512h-99.776v101.888h99.776v-101.888zM0 21.728h165.952v173.344h70.4v602.784h-236.352v-776.16zM85.792 706.432h99.744v-101.888h-99.744v101.888zM85.792 542.656h99.744v-101.888h-99.744v101.888zM85.792 378.88h99.744v-101.888h-99.744v101.888z" />
<glyph unicode="&#xe90b;" glyph-name="bullet" horiz-adv-x="992" d="M47.776 338.784l314.464-314.464c3.52-3.52 9.568-3.232 13.504 0.704l28.064 28.064c4.16 4.16 5.344 10.368 2.848 15.136l-24.352 46.848c-0.544 1.024 0.48 2.304 1.632 2.080l60.512-12.512c5.568-1.152 11.68 0.8 16 5.12l337.792 337.76c3.616 3.616 3.904 9.408 0.672 12.96l-37.216 40.672-305.984-303.328-90.048 92.512 311.296 303.392-30.72 33.6-313.248-303.392-37.792 38.816 315.52 303.392-99.84 109.088c-3.456 3.776-9.344 3.904-13.184 0.288l-359.040-337.92c-4.608-4.32-6.72-10.592-5.536-16.48l12.64-63.040c0.224-1.184-1.12-2.208-2.208-1.632l-49.184 26.784c-5.056 2.752-11.616 1.76-16.032-2.4l-29.856-28.096c-4.16-3.936-4.48-10.176-0.736-13.92zM565.152 790.304l255.552-281.248c223.744 270.208 25.952 499.040-255.552 281.248z" />
<glyph unicode="&#xe90c;" glyph-name="bullet-possible" horiz-adv-x="992" d="M740.384 569.024c-144.48-0.032-261.568-117.12-261.568-261.6 0 0 0-0.032 0-0.032v0c0.032-144.448 117.12-261.568 261.568-261.568v0c0 0 0.032 0 0.032 0 144.48 0 261.568 117.12 261.6 261.568v0c0 0 0 0.032 0 0.032 0 144.48-117.12 261.6-261.6 261.6 0 0-0.032 0-0.032 0v0zM741.024 461.536c29.184 0 52.224-7.104 69.024-21.376 16.96-14.112 25.408-32.8 25.408-56 0-13.312-2.336-25.152-7.072-35.584-4.736-10.304-11.008-19.488-18.752-27.488-7.584-7.744-16.352-15.008-26.24-21.792s-20.416-13.376-31.552-19.744v-45.76h-36.48v62.080c8.832 5.024 18.336 10.528 28.512 16.48 10.304 5.984 18.72 12 25.248 18.080 7.872 7.072 13.984 14.304 18.336 21.792 4.352 7.584 6.56 17.248 6.56 28.928 0 15.328-5.248 26.752-15.712 34.208-10.304 7.584-23.648 11.36-40.064 11.36-14.656 0-28.608-2.304-41.792-6.912-13.024-4.608-23.36-9.312-30.944-14.048h-2.016v41.536c9.504 3.648 21.536 6.912 36.064 9.76 14.656 2.976 28.448 4.448 41.472 4.448zM713.6 195.264h41.472v-42.912h-41.472v42.912zM342.528 766.784c-1.76 0.032-3.584-0.576-4.992-1.888l-20.576-19.392-246.528-232c-3.424-3.232-4.992-7.904-4.096-12.256l9.408-46.912c0.192-0.896-0.8-1.632-1.6-1.184l-36.608 19.872c-3.744 2.048-8.672 1.312-11.968-1.792l-22.208-20.896c-3.104-2.912-3.328-7.552-0.544-10.368l233.952-233.952c2.624-2.624 7.072-2.368 9.984 0.544l20.896 20.832c3.104 3.104 4 7.712 2.144 11.264l-18.144 34.88c-0.384 0.768 0.384 1.728 1.248 1.536l45.056-9.28c4.16-0.864 8.608 0.576 11.84 3.808l124.16 124.16c18.176 65.504 54.848 120.8 104.032 161.568l0.512 0.416-4.576 4.992-227.648-225.696-66.944 68.864 231.584 225.696-22.848 24.992-233.056-225.728-28.096 28.928 234.72 225.696-74.272 81.184c-1.28 1.408-3.040 2.112-4.832 2.144zM529.152 839.808c-40.64-3.68-89.12-23.424-141.472-63.904l180.32-198.432c8.448 5.536 18.496 11.328 28.896 16.544l1.824 0.832c96.48 138.72 44.672 255.328-69.568 244.96z" />
<glyph unicode="&#xe90d;" glyph-name="bullets" d="M34.656 499.936l226.816-226.816c2.592-2.592 6.976-2.496 9.792 0.192l20.128 19.456c2.976 2.88 3.776 7.296 1.92 10.752l-18.144 33.92c-0.384 0.736 0.32 1.632 1.184 1.472l44.224-10.048c4.096-0.928 8.512 0.352 11.648 3.36l248.256 240.096c2.688 2.624 2.88 6.848 0.352 9.44l-28.64 29.728-224.352-216.128-66.464 67.2 226.080 216.096-23.328 24.224-226.72-216.096-27.584 27.904 227.424 216.096-74.88 77.728c-2.56 2.656-6.912 2.72-9.664 0.096l-255.072-240.064c-3.2-3.008-4.64-7.424-3.744-11.52l9.504-44.416c0.192-0.832-0.768-1.536-1.536-1.12l-34.88 19.168c-3.584 1.952-8.192 1.312-11.232-1.568l-20.672-19.456c-2.88-2.72-3.040-7.072-0.384-9.728zM402.176 819.808l194.656-202.72c169.28 198.848 14.208 363.904-194.656 202.72zM334.176 200.416l218.912-218.912c2.496-2.496 6.752-2.336 9.44 0.352l19.424 19.424c2.88 2.88 3.648 7.232 1.856 10.592l-17.536 32.992c-0.384 0.736 0.32 1.632 1.12 1.44l42.72-9.12c3.936-0.832 8.224 0.48 11.264 3.52l240 240c2.592 2.624 2.752 6.784 0.352 9.28l-27.648 28.704-216.896-216.064-64.16 64.896 218.528 216.096-22.528 23.392-219.136-216.096-26.624 26.944 219.808 216.096-72.288 75.072c-2.496 2.592-6.656 2.56-9.344-0.064l-246.464-240.096c-3.104-3.008-4.48-7.36-3.648-11.392l9.152-43.456c0.16-0.832-0.736-1.536-1.472-1.12l-33.696 18.24c-3.456 1.856-7.904 1.152-10.848-1.728l-19.968-19.456c-2.784-2.688-2.944-6.976-0.352-9.568zM689.28 520.8l188-195.808c163.744 198.24 13.92 357.728-188 195.808z" />
<glyph unicode="&#xe90e;" glyph-name="business" d="M944.992 7.008v566.976h-440.992v378.016h-440.992v-944.992h-63.008v-63.008h1008v63.008h-63.008zM125.984 888.992h125.984v-126.016h-125.984v126.016zM125.984 700h125.984v-126.016h-125.984v126.016zM125.984 511.008h125.984v-126.016h-125.984v126.016zM125.984 322.016h125.984v-126.016h-125.984v126.016zM378.016 7.008h-188.992v125.984h188.992v-125.984zM440.992 196h-126.016v126.016h126.016v-126.016zM440.992 384.992h-126.016v126.016h126.016v-126.016zM440.992 573.984h-126.016v126.016h126.016v-126.016zM440.992 763.008h-126.016v126.016h126.016v-126.016zM566.976 511.008h126.016v-126.016h-126.016v126.016zM566.976 322.016h126.016v-126.016h-126.016v126.016zM819.008 7.008h-188.992v125.984h188.992v-125.984zM881.984 196h-125.984v126.016h125.984v-126.016zM881.984 384.992h-125.984v126.016h125.984v-126.016zM881.984 384.992v0z" />
<glyph unicode="&#xe90f;" glyph-name="cart" d="M302.432 145.536c-55.36 0-100.896-45.28-100.896-100.64 0-55.616 45.536-100.896 100.896-100.896 55.392 0 100.608 45.28 100.608 100.896 0 55.36-45.216 100.64-100.608 100.64v0 0zM0 952v-100.928h100.928l181.312-382.912-70.624-121.056c-4.928-15.008-10.048-35.2-10.048-50.208 0-55.616 45.536-100.896 100.896-100.896h604.672v100.896h-584.48c-5.152 0-10.080 4.928-10.080 10.080v4.928l45.312 85.632h373.056c40.128 0 70.4 20.192 85.632 50.464l181.376 327.552c10.080 10.048 10.080 15.232 10.080 25.376 0 29.984-20.192 50.144-50.464 50.144h-745.952l-45.216 100.928h-166.4zM806.464 145.536c-55.36 0-100.896-45.28-100.896-100.64 0-55.616 45.536-100.896 100.896-100.896s100.64 45.28 100.64 100.896c0 55.36-45.28 100.64-100.64 100.64v0 0z" />
<glyph unicode="&#xe910;" glyph-name="certificate" horiz-adv-x="992" d="M931.552 927.648h-862.112c-38.304 0-69.44-31.104-69.44-69.344v-542.4c0-38.24 31.136-69.344 69.44-69.344h531.744c-8.256 21.088-13.344 44.288-14.624 68.768l-518.144 0.608 0.992 543.392 863.104-0.992v-542.4c0-0.576-0.48-0.992-1.024-0.992l-31.104 0.032c-1.312-24.352-6.336-47.424-14.56-68.384h45.664c38.304 0 69.472 31.104 69.472 69.344v542.4c0 38.24-31.136 69.344-69.472 69.344v0 0zM743.52 171.552c68.064 0 123.2 69.6 123.2 155.424s-55.136 155.424-123.2 155.424c-68.032 0-123.168-69.568-123.168-155.424s55.136-155.424 123.168-155.424v0 0zM165.44 706.72h305.12c18.912 0 34.208 15.264 34.208 34.176s-15.296 34.176-34.208 34.176h-305.12c-18.912 0-34.208-15.296-34.208-34.176s15.296-34.176 34.208-34.176v0 0zM847.008 587.072c0 18.912-15.328 34.208-34.24 34.208h-647.328c-18.912 0-34.208-15.296-34.208-34.208s15.296-34.144 34.208-34.144h647.328c18.912 0 34.24 15.264 34.24 34.144v0 0zM165.44 467.488c-18.912 0-34.208-15.296-34.208-34.176s15.296-34.176 34.208-34.176h305.12c18.912 0 34.208 15.296 34.208 34.176s-15.296 34.176-34.208 34.176h-305.12zM847.52 184.928c-0.128-0.16-47.52-54.752-113.696-47.040l82.272-166.208c0.992-2.080 3.104-3.36 5.376-3.36h0.448c2.4 0.192 4.48 1.792 5.248 4.128l20.768 63.648c0.512 1.504 1.6 2.784 3.040 3.52 0.832 0.384 1.76 0.576 2.624 0.576 0.672 0 1.344-0.096 2.016-0.352l63.2-22.144c0.672-0.224 1.312-0.32 1.984-0.32 1.696 0 3.328 0.704 4.48 2.016 1.632 1.824 1.952 4.448 0.896 6.592l-78.656 158.912zM639.904 184.608c-0.096 0.096-0.224 0.192-0.384 0.32l-78.656-158.88c-1.056-2.208-0.736-4.8 0.928-6.624 1.184-1.28 2.816-2.016 4.512-2.016 0.672 0 1.344 0.096 1.952 0.32l63.2 22.144c0.672 0.224 1.344 0.352 1.984 0.352 0.896 0 1.792-0.192 2.624-0.576 1.44-0.736 2.528-2.016 3.040-3.552l20.768-63.616c0.768-2.304 2.816-3.936 5.248-4.096h0.416c2.272 0 4.384 1.28 5.376 3.296l53.472 108-34.176 69.056c-0.128 0.064-29.92 12-50.336 35.872v0 0z" />
<glyph unicode="&#xe911;" glyph-name="chart-circle" d="M686.048 769.856c0-98.752-81.504-178.656-182.080-178.656s-182.048 79.872-182.048 178.656c0 98.752 81.504 178.784 182.048 178.784s182.080-80.032 182.080-178.784v0zM686.048 769.856v0zM686.048 125.984c0-98.752-81.504-178.656-182.080-178.656s-182.048 79.872-182.048 178.656c0 98.752 81.504 178.784 182.048 178.784s182.080-80.032 182.080-178.784v0zM686.048 125.984v0zM1008 447.936c0-98.752-81.504-178.656-182.080-178.656s-182.048 79.872-182.048 178.656c0 98.752 81.504 178.784 182.048 178.784s182.080-80.032 182.080-178.784v0zM1008 447.936v0zM364.128 447.936c0-98.752-81.504-178.656-182.080-178.656s-182.048 79.872-182.048 178.656c0 98.752 81.504 178.784 182.048 178.784s182.080-80.032 182.080-178.784v0zM364.128 447.936v0z" />
<glyph unicode="&#xe912;" glyph-name="chart-circular-hierarchical" horiz-adv-x="928" d="M360.256 746.944l-28.64-57.248 192-96 28.64 57.248-192 96zM589.952 523.936l-196.672-79.488-77.632-227.808 60.64-20.64 68.128 200.064 169.568 68.576-24 59.328zM361.92 766.304c0-98.176-81.024-177.568-180.96-177.568s-180.96 79.392-180.96 177.568c0 98.144 81.024 177.696 180.96 177.696s180.96-79.552 180.96-177.696v0zM361.92 766.304v0zM457.92 126.304c0-98.176-81.024-177.568-180.96-177.568s-180.96 79.392-180.96 177.568c0 98.144 81.024 177.696 180.96 177.696s180.96-79.552 180.96-177.696v0zM457.92 126.304v0zM905.92 574.304c0-98.176-81.024-177.568-180.96-177.568s-180.96 79.392-180.96 177.568c0 98.144 81.024 177.696 180.96 177.696s180.96-79.552 180.96-177.696v0zM905.92 574.304v0z" />
<glyph unicode="&#xe913;" glyph-name="chart-clustered" d="M474.080 670.432c0-68.256-56.32-123.456-125.824-123.456s-125.792 55.2-125.792 123.456c0 68.224 56.32 123.552 125.792 123.552s125.824-55.328 125.824-123.552v0zM474.080 670.432v0zM474.080 225.472c0-68.256-56.32-123.456-125.824-123.456s-125.792 55.2-125.792 123.456c0 68.224 56.32 123.552 125.792 123.552s125.824-55.328 125.824-123.552v0zM474.080 225.472v0zM696.544 447.936c0-68.256-56.32-123.456-125.824-123.456s-125.792 55.2-125.792 123.456c0 68.224 56.32 123.552 125.792 123.552s125.824-55.328 125.824-123.552v0zM696.544 447.936v0zM251.616 447.936c0-68.256-56.32-123.456-125.824-123.456s-125.792 55.2-125.792 123.456c0 68.224 56.32 123.552 125.792 123.552s125.824-55.328 125.824-123.552v0zM251.616 447.936v0zM939.52 403.104c-11.136-7.296-24-10.784-39.264-10.784-20.864 0-37.888 6.944-50.752 20.864-13.216 13.888-19.456 37.184-19.456 69.856 0 30.592 6.592 52.48 19.808 66.4s30.944 20.864 52.48 20.864c15.296 0 28.512-4.16 39.616-12.16 10.784-8 18.080-18.784 21.536-32.32l44.48 22.24c-5.92 18.080-14.592 32.32-26.080 42.048-19.808 16.352-45.184 24.672-76.48 24.672-41.728 0-71.968-12.16-91.072-35.808-19.456-23.648-28.864-56.992-28.864-100.096 0-40.672 9.376-72.64 28.512-95.936 18.784-23.648 48.32-35.104 87.936-35.104 27.104 0 49.696 5.216 67.776 16.352 17.728 11.136 30.592 27.808 38.24 50.4l-44.48 22.24c-4.864-15.296-12.864-26.752-24-33.728v0z" />
<glyph unicode="&#xe914;" glyph-name="chart-force-directed" d="M1008 769.856c0-98.752-81.504-178.656-182.080-178.656s-182.048 79.872-182.048 178.656c0 98.752 81.504 178.784 182.048 178.784s182.080-80.032 182.080-178.784v0zM1008 769.856v0zM364.128 769.856c0-98.752-81.504-178.656-182.080-178.656s-182.048 79.872-182.048 178.656c0 98.752 81.504 178.784 182.048 178.784s182.080-80.032 182.080-178.784v0zM364.128 769.856v0zM364.128 125.984c0-98.752-81.504-178.656-182.080-178.656s-182.048 79.872-182.048 178.656c0 98.752 81.504 178.784 182.048 178.784s182.080-80.032 182.080-178.784v0zM364.128 125.984v0zM338.592 679.968l-45.536-45.536 418.528-418.528 45.536 45.536-418.528 418.528zM798.752 592.832v-289.76h64.384v289.76h-64.384zM380.224 142.112v-64.384h257.568v64.384h-257.568zM1008 125.984c0-98.752-81.504-178.656-182.080-178.656s-182.048 79.872-182.048 178.656c0 98.752 81.504 178.784 182.048 178.784s182.080-80.032 182.080-178.784v0zM1008 125.984v0z" />
<glyph unicode="&#xe915;" glyph-name="chart-force-directed-2" d="M717.28 677.056c0-70.272-57.984-127.136-129.568-127.136s-129.568 56.864-129.568 127.136c0 70.272 57.984 127.232 129.568 127.232s129.568-56.96 129.568-127.232v0zM717.28 677.056v0zM259.104 677.056c0-70.272-57.984-127.136-129.568-127.136s-129.536 56.864-129.536 127.136c0 70.272 57.984 127.232 129.536 127.232s129.568-56.96 129.568-127.232v0zM259.104 677.056v0zM259.104 218.848c0-70.272-57.984-127.136-129.568-127.136s-129.536 56.864-129.536 127.136c0 70.272 57.984 127.232 129.536 127.232s129.568-56.96 129.568-127.232v0zM259.104 218.848v0zM240.96 613.056l-32.384-32.384 297.824-297.824 32.384 32.384-297.824 297.824zM568.384 551.040v-206.176h45.824v206.176h-45.824zM270.56 230.304v-45.824h183.264v45.824h-183.264zM717.28 218.848c0-70.272-57.984-127.136-129.568-127.136s-129.568 56.864-129.568 127.136c0 70.272 57.984 127.232 129.568 127.232s129.568-56.96 129.568-127.232v0zM717.28 218.848v0zM895.264 390.688c2.88 4.64 6.432 9.664 11.456 14.688s16.48 15.040 34.368 30.432c17.888 15.392 30.080 27.2 36.864 35.808 10.368 12.16 17.888 23.616 22.912 35.072 4.64 11.456 7.168 23.264 7.168 35.808 0 21.824-8.224 40.096-24 55.136-15.744 14.688-37.6 22.208-65.504 22.208-25.76 0-46.88-6.816-63.712-20.032-17.184-13.6-27.2-35.424-30.080-65.856l45.824-5.728c1.088 16.48 5.728 27.904 13.952 35.072s19.328 10.752 32.928 10.752c13.952 0 25.056-3.232 32.928-9.312 7.872-6.432 11.808-15.392 11.808-26.848 0-10.752-3.936-21.12-11.456-31.872-5.728-7.872-20.768-22.56-45.472-44.384-30.784-27.2-51.552-48.672-61.92-65.152s-16.48-33.664-18.624-51.552h183.264v45.824h-112.768z" />
<glyph unicode="&#xe916;" glyph-name="chart-hierarchical" horiz-adv-x="928" d="M276.128 428.288v39.392h375.68v-39.392h-375.68zM651.776 826.048v-39.392h-168.064v-677.376h168.064v-39.264h-207.52v756.032h207.52zM651.776 826.048v0zM928 89.728c0-76.064-61.824-137.728-138.112-137.728s-138.112 61.664-138.112 137.728c0 75.936 61.824 137.632 138.112 137.632s138.112-61.664 138.112-137.632v0zM928 89.728v0zM928 806.368c0-76.064-61.824-137.728-138.112-137.728s-138.112 61.664-138.112 137.728 61.824 137.632 138.112 137.632c76.288 0 138.112-61.568 138.112-137.632v0zM928 806.368v0zM928 448c0-76.064-61.824-137.6-138.112-137.6s-138.112 61.536-138.112 137.6c0 76.064 61.824 137.728 138.112 137.728s138.112-61.664 138.112-137.728v0zM928 448v0zM276.128 448c0-76.064-61.856-137.6-138.016-137.6-76.288 0-138.112 61.536-138.112 137.6s61.824 137.728 138.112 137.728c76.16 0 138.016-61.664 138.016-137.728v0zM276.128 448v0z" />
<glyph unicode="&#xe917;" glyph-name="chart-spring" horiz-adv-x="992" d="M352.928 759.968c0-95.712-79.008-173.152-176.48-173.152s-176.448 77.44-176.448 173.152c0 95.712 79.008 173.28 176.448 173.28s176.48-77.6 176.48-173.28v0zM352.928 759.968v0zM664.96 447.936c0-95.712-79.008-173.152-176.48-173.152s-176.448 77.44-176.448 173.152c0 95.712 79.008 173.28 176.448 173.28s176.48-77.6 176.48-173.28v0zM664.96 447.936v0zM976.992 759.968c0-95.712-79.008-173.152-176.48-173.152s-176.448 77.44-176.448 173.152c0 95.712 79.008 173.28 176.448 173.28s176.48-77.6 176.48-173.28v0zM976.992 759.968v0zM352.928 135.904c0-95.712-79.008-173.152-176.48-173.152s-176.448 77.44-176.448 173.152c0 95.712 79.008 173.28 176.448 173.28s176.48-77.6 176.48-173.28v0zM352.928 135.904v0zM976.992 135.904c0-95.712-79.008-173.152-176.48-173.152s-176.448 77.44-176.448 173.152c0 95.712 79.008 173.28 176.448 173.28s176.48-77.6 176.48-173.28v0zM976.992 135.904v0z" />
<glyph unicode="&#xe918;" glyph-name="check-square" d="M274.368 884.736c-130.976 0-237.184-106.208-237.184-237.184v-474.368c0-130.976 106.208-237.184 237.184-237.184h537.632c130.976 0 237.184 106.208 237.184 237.184v474.368c0 130.976-106.208 237.184-237.184 237.184h-537.632zM796.192 695.008v-252.992l-316.256-316.256-189.76 189.76v252.992l189.76-189.76 316.256 316.256z" />
<glyph unicode="&#xe919;" glyph-name="chevron-minus" d="M0 952v-1008h1008v1008h-1008zM59.296 892.704h889.408v-889.408h-889.408v889.408zM219.328 507.296v-118.592h569.312v118.592h-569.312z" />
<glyph unicode="&#xe91a;" glyph-name="chevron-plus" d="M0 952v-1008h1008v1008h-1008zM59.296 892.704h889.408v-889.408h-889.408v889.408zM219.328 507.296v-118.592h569.312v118.592h-569.312zM444.704 732.672v-569.312h118.592v569.312h-118.592z" />
<glyph unicode="&#xe91b;" glyph-name="coin" horiz-adv-x="992" d="M502.496 950.496c-277.504 0-502.496-224.992-502.496-502.496s224.992-502.496 502.496-502.496c277.568 0 502.496 224.992 502.496 502.496s-224.928 502.496-502.496 502.496v0 0zM639.552 253.984c-24.736-27.712-60.416-44.032-107.104-48.928v-71.104h-59.52v70.72c-77.856 7.968-125.984 53.248-144.576 135.68l92 24c8.544-51.84 36.768-77.728 84.672-77.728 22.368 0 38.944 5.536 49.504 16.608s15.808 24.48 15.808 40.16c0 16.256-5.28 28.608-15.808 36.928-10.56 8.416-34.048 19.008-70.432 31.904-32.704 11.36-58.272 22.528-76.672 33.696-18.4 11.040-33.376 26.56-44.832 46.496-11.488 20-17.248 43.328-17.248 69.792 0 34.784 10.304 66.144 30.816 93.984 20.48 27.776 52.736 44.768 96.8 50.976v54.88h59.52v-54.912c66.496-7.968 109.568-45.568 129.12-112.864l-81.952-33.6c-16.032 46.112-40.672 69.184-74.176 69.184-16.8 0-30.304-5.152-40.416-15.456-10.176-10.304-15.264-22.816-15.264-37.472 0-14.976 4.896-26.432 14.72-34.464 9.76-7.968 30.816-17.856 62.944-29.696 35.328-12.896 63.072-25.088 83.104-36.544 20.128-11.488 36.128-27.36 48.16-47.552 11.968-20.256 17.952-43.872 17.952-70.912 0-41.536-12.384-76.128-37.12-103.776v0 0z" />
<glyph unicode="&#xe91c;" glyph-name="coins" horiz-adv-x="992" d="M258.048 835.392l27.296-12.128c-18.944-11.776-27.456-23.328-25.312-34.304 2.208-11.36 12.416-21.12 30.336-29.088 16.512-7.328 35.936-11.296 59.424-12.128 23.168-0.8 58.912 5.824 106.272 19.744 11.776 3.456 20.992 5.504 27.392 5.984 6.272 0.512 11.328-0.192 15.904-2.272 3.168-1.376 12.8-5.664-11.424-16.416-15.744-7.008-32.032-9.856-48.384-8.544-12.96 1.024-26.112-1.408-33.536-6.24l-14.56-9.408c-6.368-4.128-7.648-9.376-3.456-14.016s13.344-8 24.32-9.024c35.936-3.264 71.424 0.928 105.504 12.448l36.832-16.384c13.088-5.792 34.304-5.792 47.392 0s13.088 15.232 0 21.056l-38.112 16.928c16.736 10.816 25.568 21.76 26.176 32.576 0.736 12.672-9.312 23.712-29.856 32.864-14.656 6.528-31.392 10.528-49.696 11.968s-35.648 0.64-51.52-2.4c-15.68-2.976-39.52-9.056-70.72-17.92-13.6-3.84-22.816-5.76-27.424-5.792-4.416-0.032-8.384 0.672-11.424 2.048-10.88 4.8-1.728 10.912 7.84 15.168 11.904 5.28 24.576 7.776 37.728 7.424s25.568 2.784 31.68 7.968l8.448 7.168c5.344 4.544 5.056 9.952-0.736 14.4s-16.288 7.2-27.808 7.392c-24.992 0.352-49.088-3.040-73.312-10.336l-27.776 12.352c-13.088 5.824-34.304 5.824-47.392 0s-13.088-15.232 0-21.056v0 0zM820.32 685.088c2.208 9.376 3.36 18.944 3.36 28.64v30.624c0 61.184-44.896 117.152-126.432 157.536-75.584 37.472-161.376 58.080-267.2 58.080s-205.76-20.608-281.344-58.080c-81.536-40.384-126.432-96.352-126.432-157.536v-30.624c0-60.352 43.68-115.552 123.072-155.84-2.208-9.312-3.648-20.96-3.648-28.48v-5.6c-77.088-40.096-119.456-94.56-119.456-153.984v-30.624c0-41.248 14.144-80.128 52.416-113.472-5.184-14.080-7.904-28.608-7.904-43.488v-30.624c0-61.184 44.928-117.152 126.432-157.536 75.584-37.472 181.824-58.080 287.648-58.080s185.28 20.64 260.864 58.080c81.536 40.384 126.432 96.352 126.432 157.536v30.624c0 41.248-20.416 80.128-58.688 113.472 5.184 14.080 28.288 28.64 28.288 43.488v5.6c77.088 40.096 119.456 94.592 119.456 154.016v30.624c0 60.256-43.584 115.456-122.784 155.712h-14.112zM79.264 770.24c11.808 30.56 43.968 60.224 92.16 84.096 68.64 34.016 160.48 52.736 258.592 52.736s189.952-18.752 258.592-52.736c48.192-23.872 80.384-53.568 92.192-84.096-41.728-73.856-186.688-127.68-350.784-127.68s-309.056 53.824-350.752 127.68v0 0zM79.264 395.712c9.6 24.832 32.704 49.088 66.912 70.112 13.184-48.16 55.328-91.584 121.952-124.608 75.584-37.472 175.488-58.080 281.344-58.080 10.336 0 20.608 0.256 30.816 0.64-46.208-10.112-97.216-15.776-150.272-15.776-164.096 0.032-309.056 53.856-350.784 127.712v0 0zM831.648 208.128c-41.728-73.824-186.656-127.68-350.752-127.68-142.56 0-270.592 40.672-329.12 99.744 75.2-36.512 173.824-56.608 278.272-56.608 105.824 0 205.76 20.608 281.312 58.080 39.168 19.392 69.856 42.4 91.2 67.84 13.792-13.28 23.648-27.232 29.12-41.344v0 0zM549.472 427.584c-143.264 0-271.968 41.056-330.080 100.608 62.784-19.584 135.168-30.112 210.624-30.112 105.824 0 205.76 20.608 281.312 58.080 45.76 22.688 80 50.272 101.216 80.928 45.664-23.456 76.224-52.192 87.68-81.792-41.728-73.824-186.688-127.68-350.784-127.68v0 0z" />
<glyph unicode="&#xe91d;" glyph-name="condo" horiz-adv-x="992" d="M985.664 93.216h-12.416c-6.816 0-6.816 8.064-6.816 8.064v562.496c0 14.176-11.616 25.76-25.76 25.76h-199.488c-7.168 0-6.784 6.784-6.784 6.784v108.448c0 1.088 0.608 2.272 4.16 2.272 7.872 0 14.336 6.432 14.336 14.304v25.408c0 7.872-6.432 14.304-14.336 14.304h-463.168c-7.872 0-14.304-6.432-14.304-14.304v-25.408c0-7.872 6.432-14.304 14.304-14.304 4.16 0 4.192-3.712 4.192-4.16v-104.064c0 0 0.704-9.28-5.376-9.28h-215.424c-14.176 0-25.76-11.584-25.76-25.728v-564.32c0-5.376-2.912-6.24-8.8-6.24h-9.856c-7.872 0-14.336-6.432-14.336-14.304v-29.664c0-7.872 6.464-14.304 14.336-14.304h971.36c7.872 0 14.336 6.432 14.336 14.304v29.664c0 7.872-6.464 14.304-14.336 14.304v0 0zM561.728 566.208h85.76c6.272 0 11.456-5.152 11.456-11.456v-85.6c0-6.304-5.184-11.424-11.456-11.424h-85.76c-6.304 0-11.456 5.152-11.456 11.424v85.6c0 6.304 5.152 11.456 11.456 11.456v0 0zM550.272 619.296v85.6c0 6.272 5.152 11.456 11.456 11.456h85.76c6.272 0 11.456-5.152 11.456-11.456v-85.6c0-6.304-5.184-11.456-11.456-11.456h-85.76c-6.304 0-11.456 5.152-11.456 11.456v0 0zM561.728 421.312h85.76c6.272 0 11.456-5.152 11.456-11.424v-85.6c0-6.272-5.184-11.456-11.456-11.456h-85.76c-6.304 0-11.456 5.152-11.456 11.456v85.6c0 6.272 5.152 11.424 11.456 11.424v0 0zM574.464 249.216c6.272 0 11.456-5.152 11.456-11.456v-132.576c0-6.272-5.184-11.424-11.456-11.424h-132.768c-6.304 0-11.456 5.152-11.456 11.424v132.576c0 6.304 5.152 11.456 11.456 11.456h132.768zM463.84 619.296c0-6.304-5.152-11.456-11.456-11.456h-85.728c-6.304 0-11.456 5.152-11.456 11.456v85.6c0 6.272 5.152 11.456 11.456 11.456h85.728c6.304 0 11.456-5.152 11.456-11.456v-85.6zM366.656 566.208h85.728c6.304 0 11.456-5.152 11.456-11.456v-85.6c0-6.304-5.152-11.424-11.456-11.424h-85.728c-6.304 0-11.456 5.152-11.456 11.424v85.6c0 6.304 5.152 11.456 11.456 11.456v0 0zM366.656 421.312h85.728c6.304 0 11.456-5.152 11.456-11.424v-85.6c0-6.272-5.152-11.456-11.456-11.456h-85.728c-6.304 0-11.456 5.152-11.456 11.456v85.6c0 6.272 5.152 11.424 11.456 11.424v0 0zM768.16 557.408c0 6.272 5.152 11.424 11.456 11.424h85.728c6.304 0 11.488-5.152 11.488-11.424v-85.6c0-6.304-5.152-11.424-11.488-11.424h-85.728c-6.304 0-11.456 5.152-11.456 11.424v85.6zM768.16 407.232c0 6.304 5.152 11.456 11.456 11.456h85.728c6.304 0 11.488-5.152 11.488-11.456v-85.6c0-6.304-5.152-11.424-11.488-11.424h-85.728c-6.304 0-11.456 5.152-11.456 11.424v85.6zM768.16 262.368c0 6.304 5.152 11.456 11.456 11.456h85.728c6.304 0 11.488-5.152 11.488-11.456v-85.6c0-6.272-5.152-11.424-11.488-11.424h-85.728c-6.304 0-11.456 5.152-11.456 11.424v85.6zM122.624 557.408c0 6.272 5.184 11.424 11.488 11.424h85.728c6.304 0 11.456-5.152 11.456-11.424v-85.6c0-6.304-5.152-11.424-11.456-11.424h-85.728c-6.304 0-11.488 5.152-11.488 11.424v85.6zM122.624 407.232c0 6.304 5.184 11.456 11.488 11.456h85.728c6.304 0 11.456-5.152 11.456-11.456v-85.6c0-6.304-5.152-11.424-11.456-11.424h-85.728c-6.304 0-11.488 5.152-11.488 11.424v85.6zM122.624 262.368c0 6.304 5.184 11.456 11.488 11.456h85.728c6.304 0 11.456-5.152 11.456-11.456v-85.6c0-6.272-5.152-11.424-11.456-11.424h-85.728c-6.304 0-11.488 5.152-11.488 11.424v85.6z" />
<glyph unicode="&#xe91e;" glyph-name="criminal" horiz-adv-x="992" d="M852.32 90.72c-48.512 76.512-123.744 133.824-212.416 157.728-55.872-53.152-130.624-86.016-212.928-86.016-82.24 0-156.96 32.864-212.864 86.016-80.704-21.792-150.4-71.296-198.912-137.728 64.032-34.624 217.536-103.168 429.024-103.168 135.36 0 272.256 27.968 408.096 83.136v0 0zM441.056 576.768c0-39.744 49.472-72.096 110.272-72.096 60.736 0 110.176 32.416 110.176 72.096 0 39.776-49.472 72.16-110.176 72.16-60.864 0-110.272-32.384-110.272-72.16v0 0zM631.872 576.768c0-19.744-34.432-41.92-80.576-41.92-46.208 0-80.736 22.176-80.736 41.92 0 19.808 34.528 41.984 80.736 41.984 46.144 0 80.576-22.176 80.576-41.984v0 0zM302.656 648.96c-60.8 0-110.24-32.384-110.24-72.16 0-39.68 49.44-72.096 110.24-72.096 43.232 0 82.752 16.672 100.416 42.432l2.688 3.904v51.616l-2.688 3.904c-17.696 25.76-57.184 42.432-100.416 42.432v0 0zM376.224 561.024c-11.616-13.184-38.272-26.144-73.568-26.144-46.208 0-80.672 22.176-80.672 41.92 0 19.808 34.464 41.984 80.672 41.984 35.296 0 61.952-12.96 73.568-26.144v-31.584zM426.976 217.088c181.824 0 329.12 150.336 329.12 335.712 0 29.824-3.84 58.752-11.040 86.368l-60.448-86.304c-14.592-43.296-67.872-74.592-133.376-74.592-41.504 0-78.048 12.64-103.104 32.928h-42.464c-24.992-20.256-61.6-32.928-103.040-32.928-65.12 0-118.144 30.912-133.152 73.792l-60.64 86.688c-7.168-27.488-11.008-56.256-11.008-85.92 0-185.376 147.392-335.712 329.12-335.712v0 0zM212.32 651.584c23.968 14.784 55.36 23.808 90.336 23.808 39.040 0 73.792-11.2 98.56-29.312h51.488c24.768 18.112 59.488 29.312 98.56 29.312 34.72 0 65.984-8.832 89.984-23.552l-0.064 0.064 80.352 39.616c4.832 0.896 9.952 1.76 15.296 2.72 39.424-44.576 111.84-127.584 161.088-189.568 49.824-62.752 13.504 126.304-67.52 205.472 40.096 6.56 81.44 12.896 116.608 17.312 92.416 11.552-167.872 104.512-256.032 25.568-59.936 82.176-155.808 135.424-263.968 135.424-132.512 0-246.656-79.904-298.784-195.008l84.192-41.536-0.064-0.288z" />
<glyph unicode="&#xe91f;" glyph-name="crosshair" d="M504 631.232c-101.248 0-183.232-81.984-183.232-183.264s81.984-183.232 183.232-183.232 183.232 81.984 183.232 183.232c0 101.28-81.984 183.264-183.232 183.264v0 0zM913.6 493.856c-21.056 191.072-172.704 342.72-363.744 363.712v94.4h-91.648v-94.4c-191.072-20.992-342.72-172.672-363.808-363.712h-94.368v-91.712h94.4c21.088-191.072 172.736-342.72 363.808-363.712v-94.432h91.616v94.432c191.072 20.992 342.72 172.672 363.776 363.712h94.368v91.712h-94.4zM504 127.232c-177.312 0-320.768 143.424-320.768 320.768s143.424 320.768 320.768 320.768c177.312 0 320.768-143.424 320.768-320.768s-143.424-320.736-320.768-320.736v0 0z" />
<glyph unicode="&#xe920;" glyph-name="deceased-square" horiz-adv-x="992" d="M233.44 914.88c-128.928 0-233.44-104.512-233.44-233.44v-466.88c0-128.928 104.512-233.44 233.44-233.44h529.12c128.928 0 233.44 104.512 233.44 233.44v466.88c0 128.928-104.512 233.44-233.44 233.44h-529.12zM312.224 728.128h134.24c46.688 0 85.6-5.824 118.656-17.504 32.096-11.68 59.328-29.184 81.696-52.512s39.872-51.552 51.552-84.608c11.68-34.048 17.504-72.96 17.504-117.696 0-51.552-6.816-95.328-19.456-131.296-12.64-36.96-30.144-66.144-53.504-89.472s-52.512-40.864-85.6-51.552c-34.048-10.688-73.92-15.552-120.608-15.552h-124.512c-9.728 0-17.504 1.952-23.328 7.776s-8.768 14.592-8.768 28.192v488.288c0 12.64 2.912 21.408 8.768 27.232s13.632 8.768 23.328 8.768zM404.64 665.888v-435.744h47.648c24.32 0 44.736 3.904 62.24 13.632 16.544 9.728 31.136 23.328 42.784 41.824s19.456 41.824 25.28 70.048c5.824 27.232 8.768 60.32 8.768 97.28 0 29.184-2.912 57.376-7.776 83.648s-12.64 48.64-23.36 68.096c-11.68 19.456-25.28 34.048-42.784 44.736s-39.872 16.544-67.104 16.544h-45.728z" />
<glyph unicode="&#xe921;" glyph-name="disorderly-conduct" horiz-adv-x="992" d="M0 180.832c26.656-3.84 65.952-7.712 124.192-7.712 110.944 0 201.728 21.568 252.544 67.008 43.104 43.392 74.208 115.84 74.208 220.864 0 96.864-29.12 164.416-75.52 205.44-46.144 38.368-115.904 56.416-223.488 56.416-61.408 0-112.64-3.936-151.904-11.008v-531.008zM107.36 626.24c10.912 2.432 29.408 4.928 57.984 4.928 110.112 0 178.88-60.288 178.208-174.24 0-131.072-75.648-192.928-191.648-192.096-15.968 0-33.632 0-44.544 2.432v358.976zM955.136 284.896c-24.064-9.824-64.96-17.984-101.888-17.984-109.088 0-173.248 69.472-173.248 179.808 0 122.592 75.392 182.336 172.448 182.336 43.328 0 77.792-9.888 102.688-20.512l24.864 93.536c-21.664 10.656-69.792 22.816-133.152 22.816-163.616 0-274.208-97.6-274.208-285.568 0-156.928 80.512-268.352 262.176-268.352 65.76 0 116.288 11.424 138.752 22.048l-18.432 91.808z" />
<glyph unicode="&#xe922;" glyph-name="document" horiz-adv-x="896" d="M841.184 767.968h-194.112v192l194.112-192zM905.856 703.968v-768h-905.856v1024h582.336v-256h323.52zM129.408 703.968h388.224v64h-388.224v-64zM776.448 191.968h-647.040v-64h647.040v64zM776.448 383.968h-647.040v-64h647.040v64zM776.448 575.968h-647.040v-64h647.040v64z" />
<glyph unicode="&#xe923;" glyph-name="documents" horiz-adv-x="896" d="M168.128 510.912c-28.192 0-28.192-42.56 0-42.56h336.416c28.16 0 28.16 42.56 0 42.56h-336.416zM504.544 410.4h-336.416c-28.192 0-28.192-42.432 0-42.432h336.416c28.16 0 28.16 42.432 0 42.432v0 0zM504.544 317.408h-336.416c-28.192 0-28.192-42.464 0-42.464h336.416c28.16 0 28.16 42.464 0 42.464v0 0zM504.544 217.024h-336.416c-28.192 0-28.192-42.464 0-42.464h336.416c28.16 0 28.16 42.464 0 42.464v0 0zM498.080 122.272h-336.416c-28.16 0-28.16-42.464 0-42.464h336.416c28.16 0 28.16 42.464 0 42.464v0 0zM22.272 728.128v-792.16h628.096v682.272l-116.64 109.92h-511.456zM596.128-11.264h-519.488v686.72h429.056v-83.68h90.432v-603.040zM128.48 849.536v-91.712h54.336v39.008h429.056v-83.68h90.432v-603.008h-23.872v-52.8h78.144v682.368l-116.736 109.824h-511.36zM751.456 959.968h-511.392v-91.68h54.272v38.912h429.152v-83.712h90.336v-602.912h-23.776v-52.8h78.144v682.272l-116.736 109.92z" />
<glyph unicode="&#xe924;" glyph-name="domestic-dispute" d="M0 170.56c26.304-4 65.088-8 122.528-8 109.472 0 199.040 22.4 249.216 69.568 42.528 45.088 73.216 120.32 73.216 229.376 0 100.608-28.736 170.752-74.528 213.344-45.536 39.872-114.368 58.592-220.512 58.592-60.608 0-111.136-4.096-149.888-11.392v-551.456zM105.952 633.12c10.784 2.56 29.024 5.12 57.216 5.12 108.64 0 176.512-62.624 175.84-180.96 0-136.128-74.656-200.352-189.12-199.52-15.776 0-33.184 0-43.968 2.528v372.8zM565.024 170.56c26.304-4 65.088-8 122.528-8 109.472 0 199.040 22.4 249.216 69.568 42.528 45.088 73.216 120.32 73.216 229.376 0 100.608-28.736 170.752-74.528 213.344-45.536 39.872-114.368 58.592-220.544 58.592-60.608 0-111.136-4.096-149.888-11.392v-551.456zM670.976 633.12c10.784 2.56 29.024 5.12 57.216 5.12 108.64 0 176.512-62.624 175.84-180.96 0-136.128-74.656-200.352-189.12-199.52-15.776 0-33.184 0-43.968 2.528v372.8z" />
<glyph unicode="&#xe925;" glyph-name="driver-license" horiz-adv-x="992" d="M398.624 283.68h-285.6c0 56.48 38.080 104.608 91.744 123.584-11.488 11.424-19.84 28.672-24.032 54.752-5.6-1.056-14.112 5.056-16.704 14.432-2.624 9.504-4.32 24.928 1.312 26.336 1.696 0.544 3.392 0.16 5.12-0.608v26.464c0 41.664-10.080 66.112 60 73.088l-0.512 0.128c0 0 55.232 5.184 69.856 17.856 0 0 0.352-10.624 6.24-22.432 32.352-12.032 36.416-39.872 35.52-68.64v-26.592c1.664 0.896 3.52 1.28 5.056 0.736 5.6-1.472 2.624-17.344 0.128-26.976-2.624-9.248-9.792-14.816-15.264-13.76-4.032-24.832-13.056-42.72-25.6-54.464 54.144-18.88 92.704-67.136 92.704-123.872v0 0zM998.016 763.584v-631.136h-998.016v631.136h998.016zM944.48 711.68h-890.976v-527.488h890.976v527.488zM873.216 607.936h-396.512v-51.808h396.512v51.808zM873.216 473.92h-396.512v-51.968h396.512v51.968zM873.216 339.904h-396.512v-51.968h396.512v51.968z" />
<glyph unicode="&#xe926;" glyph-name="drugs" horiz-adv-x="992" d="M1002.592 216.32c-28.128-78.784-199.136-139.392-390.208-139.392-191.264 0-362.080 60.608-390.4 139.392-4.32 12.128-4.032 12.416-4.032-0.48v-87.776c0-89.664 185.024-162.336 394.432-162.336 209.312 0 394.336 72.64 394.336 162.336v87.776c0 12.896 0.288 12.608-4.128 0.48v0 0zM398.272 129.216c61.312-16.832 134.56-26.752 213.44-26.752 214.784 0 388.768 72.736 388.768 162.336 0 38.048-31.584 72.864-83.968 100.576-11.424 6.016-30.624 5.824-42.336 0.384l-477.056-219.968c-11.776-5.344-11.328-12.992 1.152-16.544v0 0zM222.944 264.8c0-34.976 26.784-67.392 72.064-93.984 11.136-6.496 30.112-6.688 41.92-1.248l474.688 218.816c11.712 5.44 11.136 12.8-1.344 15.968-58.144 14.432-125.888 22.752-198.56 22.752-214.688 0-388.768-72.64-388.768-162.336v0 0zM399.776 432.192c67.68 17.216 147.040 27.168 231.968 27.168 14.4 0 28.608-0.288 42.624-0.864 10.848-0.48 22.656 7.264 25.696 17.664 9.408 31.648 14.592 65.12 14.592 99.936 0 180.672-135.328 329.632-310.464 352.48-12.864 1.632-23.424-8.224-23.424-21.12v-460.736c0-10.88 8.448-17.088 18.976-14.496v0 0zM315.552 405.216c10.080 4.096 18.336 15.872 18.336 26.592v475.616c0 12.896-10.56 22.848-23.296 21.12-175.264-22.848-310.592-171.712-310.592-352.48 0-125.056 64.896-234.592 162.848-297.984 9.12-5.92 16.704-9.376 16.608-8.416-0.096 0.576-0.096 1.152-0.096 1.728 0 52.576 52.32 100 136.192 133.856v0 0z" />
<glyph unicode="&#xe927;" glyph-name="education" d="M858.88 357.888l-26.080 148.032-318.944-187.264-312.896 187.264-25.952-159.808c0 0.16 0.352 0.352 0.544 0.704-3.776-6.144-5.728-12.512-5.728-18.816 0-56.512 240.864-230.56 320.96-230.56 80.256 0 373.28 173.888 373.28 230.56 0 5.984-1.984 11.968-5.184 29.92v0 0zM516.32 351.712l-490.24 292.544 491.52 154.368 490.4-152.064-491.68-294.816zM29.344 618.368l-29.344-320.512 29.344-96.096 27.296 96.096-27.296 320.512z" />
<glyph unicode="&#xe928;" glyph-name="employee" d="M811.776 960c-101.184 0-183.488-81.408-183.488-181.472s82.304-181.472 183.488-181.472c101.184 0 183.488 81.408 183.488 181.472s-82.304 181.472-183.488 181.472v0 0zM811.776 637.76c-78.496 0-142.336 63.136-142.336 140.768s63.84 140.768 142.336 140.768c78.496 0 142.336-63.168 142.336-140.768s-63.872-140.768-142.336-140.768v0 0zM811.648 892.192c-10.368 0-18.752-8.288-18.752-18.528v-76.576h-48.704c-10.336 0-18.72-8.32-18.72-18.528s8.384-18.528 18.72-18.528h67.456c10.368 0 18.752 8.32 18.752 18.528v95.104c0 10.24-8.384 18.528-18.752 18.528v0 0zM167.648 768.96c11.2-19.2 25.152-37.248 42.688-51.264 13.856-11.072 30.144-19.584 47.84-22.464 0 0 25.44-4.32 49.184 7.68 13.376 6.752 26.432 18.848 34.048 33.088 8.288 15.52 11.232 33.312 10.592 50.688-0.8 21.92-6.976 43.456-15.744 63.488-7.712 17.6-17.312 35.072-31.904 48.064-11.84 10.56-26.56 17.088-42.528 18.016-19.36 1.12-38.464-5.248-55.552-13.664-17.504-8.64-34.624-20.032-45.888-36.224-9.088-13.056-13.12-28.608-11.872-44.416 1.504-18.976 9.632-36.736 19.136-53.024v0 0zM815.584 511.296c-6.272 10.912-20.32 14.72-31.36 8.512l-58.144-32.736-7.584 13.152c-6.176 10.72-17.632 16.608-29.312 16.32-1.056 3.68-2.528 7.328-4.576 10.784-2.4 4.096-38.56 60.32-72.928 103.808-63.264 80.16-190.4 81.312-204.704 81.312-3.808 0-33.024-1.216-41.6-1.408-2.336-0.064-4.576-0.064-6.72-0.064l190.144 66.848c1.184 0.416 2.112 1.376 2.4 2.592l10.144 38.816c0.256 1.024 0.064 2.080-0.48 2.944s-1.504 1.472-2.528 1.664l-52.768 9.056c-1.024 0.16-2.080-0.064-2.912-0.672l-164.224-119.68c-2.304 0.384-3.872 0.8-4.608 1.12s-1.6 0.288-2.304-0.128c-0.704-0.416-1.152-1.152-1.248-1.952l-2.944-35.968-0.32-2.496c-0.096-0.768-0.576-1.472-1.248-1.856l-6.272-3.552c-0.384-0.224-0.832-0.352-1.248-0.352-0.576 0-1.12 0.192-1.6 0.544l-26.048 21.536c-0.576 0.48-1.344 0.672-2.112 0.512s-1.376-0.608-1.728-1.28c-0.16-0.288-14.688-27.808-43.84-60.256-0.128-0.16-0.192-0.32-0.288-0.48-37.504-41.376-98.784-90.752-185.472-105.312-25.952-4.384-44.448-27.2-40.928-53.024 3.2-23.712 23.68-40.896 47.2-40.896 2.112 0 4.256 0.128 6.4 0.416 89.376 11.872 155.808 57.44 197.632 96.32l47.2-184.672c1.92-6.368 4.48-12.448 7.584-18.176l-102.688-124.352c-8.64-10.464-13.376-23.552-13.376-37.088v-166.592c0-32.352 26.528-58.592 59.264-58.592s59.232 26.24 59.232 58.592v145.696l103.968 125.92c5.888 0.32 11.84 1.088 17.76 2.304l88.736-158.208c6.208-11.072 15.904-19.872 27.584-25.056l124.736-55.392c8.512-3.744 17.92-7.84 30.304-7.84 3.52 0 7.296 0.32 11.36 1.088 32.128 6.112 53.152 36.864 46.944 68.64-3.936 20.224-17.952 35.968-35.904 43.2-8.896 3.84-58.464 26.048-111.040 49.28l-96.224 171.552c1.6 12.512 0.672 25.536-3.2 38.432l-56.256 214.976c24.416-6.944 48.896-18.24 63.008-36.128 30.272-38.368 64.992-92.064 65.568-93.024 1.984-3.424 4.384-6.464 7.008-9.152-5.792-9.664-6.336-22.080-0.32-32.512l7.552-13.12-58.144-32.768c-11.040-6.208-14.88-20.096-8.608-30.976l89.12-154.784c6.272-10.912 20.32-14.72 31.36-8.512l226.048 127.328c11.040 6.208 14.88 20.096 8.608 31.008l-89.12 154.784zM641.6 439.488l-7.552 13.12c-0.928 1.6-0.416 3.584 1.056 4.64 2.72-0.48 5.504-0.736 8.288-0.736 8.096 0 16.32 2.048 23.84 6.368 9.952 5.696 17.024 14.4 20.736 24.288l0.288 0.16c1.76 0.992 3.968 0.384 4.96-1.344l7.552-13.12-59.2-33.344z" />
<glyph unicode="&#xe929;" glyph-name="explosives" horiz-adv-x="992" d="M985.76 504.992c-24.992 30.464-34.624 71.712-25.76 110.368l12.032 52.608c19.008 82.976-31.712 166.56-113.024 186.336-48.096 11.712-98.976-1.216-136.064-34.528l-35.168-31.584-9.28 9.472c-23.68 24.128-62.048 24.128-85.728 0l-64.96-66.208c-128.256 63.168-286.944 40.544-393.344-67.936-134.496-137.088-134.496-359.36 0-496.448s352.544-137.088 487.040 0c106.4 108.448 128.608 270.208 66.624 400.96l64.96 66.208c23.648 24.128 23.648 63.264 0 87.392l-8.416 8.544 31.36 28.192c17.536 15.744 41.568 21.856 64.32 16.32 38.432-9.344 62.4-48.864 53.408-88.096l-12.032-52.576c-14.56-63.584 1.28-131.424 42.336-181.504 7.968-9.696 19.36-14.688 30.848-14.688 9.088 0 18.24 3.104 25.76 9.536 16.992 14.496 19.264 40.32 5.024 57.664v0 0zM378.016 585.216c-91.904 0-166.688-76.224-166.688-169.92 0-22.624-17.984-40.928-40.16-40.928s-40.192 18.336-40.192 40.928c0 138.848 110.816 251.776 247.040 251.776 22.176 0 40.16-18.336 40.16-40.928s-17.984-40.96-40.16-40.96v0 0z" />
<glyph unicode="&#xe92a;" glyph-name="filter" horiz-adv-x="992" d="M393.824-45.504c-4.896 2.080-12.96 8.928-17.888 15.232-8.992 11.424-8.992 12.064-8.992 279.36v267.904l-168.864 168.416c-92.864 92.64-174.368 175.808-181.088 184.864-16.96 28.16-4.544 73.024 16.416 74.112h936.576c27.744 0 34.048-47.68 21.248-67.872-4.032-6.080-85.504-88.224-181.056-182.56l-173.696-171.552v-363.040l-102.144-102.4c-87.712-87.936-104.224-102.656-116.864-104.32-8.096-1.056-18.72-0.224-23.616 1.856z" />
<glyph unicode="&#xe92b;" glyph-name="filter-off" horiz-adv-x="896" d="M425.6-62.144c-3.872 1.664-10.24 7.072-14.144 12.032-7.104 9.024-7.104 9.504-7.104 222.464v213.44l331.232 331.168h73.568c73.152 0 73.6-0.064 82.24-8.032 10.112-9.376 13.92-21.504 10.752-34.4-1.472-6.080-49.536-56.544-143.488-150.656l-141.248-141.504-0.032-139.744c-0.032-127.456-0.544-140.48-5.824-148.064-3.2-4.576-39.648-41.696-81.056-82.528-63.072-62.208-77.056-74.432-86.528-75.68-6.208-0.8-14.464-0.128-18.336 1.504zM34.88 219.328l-34.88 35.008 266.176 266.24-70.368 70.752c-38.688 38.912-72 74.016-74.048 78.016-7.776 15.328-0.224 36.96 15.328 44.032 5.344 2.432 59.616 3.616 166.688 3.616h158.752l243.104 243.040 69.76-70.016-705.664-705.664-34.88 35.008z" />
<glyph unicode="&#xe92c;" glyph-name="fire" horiz-adv-x="864" d="M245.344-63.008c-66.88 141.888-31.264 223.168 20.16 299.744 56.32 83.872 70.816 166.912 70.816 166.912s44.256-58.656 26.56-150.368c78.208 88.704 92.96 230.048 81.152 284.192 176.768-125.888 252.32-398.464 150.496-600.48 541.504 312.224 134.688 779.424 63.872 832.032 23.616-52.64 28.096-141.696-19.616-184.928-80.736 311.968-280.352 375.904-280.352 375.904 23.616-160.896-85.6-336.832-190.848-468.256-3.712 64.16-7.616 108.416-40.736 169.824-7.424-116.544-94.848-211.552-118.496-328.32-32.064-158.144 24.032-273.92 236.992-396.224v0 0z" />
<glyph unicode="&#xe92d;" glyph-name="fish" horiz-adv-x="992" d="M978.624 842.976c-85.632 86.784-246.656 86.784-399.264 7.2-5.472-75.744 22.528-156.864 83.296-218.56 47.776-48.32 107.456-76.16 167.104-83.264 116.16 142.080 177.248 265.856 148.832 294.592v0 0zM817.184 788.192c-13.088-13.248-34.4-13.248-47.584 0-13.088 13.28-13.088 34.976 0 48.192 13.184 13.376 34.496 13.376 47.68 0 13.088-13.216 13.088-34.944-0.096-48.192v0 0zM523.968 817.632c-11.264-7.52-22.432-15.328-33.376-23.68l-26.304 13.984c-22.848 12.032-50.816 7.936-69.088-10.56l-184.16-186.592c-13.248-13.44-19.264-32.576-16.416-51.392 2.816-18.72 14.272-35.072 30.944-43.904l41.792-22.208c-41.888-98.88-64.608-195.712-70.816-257.088l-181.824-63.328c-8.128-2.784-13.792-10.368-14.304-19.232-0.416-8.736 4.384-16.864 12.192-20.672l79.328-37.824c15.52-7.392 27.936-20.064 35.328-35.776l37.312-80.288c3.68-7.904 11.776-12.832 20.416-12.32s16.16 6.272 18.88 14.496l62.688 184.512c85.312 14.176 233.376 80.384 362.016 179.904l14.4-45.024c2.624-8.128 9.12-14.304 17.344-16.224 8.224-2.048 16.736 0.512 22.816 6.56l15.424 15.616c11.776 12.032 19.072 27.872 20.192 44.832l5.472 79.264c22.432 22.944 43.712 45.856 63.904 68.576-59.36 13.984-116.864 45.024-164.256 93.12-62.816 63.648-96.384 145.184-99.936 225.248v0 0z" />
<glyph unicode="&#xe92e;" glyph-name="fist" horiz-adv-x="992" d="M684.384 536h234.624c16.192 0 33.984 2.080 43.424 8.512 44.608 156.096-110.624 174.144-110.624 174.144-19.328 4.864-55.936 7.264-93.088 8.512 1.888-7.968 3.136-16.192 3.136-23.872 0-22.624-9.088-42.464-25.952-56.128-20.896-16.8-50.88-22.592-93.088-18.048v-40.352c0-25.344 17.792-46.688 41.568-52.768v0 0zM348.288 57.6v25.664c0 51.008 34.048 92.544 75.904 92.544h41.536c-12.192 16.48-19.68 38.176-19.68 62.016v25.664c0 51.008 33.728 92.544 75.904 92.544h17.216c-12.256 16.192-19.744 37.888-19.744 62.016v25.344c0 50.432 33.184 91.328 74.336 92.608-12.448 13.952-20 32.672-20 52.544v44.864c-26.56 5.824-98.656-0.608-125.536 32.096-17.792 18.272 13.12 42.144 13.12 42.144 58.048-51.936 150.912-48.576 150.912-48.576 71.808-13.12 110.816 33.632 110.816 60.128 0 7.68-2.144 16.256-4.96 24.768 0 0-27.168 51.616-46.24 72.128-13.408 19.2-58.464 56.192-63.104 59.808l1.536 0.96c-84.576 50.752-171.456-11.872-171.456-11.872-144.608-80.704-335.488-232.48-335.488-232.48-62.176-70.88-98.080-30.272-98.080-30.272l-5.312-529.952 93.088-26.88c97.152-50.112 213.344-69.952 311.744-76.96-32.48 10.688-56.544 46.432-56.544 89.184v0 0zM420.448 83.264v-25.664c0-33.6 20.608-62.016 44.96-62.016h282.688c24.416 0 44.64 28.416 44.64 62.016v25.664c0 33.6-20.224 62.016-44.64 62.016h-282.688c-24.352 0-44.96-28.416-44.96-62.016v0 0zM591.616 443.392v-25.344c0-33.92 20.288-62.016 44.96-62.016h282.464c24.288 0 44.96 28.096 44.96 62.016v25.344c0 33.952-20.64 62.304-44.96 62.304h-282.784c-24.32 0-44.64-28.352-44.64-62.304v0 0zM518.208 263.488v-25.664c0-33.6 20.288-62.016 44.64-62.016h282.752c24.288 0 44.96 28.416 44.96 62.016v25.664c0 33.6-20.64 62.016-44.96 62.016h-282.752c-24.32 0-44.64-28.416-44.64-62.016v0 0z" />
<glyph unicode="&#xe92f;" glyph-name="footprints" horiz-adv-x="736" d="M278.976 337.792c-12.128 18.368-27.68 34.528-40.896 52.448-9.152 12.576-19.104 25.472-24.576 39.84-17.024 46.208-8.864 89.184 23.424 125.728 15.712 17.792 34.080 33.088 51.264 49.216 24.256 22.816 40.128 49.344 41.44 84.288 1.472 37.344-16.864 67.712-50.208 76.896-17.024 4.576-52.448 7.264-52.608 6.368-50.912-2.528-100.128-13.024-145.024-38.976-40.864-23.552-70.176-56.896-78.496-105.792-6.816-41.024-2.976-82.048 11.424-120.736 12.992-34.656 29.312-67.968 44.544-101.6 18.080-39.712 29.952-80.736 30.848-124.736 0.288-11.424 0.768-22.816 2.816-33.92 7.136-37.024 24.448-67.104 59.424-83.392 21.152-9.792 43.392-7.712 65.472-4.608 41.344 5.92 68.448 30.528 76.768 69.344 8.256 38.528 6.624 76-15.584 109.632v0 0zM338.24 829.216c15.232 18.816 21.312 41.024 22.080 67.84-0.448 3.84-0.864 10.528-2.080 16.896-1.024 5.472-2.656 10.784-4.576 15.84-12.448 33.024-43.232 40.096-68.16 15.52-24.704-24.448-32.704-77.92-16.416-109.184 16.16-30.656 47.264-33.92 69.184-6.944v0 0zM220.192 831.552c18.976 18.816 23.232 56.448 9.152 79.296-12.608 20.288-34.496 21.472-49.344 2.336-9.632-12.448-13.472-26.976-13.312-42.848-0.16-13.472 2.976-25.184 9.344-34.368 11.36-17.024 29.76-18.816 44.16-4.448v0 0zM137.216 819.136c8 9.92 10.4 21.6 10.976 33.792-0.576 12.704-3.104 24.736-11.424 34.528-10.208 11.968-24.576 11.968-34.656 0-14.624-17.184-14.784-50.816-0.416-68.288 10.336-12.768 25.344-12.768 35.552 0v0 0zM82.72 796.448c8.576 15.552 3.392 41.792-10.4 52.768-10.368 8.288-22.624 5.92-28.448-6.080-2.656-5.504-3.424-11.872-5.152-17.952 1.472-13.76 5.312-25.792 15.84-34.496 10.048-8.32 21.792-5.664 28.16 5.76v0 0zM37.088 755.552c3.84 6.080 5.472 13.792 8.128 21.216-2.656 7.232-4.128 14.368-7.84 19.968-5.92 9.632-16.864 9.472-24.128 0.864-8.928-10.656-9.472-30.944-1.216-42.208 7.264-9.792 18.56-10.208 25.088 0.16v0 0zM500.896 549.792c0 0.768-34.816 7.84-52.448 7.84-34.656 0-60.288-24.416-68.896-60.736-8.16-34.080 0.16-63.84 17.472-92.288 12.288-20.288 26.080-39.84 36.288-61.184 21.344-43.712 17.92-87.424-10.816-127.264-9.024-12.608-22.208-22.368-34.368-32-17.344-13.92-36.576-25.184-53.344-39.84-30.4-26.368-41.76-62.208-44.16-101.472-2.24-39.712 17.344-70.528 55.552-87.264 20.448-8.896 41.344-16.736 64.288-12.896 38.080 6.368 62.656 30.656 79.424 64.448 5.024 10.080 8.448 21.024 11.712 32 12.576 42.208 34.976 78.656 62.976 112 23.712 28.448 48.288 56.16 70.080 86.080 24.16 33.472 38.656 72 43.104 113.344 5.184 49.344-14.368 89.344-47.392 122.976-36.608 37.024-81.024 60.288-129.472 76.288v0 0zM477.056 622.208c24.16 25.664 30.656 79.424 13.184 109.632-17.344 30.208-48.896 31.712-69.632 3.104-3.264-4.448-6.208-9.184-8.736-14.080-2.816-5.92-5.024-12.128-6.528-15.712-6.368-26.080-6.528-49.024 3.264-71.392 13.92-31.712 44.736-36.864 68.448-11.584v0 0zM566.848 597.184c8.608 7.424 14.656 17.632 18.080 30.848 4.448 15.104 4.448 30.208-1.472 44.864-9.184 22.368-30.656 26.976-48.16 10.848-19.712-18.4-25.472-55.712-12.288-78.976 10.080-17.632 28.16-20.736 43.84-7.584v0 0zM633.952 561.184c18.528 13.056 27.264 45.472 17.792 65.92-6.656 14.208-20.448 18.24-33.344 9.312-10.816-7.232-16.288-18.208-20.288-30.176-2.656-12.032-3.392-24 1.472-35.584 6.656-15.104 20.896-19.104 34.368-9.472v0 0zM646.24 534.24c3.104-12.576 13.632-18.208 25.472-13.024 12.608 5.664 19.552 16.16 24.448 29.056 0 6.368 0.896 12.736-0.16 18.656-2.368 13.216-13.632 18.656-25.792 13.504-16.288-6.976-28.288-30.848-24-48.16v0 0zM713.344 516.896c-4.608 10.4-15.104 13.344-23.424 5.76-5.024-4.576-8.288-10.944-12.896-17.152 0.576-8 0.16-15.84 2.208-22.656 3.552-11.712 14.528-14.208 24.16-6.848 10.976 8.736 15.712 28.288 9.92 40.896v0 0z" />
<glyph unicode="&#xe930;" glyph-name="fraud" horiz-adv-x="992" d="M915.648 163.808c-4.448 5.632-29.28 34.176-78.944 52.896-20.256 6.208-69.376 12.384-121.312 22.624l-11.616 19.392c-26.048 8.352-49.056 18.528-64.864 31.136 14.88 15.104 28.544 33.056 40.736 53.76 39.296 66.592 53.312 144.352 53.312 194.944 0 0.736-0.384 74.976-1.6 84.768-0.896 7.168-2.208 14.176-3.808 21.088 33.952 0.544 61.344 27.84 61.344 61.568 0 34.016-27.904 61.6-62.304 61.6h-19.68c-28.608 58.4-89.088 98.656-159.136 98.656h-88.544c-70.016 0-130.528-40.288-159.136-98.656h-19.68c-34.432 0-62.304-27.584-62.304-61.6 0-33.728 27.392-61.056 61.376-61.568-1.12-4.736-2.112-9.504-2.912-14.336-2.016-12.576-2.592-90.752-2.592-91.52 0-50.592 13.984-128.384 53.312-194.944 12.224-20.704 25.856-38.656 40.736-53.76-15.808-12.608-38.784-22.752-64.832-31.136l-78.272-19.424c-51.936-10.24-34.368-16.448-54.656-22.624-49.664-18.72-74.496-47.264-78.944-52.896-91.36-134.080 291.264-111.2 408.704-111.2 1.12 0 2.304 0.032 3.424 0.032s2.336-0.032 3.456-0.032c117.44 0 500.064-22.88 408.704 111.2v0 0zM400.576 633.792c-37.472 0-71.008-13.056-93.76-33.632 0.352 12.288 0.736 22.208 1.184 25.024 1.056 6.528 2.528 12.928 4.32 19.232h382.464c2.24-8.096 3.968-16.416 5.024-24.928 0.256-2.176 0.48-9.792 0.672-19.616-22.72 20.768-56.416 33.92-94.048 33.92h-205.856zM474.848 536.64c0-19.968-52.832-54.368-106.912-54.368-37.664 0-54.432 16.768-54.432 54.368 0 29.472 36.928 54.368 80.672 54.368 43.712 0 80.672-24.896 80.672-54.368v0 0zM612.8 591.008c43.744 0 80.672-24.896 80.672-54.368 0-37.6-16.8-54.368-54.432-54.368-54.080 0-106.912 34.4-106.912 54.368 0 29.472 36.928 54.368 80.672 54.368v0 0zM354.784 359.488c-17.888 30.304-30.080 63.136-37.792 94.208 14.72-9.024 33.664-14.208 57.344-14.208 47.072 0 99.008 26.24 130.496 26.24s80.768-26.24 127.84-26.24c23.68 0 42.624 5.184 57.344 14.208-7.712-31.072-19.904-63.904-37.792-94.208-25.984-44-72.864-96.48-148.736-96.48s-122.72 52.448-148.704 96.48v0 0z" />
<glyph unicode="&#xe931;" glyph-name="gavel" horiz-adv-x="992" d="M644.576 471.584l-576-174.752c-4.544-1.376-9.248-2.080-14.016-2.080-21.44 0-40.704 14.56-46.848 35.456-7.712 26.24 7.008 53.952 32.864 61.792l576 174.752-29.984 101.952 262.208 79.552 87.968-299.008-262.176-79.552-29.984 101.888zM703.52 288.544c2.88-9.76 11.872-16.576 21.92-16.576 2.208 0 4.384 0.352 6.56 0.96l209.024 63.424c5.856 1.792 10.656 5.76 13.568 11.232s3.52 11.712 1.792 17.664l-11.2 38.080-252.832-76.736 11.168-38.048zM821.984 822.080c-2.88 9.76-11.872 16.576-21.856 16.576-2.208 0-4.416-0.352-6.592-0.96l-208.992-63.424c-5.856-1.792-10.688-5.76-13.6-11.2s-3.52-11.744-1.792-17.664l9.088-30.752 252.832 76.704-9.056 30.784zM981.152 103.776h-23.584v25.504c0 12.832-10.24 23.2-22.848 23.2h-338.304c-12.608 0-22.848-10.4-22.848-23.2v-25.504h-23.584c-12.64 0-22.848-10.368-22.848-23.232 0-12.8 10.208-23.2 22.848-23.2h431.2c12.64 0 22.848 10.4 22.848 23.2 0 12.832-10.24 23.232-22.848 23.232v0 0z" />
<glyph unicode="&#xe932;" glyph-name="hammer" d="M762.656 330.528l200.832 203.968 31.776-31.712c14.752-14.912 14.752-39.392 0-54.24l-148.096-148.736c-14.752-14.88-38.976-14.88-54.048 0l-30.464 30.72zM0 92.544c14.080-52.224 58.976-94.528 108.096-109.408l391.808 392-108.416 109.408-391.488-392zM739.392 402.912c1.632-3.648 2.944-6.944 4.256-10.56 0.992-2.656 1.952-5.632 2.624-7.936 1.312-5.28 2.624-10.24 2.944-15.2 57.664 57.856 115.584 115.712 173.312 173.472 0 0-109.76 6.048-143.488 145.152-10.144 10.24-20.64 20.448-30.784 31.040-142.176 143.168-291.936 194.016-432.384 181.184-7.904-0.672-23.328-2.592-37.44-4.992-24.896-3.648-27.168-40.608 0-40.96 12.864 0 25.92 0 32.128-1.024 25.568-3.264 50.816-5.92 75.392-15.136 104.832-40.704 172.928-155.712 83.168-244.96-23.872-24.128-71.776-71.744-71.776-71.744l144.192-142.752c0 0 10.496 12.224 16.704 17.856 28.832 24.128 88.128 63.136 148.096 39.424 9.504-3.616 16.704-9.76 22.592-16.352 2.624-3.648 5.568-7.264 7.872-11.392 0.992-1.728 1.632-3.392 2.624-5.056v0 0z" />
<glyph unicode="&#xe933;" glyph-name="hand-stop" horiz-adv-x="800" d="M812.16 743.456c0-32.736-26.784-59.264-59.68-59.264-32.736 0-59.488 26.528-59.488 59.264 0 32.512 26.752 59.040 59.488 59.040 32.896 0 59.68-26.528 59.68-59.040v0 0zM653.28 861.504c0-32.672-26.528-59.008-59.488-59.008-32.736 0-59.488 26.336-59.488 59.008s26.72 59.040 59.488 59.040c32.928 0 59.488-26.336 59.488-59.040v0 0zM494.592 900.96c0-32.672-26.528-59.040-59.488-59.040s-59.488 26.336-59.488 59.040c0 32.512 26.56 59.008 59.488 59.008s59.488-26.528 59.488-59.008v0 0zM335.936 822.080c0-32.512-26.72-59.040-59.488-59.040-32.928 0-59.456 26.528-59.456 59.040 0 32.704 26.56 59.040 59.456 59.040 32.736 0 59.488-26.336 59.488-59.040v0 0zM692.992 743.456v-256.16c0-10.752-8.928-19.616-19.744-19.616-11.040 0-19.968 8.896-19.968 19.616v374.208h-118.944v-334.816c0-10.752-8.928-19.584-19.776-19.584-11.040 0-19.968 8.832-19.968 19.584v374.24h-118.976v-374.24c0-10.752-8.896-19.584-19.968-19.584-10.816 0-19.744 8.832-19.744 19.584v295.392h-118.944v-492.288l-80.448 109.216c-23.808 36.352-70.336 48.64-104.416 27.712-33.92-21.344-42.272-67.84-18.784-104.256 0 0 129.6-194.592 184.864-277.824 55.2-83.488 144.736-148.704 312.096-148.704 277.056 0 301.856 212.352 301.856 275.744v531.744h-119.168z" />
<glyph unicode="&#xe934;" glyph-name="handcuffs" d="M359.008 388.48v71.808c0 27.872-22.592 50.464-50.432 50.464h-2.336v-51.072c0-36.576-29.632-66.24-66.208-66.24s-66.208 29.664-66.208 66.24v51.072h-2.336c-27.84 0-50.432-22.624-50.432-50.464v-71.808c-72.192-41.44-121.056-119.168-121.056-208.256 0-115.36 81.76-211.936 190.368-234.88v103.648c-53.056 20.16-91.040 71.2-91.040 131.264 0 77.6 63.104 140.768 140.704 140.768s140.704-63.168 140.704-140.768c0-60.064-37.984-111.104-91.040-131.264v-103.648c108.576 22.944 190.368 119.52 190.368 234.88 0 89.088-48.864 166.816-121.056 208.256v0 0zM948.768 479.648c-13.696 16.8-29.44 31.264-46.56 43.552l7.232 71.296c2.816 27.744-17.376 52.512-45.056 55.328l-2.336 0.256-5.184-50.816c-3.456-34.112-32.224-59.552-65.792-59.552-2.24 0-4.512 0.128-6.784 0.352-36.384 3.712-62.848 36.224-59.136 72.608l5.184 50.848-2.304 0.224c-13.312 1.376-26.624-2.624-37.024-11.104s-16.928-20.704-18.304-33.984l-7.232-71.072c-76.544-33.856-132.544-106.688-141.536-195.232-6.496-63.808 12.224-126.336 52.736-176.064 29.824-36.608 68.864-62.944 112.864-76.928l10.464 102.976c-17.664 8.8-33.568 21.024-46.368 36.736-23.712 29.152-34.72 65.792-30.912 103.2 7.328 72.128 67.424 126.496 139.712 126.496 4.832 0 9.632-0.224 14.528-0.736 37.408-3.808 71.104-21.952 94.816-51.104s34.72-65.792 30.912-103.2c-6.080-59.648-48.736-106.752-103.872-121.408l-10.464-103.040c111.872 11.68 201.504 99.872 213.152 214.336 6.496 63.808-12.224 126.368-52.736 176.064v0 0zM173.824 570.176c7.296-7.488 16.064-13.536 26.080-17.472l15.296-6.048v-86.944c0-13.696 11.136-24.832 24.832-24.832s24.832 11.136 24.832 24.832v75.008c8.864 0.48 17.6 2.208 25.792 5.792 5.696 2.464 10.784 5.728 15.584 9.376 10.784 8.224 19.36 19.072 24.48 32.032l24.48 61.952c11.040 28.032 3.872 58.688-15.552 79.296l51.040 44.096c5.44-5.632 11.456-10.656 18.432-14.368 10.912-5.792 23.136-8.864 35.424-8.864 7.424 0 14.816 1.12 21.92 3.264l63.712 19.392c19.232 5.856 35.040 18.848 44.512 36.608 4.32 8.032 6.816 16.672 8.032 25.472l71.168-13.728c-0.384-2.272-0.992-4.448-1.152-6.784-1.44-20.032 4.992-39.456 18.112-54.72l43.552-50.368c5.28-6.144 11.712-10.944 18.528-15.040 11.552-6.912 24.672-11.040 38.432-11.040 0.672 0 1.344 0.16 2.048 0.192l-7.008-68.768c-1.376-13.664 8.544-25.856 22.176-27.232 0.864-0.064 1.696-0.128 2.56-0.128 12.576 0 23.392 9.536 24.672 22.304l9.792 96.288 21.952 18.976c12.416 10.72 20.288 24.704 23.808 39.584 5.376 22.752 0.352 47.616-16.032 66.624l-43.488 50.368c-12.928 15.040-31.712 24.48-51.488 25.92-20.256 1.376-39.616-5.088-54.72-18.112l-25.952-22.432-105.504 20.32-4.192 13.824c-5.856 19.232-18.848 35.040-36.608 44.512-17.472 9.312-38.528 11.328-57.312 5.6l-63.744-19.392c-19.2-5.856-35.008-18.848-44.48-36.576s-11.488-38.080-5.632-57.376l5.632-18.496-74.080-64-14.016 5.568c-37.888 14.944-82.752-4.608-97.696-42.368l-24.448-61.92c-7.392-18.656-7.040-39.136 0.928-57.632 3.712-8.544 8.992-16.064 15.328-22.56v0 0zM756.288 851.648h0.352c6.72-0.48 13.088-3.68 17.536-8.8l43.52-50.4c6.016-6.976 7.136-16.192 4.544-24.384-3.776 3.52-8.448 6.208-13.984 6.752-13.76 1.312-25.824-8.544-27.232-22.176l-2.496-24.544c-9.376-2.528-20.128 0-26.624 7.552l-12.704 14.72-30.816 35.616c-4.48 5.216-6.656 11.84-6.176 18.688 0.032 0.352 0.224 0.672 0.288 1.024l22.432-4.32c1.568-0.32 3.168-0.448 4.736-0.448 11.68 0 22.048 8.256 24.352 20.128 2.080 10.944-3.52 21.28-12.864 26.304 4.096 2.592 8.832 4.352 15.136 4.352v0 0zM411.552 865.536c3.2 5.952 8.736 10.528 15.168 12.48l63.744 19.36c2.4 0.736 4.928 1.088 7.424 1.088 4.192 0 8.384-1.056 12.064-3.008 2.24-1.184 3.968-2.944 5.728-4.672-10.56-1.12-19.68-8.672-21.792-19.616-2.592-13.472 6.208-26.528 19.68-29.088l19.968-3.84c-0.064-4-0.768-7.936-2.72-11.584-3.2-6.048-8.608-10.464-15.168-12.48l-63.68-19.392c-6.304-1.952-13.536-1.248-19.52 1.952-1.504 0.8-2.592 2.112-3.904 3.2l18.080 15.616c10.368 8.96 11.52 24.672 2.56 35.040-8.992 10.432-24.672 11.52-35.008 2.56l-4.768-4.128c-1.024 5.632-0.544 11.392 2.176 16.512v0 0zM203.712 632.16l24.448 61.888c3.552 8.928 11.68 14.752 21.056 15.808-8.128-9.184-8.768-22.944-0.544-32.48 4.928-5.696 11.84-8.608 18.784-8.608 5.76 0 11.552 2.016 16.224 6.048l18.272 15.776c7.84-6.944 11.168-18.176 7.072-28.48l-24.48-61.952c-2.528-6.368-7.36-11.392-13.6-14.080-1.92-0.864-4-0.96-6.080-1.312v19.808c0 13.728-11.136 24.832-24.832 24.832s-24.832-11.104-24.832-24.832v-3.808c-4.8 2.72-8.96 6.656-11.168 11.712-2.72 6.304-2.816 13.312-0.32 19.68v0 0z" />
<glyph unicode="&#xe935;" glyph-name="home" horiz-adv-x="992" d="M995.328 372.608l-184.8 180.928v271.392h-123.2v-150.784l-184.8 180.928-492.832-482.496v-30.144h123.2v-301.568h308v180.928h123.2v-180.928h308v301.568h123.232v30.144z" />
<glyph unicode="&#xe936;" glyph-name="homicide" horiz-adv-x="832" d="M701.92 211.264l-93.664-34.56c5.728-28.736 5.12-59.296-2.624-89.248-26.176-101.376-125.088-163.168-220.48-136.256-95.808 27.008-150.112 132.704-121.12 234.080 6.368 22.336 16.544 42.976 29.6 61.12l-16.736 16.64-50.976-54.72c-23.648-25.376-58.208-35.52-90.176-26.4-14.176 4.032-27.168 11.808-37.6 22.432l-46.080 47.072c-16.832 17.184-26.176 41.376-25.6 66.304 0.576 24.864 10.976 49.152 28.48 66.752l150.048 150.72c23.2 23.296 56.576 32.064 87.168 23.072 5.184-1.536 10.24-3.552 15.072-6.048l-70.912 100.448c-24.736 35.008-22.080 82.112 6.24 114.4l128.928 147.072c20.736 23.68 53.536 32.992 83.584 23.84 19.264-5.856 35.68-18.656 46.208-36.032l39.872-65.76c7.040-11.616 11.296-24.256 12.864-37.088 11.264 1.696 23.040 0.96 34.624-2.528 10.368-3.136 19.936-8.288 28.416-15.264l172.448-142.592c18.528-15.328 30.144-38.144 31.84-62.592 1.728-24.544-6.688-48.608-23.104-66.016l-34.144-36.16c9.92-17.088 14.688-37.504 12.576-58.496l-12.192-120.512c-3.872-38.112-28.384-70.944-62.592-83.552v0zM692.928 303.648l12.832 120.704c0.864 8.288-3.968 16.16-11.552 18.72l-58.336 19.616c-0.16 0.032-0.288 0.096-0.416 0.128-6.784 2.016-13.728-2.592-14.848-9.952l-15.232-100.032c-0.672-4.416-3.68-8.096-7.712-9.472l-59.232-20c-0.768-0.256-1.536-0.256-2.208-0.064-1.92 0.544-3.296 2.656-2.72 4.96l58.688 242.176c0.672 2.752 3.36 4.192 5.76 3.456 0.512-0.16 0.992-0.384 1.472-0.736l81.28-60.768c1.568-1.152 3.264-2.016 5.024-2.528 5.504-1.632 11.552-0.16 15.712 4.224l46.368 48.608c5.056 5.28 4.48 14.048-1.216 18.752l-173.344 143.552c-1.12 0.928-2.336 1.568-3.616 1.952-4.8 1.44-10.176-0.864-12.224-5.984l-58.208-143.168c-0.832-2.048-2.912-2.88-4.736-2.336-0.8 0.224-1.504 0.736-2.080 1.472l-79.776 110.56c-2.4 3.328-2.208 7.904 0.416 11.008l66.24 77.952c5.28 6.208 5.984 15.264 1.728 22.336l-39.904 66.176c-1.376 2.272-3.424 3.776-5.696 4.48-3.552 1.088-7.616 0.128-10.336-2.976l-128.224-147.936c-5.376-6.208-5.856-15.392-1.12-22.080l121.888-171.84c2.592-3.68 3.52-8.384 2.464-12.832l-30.208-129.632c-0.576-2.528-3.040-3.808-5.184-3.2-0.576 0.16-1.152 0.48-1.664 0.96l-106.24 102.016c-1.728 1.664-3.744 2.784-5.888 3.424-4.96 1.472-10.592 0.128-14.56-3.904l-149.472-151.808c-5.792-5.888-5.952-15.36-0.384-21.024l45.856-46.688c1.728-1.76 3.808-2.976 6.016-3.584 4.96-1.408 10.56 0 14.496 4.192l98.432 104.512c1.952 2.048 4.736 2.752 7.2 2.048 1.088-0.32 2.080-0.896 2.944-1.728l119.808-118.816c2.528-2.496 5.504-4.416 8.8-5.6 0.704-0.256 0.768-1.376 0.032-1.6-34.144-9.824-63.136-37.888-74.016-76.64-16.448-58.784 15.040-119.584 70.368-135.296 55.2-15.68 112.544 19.68 128.064 78.496 11.552 43.744-3.328 88.192-34.368 114.208-0.192 0.16 0.256 0.576 0.512 0.512v0c0.224-0.096 0.48-0.16 0.704-0.224 2.4-0.672 4.96-0.608 7.328 0.256l169.632 61.696c7.968 2.912 13.696 10.464 14.656 19.36v0z" />
<glyph unicode="&#xe937;" glyph-name="info" horiz-adv-x="480" d="M365.248 960c69.6 0 104.352-46.752 104.352-100.256 0-66.752-60.416-128.544-139.072-128.544-65.952 0-104.384 38.4-102.56 101.856 0 53.44 45.76 126.944 137.312 126.944v0zM151.072-64c-54.88 0-95.168 33.408-56.704 180.416l63.040 260.64c10.944 41.76 12.768 58.464 0 58.464-16.544 0-87.808-28.864-129.952-57.248l-27.424 45.088c133.6 111.904 287.36 177.504 353.248 177.504 54.88 0 64.064-65.12 36.64-165.344l-72.192-274.016c-12.832-48.448-7.296-65.152 5.472-65.152 16.48 0 70.496 20.096 123.552 61.888l31.136-41.792c-130.016-130.24-271.872-180.448-326.816-180.448v0zM151.072-64v0z" />
<glyph unicode="&#xe938;" glyph-name="judgment" horiz-adv-x="992" d="M997.024 460.128l-147.84 323.168c-0.512 1.088-1.088 2.112-1.728 3.072-0.192 0.256-0.384 0.48-0.576 0.736-0.576 0.8-1.184 1.536-1.888 2.24-0.288 0.256-0.544 0.544-0.8 0.8-0.768 0.704-1.536 1.344-2.368 1.92-0.224 0.16-0.448 0.352-0.672 0.512-1.056 0.672-2.176 1.248-3.328 1.76-0.32 0.128-0.672 0.224-0.992 0.352-0.928 0.352-1.856 0.608-2.784 0.864-0.384 0.096-0.8 0.192-1.184 0.256-1.312 0.224-2.624 0.384-4 0.384h-260.512c-4.448 13.6-13.12 25.344-24.448 33.824v31.744c0 12.064-9.984 21.856-22.304 21.856h-41.632c-12.288 0-22.304-9.792-22.304-21.856v-32.288c-11.008-8.448-19.392-19.968-23.744-33.28h-261.216c-1.376 0-2.688-0.16-4-0.384-0.384-0.064-0.8-0.16-1.184-0.256-0.96-0.224-1.856-0.512-2.784-0.864-0.32-0.128-0.672-0.256-0.992-0.384-1.184-0.48-2.272-1.056-3.328-1.76-0.256-0.16-0.448-0.32-0.672-0.48-0.832-0.608-1.632-1.216-2.368-1.92-0.288-0.288-0.544-0.544-0.832-0.8-0.672-0.704-1.312-1.472-1.888-2.24-0.16-0.256-0.384-0.48-0.576-0.736-0.64-0.992-1.248-1.984-1.728-3.072l-0.192-0.416-0.032-0.032-148.16-323.872c-2.496-3.552-4-7.84-4-12.48 0-93.376 77.472-169.28 172.704-169.28s172.704 75.936 172.704 169.28c0 4.64-1.504 8.928-4 12.448l-134.272 293.536h227.328c4.48-12.704 12.64-23.68 23.2-31.84v-548.064h-197.696c-8.352 0-16-4.576-19.808-11.84l-61.312-116.576c-3.584-6.784-3.296-14.88 0.768-21.376s11.264-10.496 19.072-10.496h604.32c12.288 0 22.304 9.76 22.304 21.856 0 4.288-1.28 8.288-3.424 11.648l-60.48 114.944c-3.84 7.264-11.456 11.84-19.808 11.84h-197.696v547.552c10.912 8.16 19.328 19.392 23.904 32.352h226.624l-135.872-297.056c-0.032-0.064-0.032-0.16-0.096-0.224-0.096-0.224-0.16-0.48-0.288-0.704-0.384-0.992-0.736-2.048-0.96-3.072-0.064-0.256-0.16-0.544-0.192-0.8-0.224-1.248-0.352-2.528-0.384-3.808 0-0.096-0.032-0.224-0.032-0.352 0-93.376 77.472-169.28 172.736-169.28s172.704 75.936 172.704 169.28c0 5.152-1.92 9.856-4.96 13.6v0 0zM288.256 468.384h-231.072l115.552 252.576 115.552-252.576zM527.136 775.104c0-14.048-11.68-25.472-26.016-25.472s-26.016 11.424-26.016 25.472c0 14.080 11.68 25.504 26.016 25.504s26.016-11.424 26.016-25.504v0 0zM713.312 468.384l115.552 252.576 115.552-252.576h-231.072z" />
<glyph unicode="&#xe939;" glyph-name="layers" horiz-adv-x="992" d="M1000.992 636.864l-500.544 272.096-500.48-272.096 500.48-272.032 500.544 272.032zM1000.992 636.864v0zM500.48 277.152l-407.36 221.28-93.12-50.528 500.48-272.128 500.544 272.128-92.928 50.528-407.616-221.28zM500.48 277.152v0zM500.48 88.128l-407.36 221.504-93.12-50.56 500.48-272.064 500.544 272.064-92.928 50.56-407.616-221.504zM500.48 88.128v0z" />
<glyph unicode="&#xe93a;" glyph-name="map-hybrid" horiz-adv-x="992" d="M326.048-58.080c-4.352 4.064-30.144 9.856-95.776 21.6-30.944 5.536-91.232 16.448-134.016 24.288s-81.984 14.592-87.104 15.040c-8.16 0.704-9.12 1.952-7.584 9.664 0.992 4.864 14.4 90.048 29.824 189.312 73.696 474.208 88.32 565.824 90.56 568.16 1.344 1.376 62.24-13.184 135.36-32.352l132.928-34.848 52.096 22.976c28.64 12.64 53.728 22.304 55.744 21.504 5.344-2.176 12.736-51.168 8.512-56.512-6.048-7.712-93.248-48.32-107.392-50.016-8.416-0.992-23.456 1.184-38.464 5.632-13.568 4-60.32 16-103.904 26.688-64.608 15.808-80.064 18.592-83.52 14.912-5.664-6.016-21.984-115.52-53.856-361.696-14.464-111.776-28.032-215.456-30.144-230.4-2.88-20.448-2.88-28.352-0.032-32 2.080-2.656 13.824-7.52 26.048-10.784 43.168-11.552 220.672-47.424 234.592-47.424 12.256 0 190.56 60.992 280.64 95.968 24.608 9.568 41.408 11.072 62.88 5.632 10.56-2.688 182.944-34.976 212.352-39.776 15.68-2.56 15.872-0.704 8.032 80.672-4.064 42.080-16.992 157.504-28.736 256.512l-21.376 180 12.928 14.88c7.104 8.192 17.12 21.792 22.24 30.24s9.728 16.032 10.272 16.832c0.544 0.8 1.664 0.704 2.56-0.224 1.92-2.016 28.32-188.864 51.168-362.144 9.152-69.376 21.216-160.832 26.816-203.232 14.208-107.52 14.272-108.064 10.624-105.664-1.76 1.152-61.984 14.656-133.824 30.048s-142.336 31.2-156.608 35.136c-34.752 9.632-46.112 9.12-78.4-3.584-15.072-5.92-78.016-28.8-139.872-50.848s-115.072-41.632-118.24-43.52c-6.976-4.224-42.976-4.64-47.36-0.544zM385.952 132.48c-6.976 10.56-6.464 20.928 1.44 29.92 16.8 19.072 62.88 11.424 62.88-10.464 0-17.824-14.976-27.264-43.328-27.264-12.64 0-16.896 1.568-21.024 7.776zM289.76 149.76c-10.080 9.376-11.712 12.928-10.88 23.616 0.768 9.856 3.040 13.632 10.368 17.344 12.288 6.208 29.024 2.752 41.792-8.64 7.968-7.104 10.016-11.68 10.016-22.528 0-16.032-6.048-20.832-26.144-20.832-10.24 0-16.096 2.56-25.216 11.040zM479.232 188.064c-6.912 4.256-7.968 27.072-1.664 35.328 13.152 17.216 42.56 23.040 53.248 10.528 11.136-13.056 4.288-34.176-14.4-44.416-10.944-5.984-28.704-6.688-37.184-1.44zM265.76 233.472c-24.992 10.624-11.072 62.944 16.736 62.944 15.488 0 22.176-8.896 22.176-29.44 0-13.728-1.696-18.432-9.664-26.88-10.016-10.592-16.448-12.064-29.248-6.624zM566.688 256.736c-7.968 3.392-10.848 18.048-5.952 30.464 10.72 27.168 58.272 31.488 58.272 5.28 0-24.896-29.824-45.248-52.32-35.712zM276.128 342.56c-14.88 7.616-19.648 39.424-7.808 51.968 10.56 11.2 31.52 7.872 42.080-6.72 4.416-6.112 5.568-31.328 1.696-37.44-6.752-10.72-23.296-14.304-35.968-7.808zM229.824 439.776c-20.256 13.088-28.256 38.016-14.656 45.728 20.192 11.424 56.48-6.4 56.48-27.744 0-22.976-20.448-31.776-41.792-17.984zM703.872 380.96c-1.984 9.152-5.76 32.544-8.416 51.968-3.488 25.536-8.192 43.040-16.896 63.072-6.624 15.264-20.064 47.232-29.824 71.008-17.12 41.728-18.72 44.256-45.408 70.688-42.112 41.728-58.688 80.8-58.592 138.208 0.128 85.92 49.696 151.648 130.976 173.664 31.488 8.544 46.112 8.608 75.776 0.384 82.176-22.752 134.080-89.92 133.952-173.408-0.096-60.352-22.368-109.152-67.904-148.576-15.168-13.152-20.256-21.792-50.752-86.144-29.632-62.56-34.688-75.872-40.256-106.144-11.584-62.848-13.568-71.392-16.32-71.392-1.504 0-4.352 7.488-6.336 16.64zM757.568 687.904c28.576 17.728 48.512 52.48 48.512 84.608 0 20.096-9.568 45.888-23.008 62.080-41.536 49.952-124.16 39.040-149.376-19.744-4.096-9.568-6.144-22.592-6.208-39.392-0.064-21.568 1.44-28.16 10.688-46.976 18.432-37.472 44.16-53.44 82.464-51.136 16.288 0.992 25.984 3.744 36.96 10.56z" />
</font>
</defs>
</svg>
